<svg width="24" height="24" viewBox="0 0 24 24" fill="none" xmlns="http://www.w3.org/2000/svg">
<path d="M1.62868 9.87868L1.09835 9.34835L1.09835 9.34836L1.62868 9.87868ZM5.03033 17.7803L4.50009 17.2499L4.49991 17.2501L5.03033 17.7803ZM18.9697 17.7803L19.5002 17.2502L19.4998 17.2498L18.9697 17.7803ZM18.9697 9.21967L19.4999 9.75009L19.5001 9.74991L18.9697 9.21967ZM22.3713 9.87868L22.9016 9.34836L22.9016 9.34836L22.3713 9.87868ZM6.16637 3.16637L6.6967 3.6967L6.6967 3.6967L6.16637 3.16637ZM17.8336 3.16637L17.3033 3.69669L17.3033 3.69671L17.8336 3.16637ZM8.25 8.24989C8.24992 8.6641 8.58564 8.99996 8.99985 9.00004C9.41406 9.00012 9.74992 8.6644 9.75 8.25019L8.25 8.24989ZM10.6213 5.58619L10.966 6.2523L10.966 6.25228L10.6213 5.58619ZM12.2069 5.25776L12.1552 6.00597L12.1552 6.00597L12.2069 5.25776ZM14.7529 7.05843L14.0646 7.35641L14.0647 7.35653L14.7529 7.05843ZM14.3244 10.1473L14.9055 10.6215L14.9055 10.6214L14.3244 10.1473ZM13 11.079L12.75 10.3719L12.7499 10.3719L13 11.079ZM12.275 11.6275L11.6625 11.1946L11.6625 11.1947L12.275 11.6275ZM12 12.494H12.75V12.4935L12 12.494ZM11.25 12.75C11.25 13.1642 11.5858 13.5 12 13.5C12.4142 13.5 12.75 13.1642 12.75 12.75H11.25ZM4.5 17.25H3.75V18.75H4.5V17.25ZM3.75 17.25C3.15328 17.25 2.58098 17.0129 2.15901 16.591L1.09835 17.6516C1.8016 18.3549 2.75542 18.75 3.75 18.75V17.25ZM2.15901 16.591C1.73706 16.169 1.5 15.5967 1.5 15H0C0 15.9945 0.395084 16.9484 1.09835 17.6516L2.15901 16.591ZM1.5 15V12H0V15H1.5ZM1.5 12C1.5 11.4033 1.73705 10.831 2.15901 10.409L1.09835 9.34836C0.395086 10.0516 0 11.0055 0 12H1.5ZM2.15901 10.409C2.58097 9.98705 3.15326 9.75 3.75 9.75V8.25C2.75544 8.25 1.80161 8.64509 1.09835 9.34835L2.15901 10.409ZM3.75 9.75H4.5V8.25H3.75V9.75ZM4.5 9.75L5.56066 8.68934C5.27936 8.40804 4.89782 8.25 4.5 8.25V9.75ZM4.5 9.75H6C6 9.35218 5.84196 8.97064 5.56066 8.68934L4.5 9.75ZM4.5 9.75V17.25H6V9.75H4.5ZM4.5 17.25L4.50009 17.2499L5.56057 18.3107C5.84199 18.0294 6 17.6478 6 17.25H4.5ZM4.49991 17.2501L4.5 17.25V18.75C4.89779 18.75 5.27939 18.592 5.56075 18.3105L4.49991 17.2501ZM20.25 17.25H19.5V18.75H20.25V17.25ZM19.5 17.25L19.5002 17.2502L18.4392 18.3104C18.7206 18.592 19.1023 18.75 19.5 18.75V17.25ZM19.4998 17.2498L19.5 17.25H18C18 17.6477 18.158 18.0294 18.4396 18.3108L19.4998 17.2498ZM19.5 17.25V9.75H18V17.25H19.5ZM19.5 9.75L19.4999 9.75009L18.4395 8.68925C18.158 8.97061 18 9.35221 18 9.75H19.5ZM19.5001 9.74991L19.5 9.75V8.25C19.1022 8.25 18.7206 8.40801 18.4393 8.68943L19.5001 9.74991ZM19.5 9.75H20.25V8.25H19.5V9.75ZM20.25 9.75C20.8467 9.75 21.419 9.98706 21.841 10.409L22.9016 9.34836C22.1984 8.64508 21.2445 8.25 20.25 8.25V9.75ZM21.841 10.409C22.2629 10.831 22.5 11.4033 22.5 12H24C24 11.0055 23.6049 10.0516 22.9016 9.34836L21.841 10.409ZM22.5 12V15H24V12H22.5ZM22.5 15C22.5 15.5967 22.2629 16.169 21.841 16.591L22.9016 17.6516C23.6049 16.9484 24 15.9945 24 15H22.5ZM21.841 16.591C21.419 17.0129 20.8467 17.25 20.25 17.25V18.75C21.2445 18.75 22.1984 18.3549 22.9016 17.6516L21.841 16.591ZM4.5 9C4.5 7.01087 5.29017 5.10322 6.6967 3.6967L5.63604 2.63604C3.94821 4.32386 3 6.61305 3 9H4.5ZM6.6967 3.6967C8.10322 2.29017 10.0109 1.5 12 1.5V0C9.61305 0 7.32386 0.948207 5.63604 2.63604L6.6967 3.6967ZM12 1.5C13.9891 1.5 15.8968 2.29018 17.3033 3.69669L18.3639 2.63605C16.6762 0.948201 14.3869 0 12 0V1.5ZM17.3033 3.69671C18.7098 5.10322 19.5 7.01087 19.5 9H21C21 6.61305 20.0518 4.32386 18.3639 2.63603L17.3033 3.69671ZM15 22.5H17.25V21H15V22.5ZM17.25 22.5C18.2445 22.5 19.1984 22.1049 19.9016 21.4016L18.841 20.341C18.419 20.7629 17.8467 21 17.25 21V22.5ZM19.9016 21.4016C20.6049 20.6984 21 19.7445 21 18.75H19.5C19.5 19.3467 19.2629 19.919 18.841 20.341L19.9016 21.4016ZM21 18.75V18H19.5V18.75H21ZM13.5 22.5H12V24H13.5V22.5ZM12 22.5C11.801 22.5 11.6102 22.421 11.4696 22.2804L10.409 23.341C10.831 23.763 11.4034 24 12 24V22.5ZM11.4696 22.2804C11.329 22.1398 11.25 21.949 11.25 21.75H9.75C9.75 22.3466 9.98696 22.919 10.409 23.341L11.4696 22.2804ZM11.25 21.75C11.25 21.551 11.329 21.3602 11.4696 21.2196L10.409 20.159C9.98696 20.581 9.75 21.1534 9.75 21.75H11.25ZM11.4696 21.2196C11.6102 21.079 11.801 21 12 21V19.5C11.4034 19.5 10.831 19.737 10.409 20.159L11.4696 21.2196ZM12 21H13.5V19.5H12V21ZM13.5 21C13.699 21 13.8898 21.079 14.0304 21.2196L15.091 20.159C14.669 19.737 14.0966 19.5 13.5 19.5V21ZM14.0304 21.2196C14.171 21.3602 14.25 21.551 14.25 21.75H15.75C15.75 21.1534 15.513 20.581 15.091 20.159L14.0304 21.2196ZM14.25 21.75C14.25 21.949 14.171 22.1398 14.0304 22.2804L15.091 23.341C15.513 22.919 15.75 22.3466 15.75 21.75H14.25ZM14.0304 22.2804C13.8898 22.421 13.699 22.5 13.5 22.5V24C14.0966 24 14.669 23.763 15.091 23.341L14.0304 22.2804ZM9.75 8.25019C9.75008 7.8377 9.86354 7.43318 10.078 7.08083L8.79665 6.30098C8.43923 6.88824 8.25014 7.56244 8.25 8.24989L9.75 8.25019ZM10.078 7.08083C10.2924 6.72848 10.5996 6.44187 10.966 6.2523L10.2766 4.92008C9.666 5.23603 9.15406 5.71374 8.79665 6.30098L10.078 7.08083ZM10.966 6.25228C11.3323 6.06274 11.7437 5.97752 12.1552 6.00597L12.2586 4.50955C11.5729 4.46212 10.8871 4.60414 10.2766 4.9201L10.966 6.25228ZM12.1552 6.00597C12.5667 6.03442 12.9625 6.17545 13.2992 6.41361L14.1654 5.18897C13.6041 4.79199 12.9445 4.55696 12.2586 4.50955L12.1552 6.00597ZM13.2992 6.41361C13.636 6.6518 13.9008 6.97796 14.0646 7.35641L15.4412 6.76045C15.168 6.12954 14.7266 5.58592 14.1654 5.18897L13.2992 6.41361ZM14.0647 7.35653C14.2286 7.73499 14.2853 8.15125 14.2286 8.55981L15.7144 8.76601C15.8089 8.08507 15.7144 7.39123 15.4411 6.76033L14.0647 7.35653ZM14.2286 8.55981C14.1719 8.96846 14.004 9.35359 13.7433 9.67316L14.9055 10.6214C15.3402 10.0887 15.6199 9.44686 15.7144 8.76601L14.2286 8.55981ZM13.7433 9.67313C13.4826 9.99267 13.1389 10.2344 12.75 10.3719L13.25 11.7861C13.8981 11.557 14.4708 11.1541 14.9055 10.6215L13.7433 9.67313ZM12.7499 10.3719C12.3112 10.5271 11.9312 10.8145 11.6625 11.1946L12.8875 12.0604C12.977 11.9337 13.1036 11.8379 13.2501 11.7861L12.7499 10.3719ZM11.6625 11.1947C11.3939 11.5749 11.2497 12.0289 11.25 12.4945L12.75 12.4935C12.7499 12.3385 12.7979 12.1871 12.8875 12.0603L11.6625 11.1947ZM11.25 12.494V12.75H12.75V12.494H11.25ZM12 15.75C12.2071 15.75 12.375 15.9179 12.375 16.125H10.875C10.875 16.7463 11.3787 17.25 12 17.25V15.75ZM12.375 16.125C12.375 16.3321 12.2071 16.5 12 16.5V15C11.3787 15 10.875 15.5037 10.875 16.125H12.375ZM12 17.25C12.6213 17.25 13.125 16.7463 13.125 16.125H11.625C11.625 15.9179 11.7929 15.75 12 15.75V17.25ZM13.125 16.125C13.125 15.5037 12.6213 15 12 15V16.5C11.7929 16.5 11.625 16.3321 11.625 16.125H13.125Z" fill="white"/>
</svg>
