<?xml version="1.0" encoding="utf-8"?>
<!-- Generator: Adobe Illustrator 19.1.0, SVG Export Plug-In . SVG Version: 6.00 Build 0)  -->
<svg version="1.1" id="Layer_1" xmlns="http://www.w3.org/2000/svg" xmlns:xlink="http://www.w3.org/1999/xlink" x="0px" y="0px"
	 viewBox="765.7 -245.1 450.3 453.1" style="enable-background:new 765.7 -245.1 450.3 453.1;" xml:space="preserve">
<path style="fill:none;stroke:#282D3A;stroke-width:27.018;stroke-miterlimit:10;" d="M1205,10.8c-36.6,14-74.4,36.8-114.9,77.2
	 M1849.4-633.3c-36.6,14-74.4,36.8-114.9,77.2 M1219.4-29.6c-49.6,11.7-100.8,33.9-156.9,90 M1863.8-673.6
	c-49.6,11.7-100.7,33.9-156.9,90 M1226.2-62.2c-60,10.1-121.2,27.9-189.8,96.5 M1870.6-706.3c-60,10.1-121.2,27.9-189.8,96.5
	 M1228.3-96.1c-70.2,10.2-140.4,20.9-220.8,101.3 M1872.7-740.1c-70.2,10.3-140.4,20.9-220.9,101.3 M1554.7-420.2
	c-71,10.4-141.9,20.3-223.3,101.6c-161.8,161.7-41.4,282.2-203.1,443.9 M907.6,226.5c-71,10.4-141.9,20.3-223.3,101.6
	C522.5,489.8,642.9,610.3,481.2,772 M2199.1-1064.3c-71,10.4-141.9,20.3-223.3,101.6C1814-801,1934.4-680.5,1772.7-518.8
	 M1549.8-386c-59.9,10.1-121,28-189.4,96.4C1198.6-127.9,1319-7.4,1157.3,154.3 M902.8,260.7c-59.9,10.1-121,28-189.4,96.4
	C551.6,518.8,672,639.3,510.3,801 M2194.2-1030c-59.9,10.1-121,28-189.4,96.4c-161.8,161.7-41.4,282.2-203.1,443.9 M1539.8-352.5
	c-48.5,12-98.5,34.4-153.2,89.1c-161.9,161.7-41.4,282.1-203.2,443.8 M892.7,294.2c-48.5,12-98.5,34.4-153.2,89.1
	C577.7,545,698.1,665.5,536.4,827.2 M2184.2-996.6c-48.5,12-98.5,34.4-153.2,89.1c-161.9,161.7-41.4,282.2-203.2,443.9
	 M1530.6-313.7c-37.1,13.9-75.5,36.8-116.5,77.8C1252.3-74.2,1372.7,46.3,1211,208 M883.5,333.1C846.4,347,808,369.9,767,410.9
	c-161.8,161.7-41.4,282.2-203.1,443.9 M2175-957.7c-37.1,13.9-75.5,36.8-116.5,77.8c-161.8,161.7-41.4,282.2-203.1,443.9
	 M1775.4-521.5c-40.7,40.6-78.7,63.5-115.5,77.4 M1128.3,125.2c-40.7,40.7-78.7,63.5-115.5,77.4 M1804.4-492.5
	c-53.7,53.7-102.8,76.2-150.4,88.4 M1157.3,154.3c-53.7,53.7-102.8,76.2-150.4,88.4 M1830.5-466.3c-67.2,67.2-127.3,85.6-186.1,95.9
	 M1183.4,180.4c-67.2,67.2-127.3,85.6-186.1,95.9 M1858-438.7c-79.7,79.6-149.3,90.8-218.8,101 M1211,208
	c-79.7,79.6-149.3,90.8-218.8,101 M1451.4-197.7c-40,39.9-77.4,62.7-113.6,76.7 M804.3,449c-40,39.9-77.4,62.7-113.6,76.7
	 M2095.8-841.7c-40,39.9-77.4,62.7-113.6,76.7 M1480.4-168.6c-55,55-105.2,77.3-153.9,89.2 M833.3,478.1
	c-55,55-105.2,77.3-153.9,89.2 M2124.8-812.7c-55,55-105.2,77.3-153.9,89.2 M1506.5-142.5c-67.7,67.6-128.1,85.9-187.4,96.1
	 M859.4,504.2c-67.7,67.6-128.1,85.9-187.4,96.1 M2150.9-786.6c-67.7,67.6-128.1,85.9-187.4,96.1 M1534.1-114.9
	c-80.9,80.8-151.4,91.1-222,101.4 M887,531.8c-80.9,80.8-151.4,91.1-222,101.4 M2178.4-759c-80.9,80.8-151.4,91.1-222,101.4
	 M1655-642c-161.8,161.7-42.4,283.2-204.1,444.9 M1007.9,4.7c-161.7,161.7-41.3,282.2-203.1,443.9 M1684-613
	c-161.8,161.7-42.4,283.2-204.1,444.9 M1036.9,33.7c-161.7,161.7-41.3,282.2-203.1,443.9 M1710.1-586.9
	C1546.8-423.7,1666.2-302.2,1506-142 M1063.1,59.9C901.3,221.5,1021.7,342,859.9,503.7 M1737.7-559.3
	c-161.8,161.7-42.4,283.2-204.1,444.9 M1090.6,87.4c-161.8,161.7-41.4,282.2-203.1,443.9 M1241.9,375.5
	c-36.6,14-74.4,36.8-114.9,77.2 M1886.3-268.6c-36.6,14-74.4,36.8-114.9,77.2 M1256.3,335.1c-49.6,11.7-100.7,33.9-156.9,90
	 M1900.7-308.9c-49.6,11.7-100.7,33.9-156.9,89.9 M1263.1,302.4c-60,10.1-121.2,27.9-189.8,96.5 M1907.5-341.6
	c-60,10.1-121.2,27.9-189.8,96.5 M1265.2,268.6c-70.2,10.2-140.4,20.9-220.8,101.3 M1909.6-375.4c-70.2,10.2-140.4,20.9-220.8,101.3
	 M1591.7-55.6c-71,10.4-141.9,20.3-223.3,101.6c-161.8,161.7-41.4,282.2-203.1,443.9 M2236-699.6c-71,10.4-141.9,20.3-223.3,101.6
	c-161.8,161.7-41.4,282.2-203.1,443.9 M1586.8-21.3c-59.9,10.1-121,28-189.4,96.4C1235.6,236.8,1356,357.3,1194.3,519 M2231.2-665.4
	c-59.9,10.1-121,28-189.4,96.4c-161.8,161.7-41.4,282.2-203.1,443.9 M1576.7,12.2c-48.5,12-98.5,34.4-153.2,89.1
	c-161.8,161.7-41.4,282.2-203.1,443.9 M2221.1-631.9c-48.5,12-98.5,34.4-153.2,89.1c-161.8,161.7-41.4,282.2-203.1,443.9 M1567.6,51
	c-37.1,13.9-75.5,36.8-116.5,77.8C1289.3,290.5,1409.7,411,1248,572.7 M2211.9-593c-37.1,13.9-75.5,36.8-116.5,77.8
	C1933.6-353.5,2054-233,1892.3-71.3 M1812.3-156.8c-40.7,40.6-78.7,63.5-115.5,77.4 M1165.2,489.9c-40.7,40.6-78.7,63.5-115.5,77.4
	 M1841.3-127.8c-53.7,53.7-102.8,76.2-150.4,88.4 M1194.3,518.9c-53.7,53.7-102.8,76.2-150.4,88.4 M1867.4-101.7
	c-67.2,67.2-127.3,85.6-186.1,95.9 M1220.4,545.1c-67.2,67.2-127.3,85.6-186.1,95.9 M1488.3,167c-40,39.9-77.4,62.7-113.6,76.7
	 M841.3,813.7c-40,39.9-77.4,62.7-113.6,76.7 M2132.7-477c-40,39.9-77.4,62.7-113.6,76.7 M1517.3,196c-55,55-105.2,77.3-153.9,89.2
	 M870.3,842.7c-55,55-105.2,77.3-153.9,89.2 M2161.7-448c-55,55-105.2,77.3-153.9,89.2 M1543.4,222.2
	c-67.7,67.6-128.1,85.9-187.4,96.1 M896.4,868.9C828.7,936.5,768.3,954.8,709,965 M2187.8-421.9c-67.7,67.6-128.1,85.9-187.4,96.1
	 M1691.9-277.3c-161.8,161.7-42.4,283.2-204.1,444.9 M1044.9,369.4c-161.8,161.7-41.4,282.2-203.1,443.9 M2336.3-921.4
	c-161.8,161.7-41.4,282.2-203.1,443.9 M1721-248.3c-161.8,161.7-42.4,283.2-204.1,444.9 M1073.9,398.4
	c-161.8,161.7-41.4,282.2-203.1,443.9 M2365.3-892.4c-161.8,161.7-41.4,282.2-203.1,443.9 M1747.1-222.2
	C1585.3-60.5,1703.7,62,1542,223.7 M1100,424.5c-161.8,161.7-41.4,282.2-203.1,443.9 M2391.5-866.2
	c-161.8,161.7-41.4,282.2-203.1,443.9 M1774.6-194.6c-161.8,161.7-42.4,283.2-204.1,444.9 M1127.6,452.1
	C965.8,613.8,1086.2,734.3,924.5,896 M2419-838.7c-161.8,161.7-41.4,282.2-203.1,443.9 M1895-74.1c-79.7,79.6-149.3,90.8-218.8,101
	 M1247.9,572.6c-79.7,79.6-149.3,90.8-218.8,101 M1571,249.7c-80.9,80.8-151.4,91.1-222,101.4 M923.9,896.5
	c-80.9,80.8-151.4,91.1-222,101.4 M2215.4-394.3c-80.9,80.8-151.4,91.1-222,101.4"/>
</svg>
