<?xml version="1.0" encoding="utf-8"?>
<!-- Generator: Adobe Illustrator 19.1.0, SVG Export Plug-In . SVG Version: 6.00 Build 0)  -->
<svg version="1.1" id="Layer_1" xmlns="http://www.w3.org/2000/svg" xmlns:xlink="http://www.w3.org/1999/xlink" x="0px" y="0px"
	 viewBox="38 15.7 687.3 762.3" style="enable-background:new 38 15.7 687.3 762.3;" xml:space="preserve">
<g>
	<g>
		<g style="opacity:0.7;">
			<g>
				<g>
					<defs>
						<rect id="SVGID_1_" x="5" y="14.7" width="745.3" height="782.3"/>
					</defs>
					<clipPath id="SVGID_2_">
						<use xlink:href="#SVGID_1_"  style="overflow:visible;"/>
					</clipPath>
					<polygon style="clip-path:url(#SVGID_2_);fill:none;stroke:#282D3A;stroke-width:5;stroke-miterlimit:10;" points="
						441.8,414.5 441.8,414.5 363.3,493 327.2,456.9 405.7,378.4 					"/>
				</g>
				<g>
					<defs>
						<rect id="SVGID_3_" x="5" y="14.7" width="745.3" height="782.3"/>
					</defs>
					<clipPath id="SVGID_4_">
						<use xlink:href="#SVGID_3_"  style="overflow:visible;"/>
					</clipPath>

						<line style="clip-path:url(#SVGID_4_);fill:none;stroke:#282D3A;stroke-width:5;stroke-miterlimit:10;" x1="423.6" y1="396.6" x2="345.1" y2="475.1"/>
				</g>
				<g>
					<defs>
						<rect id="SVGID_5_" x="5" y="14.7" width="745.3" height="782.3"/>
					</defs>
					<clipPath id="SVGID_6_">
						<use xlink:href="#SVGID_5_"  style="overflow:visible;"/>
					</clipPath>
					<polygon style="clip-path:url(#SVGID_6_);fill:none;stroke:#282D3A;stroke-width:5;stroke-miterlimit:10;" points="
						189.3,133.8 189.3,133.8 110.8,55.3 146.9,19.2 225.4,97.7 					"/>
				</g>
				<g>
					<defs>
						<rect id="SVGID_7_" x="5" y="14.7" width="745.3" height="782.3"/>
					</defs>
					<clipPath id="SVGID_8_">
						<use xlink:href="#SVGID_7_"  style="overflow:visible;"/>
					</clipPath>

						<line style="clip-path:url(#SVGID_8_);fill:none;stroke:#282D3A;stroke-width:5;stroke-miterlimit:10;" x1="202.3" y1="120.6" x2="123.8" y2="42.1"/>
				</g>
				<g>
					<defs>
						<rect id="SVGID_9_" x="5" y="14.7" width="745.3" height="782.3"/>
					</defs>
					<clipPath id="SVGID_10_">
						<use xlink:href="#SVGID_9_"  style="overflow:visible;"/>
					</clipPath>

						<line style="clip-path:url(#SVGID_10_);fill:none;stroke:#282D3A;stroke-width:5;stroke-miterlimit:10;" x1="214" y1="108.9" x2="135.5" y2="30.4"/>
				</g>
				<g>
					<defs>
						<rect id="SVGID_11_" x="5" y="14.7" width="745.3" height="782.3"/>
					</defs>
					<clipPath id="SVGID_12_">
						<use xlink:href="#SVGID_11_"  style="overflow:visible;"/>
					</clipPath>
					<polygon style="clip-path:url(#SVGID_12_);fill:none;stroke:#282D3A;stroke-width:5;stroke-miterlimit:10;" points="
						156.1,128.8 156.1,128.8 77.6,207.3 41.5,171.3 120,92.8 					"/>
				</g>
				<g>
					<defs>
						<rect id="SVGID_13_" x="5" y="14.7" width="745.3" height="782.3"/>
					</defs>
					<clipPath id="SVGID_14_">
						<use xlink:href="#SVGID_13_"  style="overflow:visible;"/>
					</clipPath>

						<line style="clip-path:url(#SVGID_14_);fill:none;stroke:#282D3A;stroke-width:5;stroke-miterlimit:10;" x1="137.9" y1="110.9" x2="59.4" y2="189.4"/>
				</g>
				<g>
					<defs>
						<rect id="SVGID_15_" x="5" y="14.7" width="745.3" height="782.3"/>
					</defs>
					<clipPath id="SVGID_16_">
						<use xlink:href="#SVGID_15_"  style="overflow:visible;"/>
					</clipPath>
					<polygon style="clip-path:url(#SVGID_16_);fill:none;stroke:#282D3A;stroke-width:5;stroke-miterlimit:10;" points="
						193.3,276.4 193.3,276.4 114.9,197.9 150.9,161.9 229.4,240.3 					"/>
				</g>
				<g>
					<defs>
						<rect id="SVGID_17_" x="5" y="14.7" width="745.3" height="782.3"/>
					</defs>
					<clipPath id="SVGID_18_">
						<use xlink:href="#SVGID_17_"  style="overflow:visible;"/>
					</clipPath>

						<line style="clip-path:url(#SVGID_18_);fill:none;stroke:#282D3A;stroke-width:5;stroke-miterlimit:10;" x1="206.3" y1="263.2" x2="127.8" y2="184.7"/>
				</g>
				<g>
					<defs>
						<rect id="SVGID_19_" x="5" y="14.7" width="745.3" height="782.3"/>
					</defs>
					<clipPath id="SVGID_20_">
						<use xlink:href="#SVGID_19_"  style="overflow:visible;"/>
					</clipPath>

						<line style="clip-path:url(#SVGID_20_);fill:none;stroke:#282D3A;stroke-width:5;stroke-miterlimit:10;" x1="218" y1="251.5" x2="139.5" y2="173.1"/>
				</g>
				<g>
					<defs>
						<rect id="SVGID_21_" x="5" y="14.7" width="745.3" height="782.3"/>
					</defs>
					<clipPath id="SVGID_22_">
						<use xlink:href="#SVGID_21_"  style="overflow:visible;"/>
					</clipPath>
					<polygon style="clip-path:url(#SVGID_22_);fill:none;stroke:#282D3A;stroke-width:5;stroke-miterlimit:10;" points="
						298.7,124.4 298.7,124.4 220.2,202.9 184.2,166.8 262.6,88.3 					"/>
				</g>
				<g>
					<defs>
						<rect id="SVGID_23_" x="5" y="14.7" width="745.3" height="782.3"/>
					</defs>
					<clipPath id="SVGID_24_">
						<use xlink:href="#SVGID_23_"  style="overflow:visible;"/>
					</clipPath>

						<line style="clip-path:url(#SVGID_24_);fill:none;stroke:#282D3A;stroke-width:5;stroke-miterlimit:10;" x1="280.6" y1="106.5" x2="202.1" y2="185"/>
				</g>
				<g>
					<defs>
						<rect id="SVGID_25_" x="5" y="14.7" width="745.3" height="782.3"/>
					</defs>
					<clipPath id="SVGID_26_">
						<use xlink:href="#SVGID_25_"  style="overflow:visible;"/>
					</clipPath>
					<polygon style="clip-path:url(#SVGID_26_);fill:none;stroke:#282D3A;stroke-width:5;stroke-miterlimit:10;" points="
						332.4,276.9 332.4,276.9 253.9,198.4 290,162.3 368.5,240.8 					"/>
				</g>
				<g>
					<defs>
						<rect id="SVGID_27_" x="5" y="14.7" width="745.3" height="782.3"/>
					</defs>
					<clipPath id="SVGID_28_">
						<use xlink:href="#SVGID_27_"  style="overflow:visible;"/>
					</clipPath>

						<line style="clip-path:url(#SVGID_28_);fill:none;stroke:#282D3A;stroke-width:5;stroke-miterlimit:10;" x1="345.4" y1="263.7" x2="266.9" y2="185.2"/>
				</g>
				<g>
					<defs>
						<rect id="SVGID_29_" x="5" y="14.7" width="745.3" height="782.3"/>
					</defs>
					<clipPath id="SVGID_30_">
						<use xlink:href="#SVGID_29_"  style="overflow:visible;"/>
					</clipPath>

						<line style="clip-path:url(#SVGID_30_);fill:none;stroke:#282D3A;stroke-width:5;stroke-miterlimit:10;" x1="357" y1="252" x2="278.5" y2="173.5"/>
				</g>
				<g>
					<defs>
						<rect id="SVGID_31_" x="5" y="14.7" width="745.3" height="782.3"/>
					</defs>
					<clipPath id="SVGID_32_">
						<use xlink:href="#SVGID_31_"  style="overflow:visible;"/>
					</clipPath>
					<polygon style="clip-path:url(#SVGID_32_);fill:none;stroke:#282D3A;stroke-width:5;stroke-miterlimit:10;" points="
						299.2,271.9 299.2,271.9 220.7,350.4 184.6,314.3 263.1,235.8 					"/>
				</g>
				<g>
					<defs>
						<rect id="SVGID_33_" x="5" y="14.7" width="745.3" height="782.3"/>
					</defs>
					<clipPath id="SVGID_34_">
						<use xlink:href="#SVGID_33_"  style="overflow:visible;"/>
					</clipPath>

						<line style="clip-path:url(#SVGID_34_);fill:none;stroke:#282D3A;stroke-width:5;stroke-miterlimit:10;" x1="281" y1="254" x2="202.5" y2="332.5"/>
				</g>
				<g>
					<defs>
						<rect id="SVGID_35_" x="5" y="14.7" width="745.3" height="782.3"/>
					</defs>
					<clipPath id="SVGID_36_">
						<use xlink:href="#SVGID_35_"  style="overflow:visible;"/>
					</clipPath>
					<polygon style="clip-path:url(#SVGID_36_);fill:none;stroke:#282D3A;stroke-width:5;stroke-miterlimit:10;" points="
						336.4,419.5 336.4,419.5 257.9,341 294,304.9 372.5,383.4 					"/>
				</g>
				<g>
					<defs>
						<rect id="SVGID_37_" x="5" y="14.7" width="745.3" height="782.3"/>
					</defs>
					<clipPath id="SVGID_38_">
						<use xlink:href="#SVGID_37_"  style="overflow:visible;"/>
					</clipPath>

						<line style="clip-path:url(#SVGID_38_);fill:none;stroke:#282D3A;stroke-width:5;stroke-miterlimit:10;" x1="349.4" y1="406.3" x2="270.9" y2="327.8"/>
				</g>
				<g>
					<defs>
						<rect id="SVGID_39_" x="5" y="14.7" width="745.3" height="782.3"/>
					</defs>
					<clipPath id="SVGID_40_">
						<use xlink:href="#SVGID_39_"  style="overflow:visible;"/>
					</clipPath>

						<line style="clip-path:url(#SVGID_40_);fill:none;stroke:#282D3A;stroke-width:5;stroke-miterlimit:10;" x1="361.1" y1="394.6" x2="282.6" y2="316.1"/>
				</g>
				<g>
					<defs>
						<rect id="SVGID_41_" x="5" y="14.7" width="745.3" height="782.3"/>
					</defs>
					<clipPath id="SVGID_42_">
						<use xlink:href="#SVGID_41_"  style="overflow:visible;"/>
					</clipPath>
					<polygon style="clip-path:url(#SVGID_42_);fill:none;stroke:#282D3A;stroke-width:5;stroke-miterlimit:10;" points="
						441.8,267.5 441.8,267.5 363.3,345.9 327.2,309.9 405.7,231.4 					"/>
				</g>
				<g>
					<defs>
						<rect id="SVGID_43_" x="5" y="14.7" width="745.3" height="782.3"/>
					</defs>
					<clipPath id="SVGID_44_">
						<use xlink:href="#SVGID_43_"  style="overflow:visible;"/>
					</clipPath>

						<line style="clip-path:url(#SVGID_44_);fill:none;stroke:#282D3A;stroke-width:5;stroke-miterlimit:10;" x1="423.6" y1="249.5" x2="345.1" y2="328"/>
				</g>
				<g>
					<defs>
						<rect id="SVGID_45_" x="5" y="14.7" width="745.3" height="782.3"/>
					</defs>
					<clipPath id="SVGID_46_">
						<use xlink:href="#SVGID_45_"  style="overflow:visible;"/>
					</clipPath>
					<polygon style="clip-path:url(#SVGID_46_);fill:none;stroke:#282D3A;stroke-width:5;stroke-miterlimit:10;" points="
						332.2,562.3 332.2,562.3 253.7,483.8 289.7,447.7 368.2,526.2 					"/>
				</g>
				<g>
					<defs>
						<rect id="SVGID_47_" x="5" y="14.7" width="745.3" height="782.3"/>
					</defs>
					<clipPath id="SVGID_48_">
						<use xlink:href="#SVGID_47_"  style="overflow:visible;"/>
					</clipPath>

						<line style="clip-path:url(#SVGID_48_);fill:none;stroke:#282D3A;stroke-width:5;stroke-miterlimit:10;" x1="345.1" y1="549.1" x2="266.6" y2="470.6"/>
				</g>
				<g>
					<defs>
						<rect id="SVGID_49_" x="5" y="14.7" width="745.3" height="782.3"/>
					</defs>
					<clipPath id="SVGID_50_">
						<use xlink:href="#SVGID_49_"  style="overflow:visible;"/>
					</clipPath>

						<line style="clip-path:url(#SVGID_50_);fill:none;stroke:#282D3A;stroke-width:5;stroke-miterlimit:10;" x1="356.8" y1="537.4" x2="278.3" y2="458.9"/>
				</g>
				<g>
					<defs>
						<rect id="SVGID_51_" x="5" y="14.7" width="745.3" height="782.3"/>
					</defs>
					<clipPath id="SVGID_52_">
						<use xlink:href="#SVGID_51_"  style="overflow:visible;"/>
					</clipPath>
					<polygon style="clip-path:url(#SVGID_52_);fill:none;stroke:#282D3A;stroke-width:5;stroke-miterlimit:10;" points="
						298.9,557.3 298.9,557.3 220.4,635.8 184.4,599.8 262.9,521.3 					"/>
				</g>
				<g>
					<defs>
						<rect id="SVGID_53_" x="5" y="14.7" width="745.3" height="782.3"/>
					</defs>
					<clipPath id="SVGID_54_">
						<use xlink:href="#SVGID_53_"  style="overflow:visible;"/>
					</clipPath>

						<line style="clip-path:url(#SVGID_54_);fill:none;stroke:#282D3A;stroke-width:5;stroke-miterlimit:10;" x1="280.8" y1="539.4" x2="202.3" y2="617.9"/>
				</g>
				<g>
					<defs>
						<rect id="SVGID_55_" x="5" y="14.7" width="745.3" height="782.3"/>
					</defs>
					<clipPath id="SVGID_56_">
						<use xlink:href="#SVGID_55_"  style="overflow:visible;"/>
					</clipPath>
					<polygon style="clip-path:url(#SVGID_56_);fill:none;stroke:#282D3A;stroke-width:5;stroke-miterlimit:10;" points="
						336.2,704.9 336.2,704.9 257.7,626.4 293.8,590.4 372.2,668.9 					"/>
				</g>
				<g>
					<defs>
						<rect id="SVGID_57_" x="5" y="14.7" width="745.3" height="782.3"/>
					</defs>
					<clipPath id="SVGID_58_">
						<use xlink:href="#SVGID_57_"  style="overflow:visible;"/>
					</clipPath>

						<line style="clip-path:url(#SVGID_58_);fill:none;stroke:#282D3A;stroke-width:5;stroke-miterlimit:10;" x1="349.1" y1="691.7" x2="270.7" y2="613.2"/>
				</g>
				<g>
					<defs>
						<rect id="SVGID_59_" x="5" y="14.7" width="745.3" height="782.3"/>
					</defs>
					<clipPath id="SVGID_60_">
						<use xlink:href="#SVGID_59_"  style="overflow:visible;"/>
					</clipPath>

						<line style="clip-path:url(#SVGID_60_);fill:none;stroke:#282D3A;stroke-width:5;stroke-miterlimit:10;" x1="360.8" y1="680" x2="282.3" y2="601.6"/>
				</g>
				<g>
					<defs>
						<rect id="SVGID_61_" x="5" y="14.7" width="745.3" height="782.3"/>
					</defs>
					<clipPath id="SVGID_62_">
						<use xlink:href="#SVGID_61_"  style="overflow:visible;"/>
					</clipPath>
					<polygon style="clip-path:url(#SVGID_62_);fill:none;stroke:#282D3A;stroke-width:5;stroke-miterlimit:10;" points="
						441.5,552.9 441.5,552.9 363.1,631.4 327,595.3 405.5,516.8 					"/>
				</g>
				<g>
					<defs>
						<rect id="SVGID_63_" x="5" y="14.7" width="745.3" height="782.3"/>
					</defs>
					<clipPath id="SVGID_64_">
						<use xlink:href="#SVGID_63_"  style="overflow:visible;"/>
					</clipPath>

						<line style="clip-path:url(#SVGID_64_);fill:none;stroke:#282D3A;stroke-width:5;stroke-miterlimit:10;" x1="423.4" y1="535" x2="344.9" y2="613.5"/>
				</g>
				<g>
					<defs>
						<rect id="SVGID_65_" x="5" y="14.7" width="745.3" height="782.3"/>
					</defs>
					<clipPath id="SVGID_66_">
						<use xlink:href="#SVGID_65_"  style="overflow:visible;"/>
					</clipPath>
					<polygon style="clip-path:url(#SVGID_66_);fill:none;stroke:#282D3A;stroke-width:5;stroke-miterlimit:10;" points="
						580.8,553.3 580.8,553.3 502.3,631.8 466.3,595.8 544.8,517.3 					"/>
				</g>
				<g>
					<defs>
						<rect id="SVGID_67_" x="5" y="14.7" width="745.3" height="782.3"/>
					</defs>
					<clipPath id="SVGID_68_">
						<use xlink:href="#SVGID_67_"  style="overflow:visible;"/>
					</clipPath>

						<line style="clip-path:url(#SVGID_68_);fill:none;stroke:#282D3A;stroke-width:5;stroke-miterlimit:10;" x1="562.7" y1="535.4" x2="484.2" y2="613.9"/>
				</g>
				<g>
					<defs>
						<rect id="SVGID_69_" x="5" y="14.7" width="745.3" height="782.3"/>
					</defs>
					<clipPath id="SVGID_70_">
						<use xlink:href="#SVGID_69_"  style="overflow:visible;"/>
					</clipPath>
					<polygon style="clip-path:url(#SVGID_70_);fill:none;stroke:#282D3A;stroke-width:5;stroke-miterlimit:10;" points="
						618.1,700.9 618.1,700.9 539.6,622.4 575.7,586.4 654.2,664.9 					"/>
				</g>
				<g>
					<defs>
						<rect id="SVGID_71_" x="5" y="14.7" width="745.3" height="782.3"/>
					</defs>
					<clipPath id="SVGID_72_">
						<use xlink:href="#SVGID_71_"  style="overflow:visible;"/>
					</clipPath>

						<line style="clip-path:url(#SVGID_72_);fill:none;stroke:#282D3A;stroke-width:5;stroke-miterlimit:10;" x1="631.1" y1="687.7" x2="552.6" y2="609.2"/>
				</g>
				<g>
					<defs>
						<rect id="SVGID_73_" x="5" y="14.7" width="745.3" height="782.3"/>
					</defs>
					<clipPath id="SVGID_74_">
						<use xlink:href="#SVGID_73_"  style="overflow:visible;"/>
					</clipPath>

						<line style="clip-path:url(#SVGID_74_);fill:none;stroke:#282D3A;stroke-width:5;stroke-miterlimit:10;" x1="642.7" y1="676" x2="564.2" y2="597.6"/>
				</g>
				<g>
					<defs>
						<rect id="SVGID_75_" x="5" y="14.7" width="745.3" height="782.3"/>
					</defs>
					<clipPath id="SVGID_76_">
						<use xlink:href="#SVGID_75_"  style="overflow:visible;"/>
					</clipPath>
					<polygon style="clip-path:url(#SVGID_76_);fill:none;stroke:#282D3A;stroke-width:5;stroke-miterlimit:10;" points="
						721.8,693.6 721.8,693.6 643.3,772.1 607.2,736.1 685.7,657.6 					"/>
				</g>
				<g>
					<defs>
						<rect id="SVGID_77_" x="5" y="14.7" width="745.3" height="782.3"/>
					</defs>
					<clipPath id="SVGID_78_">
						<use xlink:href="#SVGID_77_"  style="overflow:visible;"/>
					</clipPath>

						<line style="clip-path:url(#SVGID_78_);fill:none;stroke:#282D3A;stroke-width:5;stroke-miterlimit:10;" x1="703.6" y1="675.7" x2="625.2" y2="754.2"/>
				</g>
				<g>
					<defs>
						<rect id="SVGID_79_" x="5" y="14.7" width="745.3" height="782.3"/>
					</defs>
					<clipPath id="SVGID_80_">
						<use xlink:href="#SVGID_79_"  style="overflow:visible;"/>
					</clipPath>
					<polygon style="clip-path:url(#SVGID_80_);fill:none;stroke:#282D3A;stroke-width:5;stroke-miterlimit:10;" points="
						299.2,693.6 299.2,693.6 220.7,772.1 184.6,736.1 263.1,657.6 					"/>
				</g>
				<g>
					<defs>
						<rect id="SVGID_81_" x="5" y="14.7" width="745.3" height="782.3"/>
					</defs>
					<clipPath id="SVGID_82_">
						<use xlink:href="#SVGID_81_"  style="overflow:visible;"/>
					</clipPath>

						<line style="clip-path:url(#SVGID_82_);fill:none;stroke:#282D3A;stroke-width:5;stroke-miterlimit:10;" x1="281" y1="675.7" x2="202.5" y2="754.2"/>
				</g>
				<g>
					<defs>
						<rect id="SVGID_83_" x="5" y="14.7" width="745.3" height="782.3"/>
					</defs>
					<clipPath id="SVGID_84_">
						<use xlink:href="#SVGID_83_"  style="overflow:visible;"/>
					</clipPath>
					<polygon style="clip-path:url(#SVGID_84_);fill:none;stroke:#282D3A;stroke-width:5;stroke-miterlimit:10;" points="
						475.2,705.4 475.2,705.4 396.7,626.9 432.8,590.8 511.3,669.3 					"/>
				</g>
				<g>
					<defs>
						<rect id="SVGID_85_" x="5" y="14.7" width="745.3" height="782.3"/>
					</defs>
					<clipPath id="SVGID_86_">
						<use xlink:href="#SVGID_85_"  style="overflow:visible;"/>
					</clipPath>

						<line style="clip-path:url(#SVGID_86_);fill:none;stroke:#282D3A;stroke-width:5;stroke-miterlimit:10;" x1="488.2" y1="692.2" x2="409.7" y2="613.7"/>
				</g>
				<g>
					<defs>
						<rect id="SVGID_87_" x="5" y="14.7" width="745.3" height="782.3"/>
					</defs>
					<clipPath id="SVGID_88_">
						<use xlink:href="#SVGID_87_"  style="overflow:visible;"/>
					</clipPath>

						<line style="clip-path:url(#SVGID_88_);fill:none;stroke:#282D3A;stroke-width:5;stroke-miterlimit:10;" x1="499.9" y1="680.5" x2="421.4" y2="602"/>
				</g>
				<g>
					<defs>
						<rect id="SVGID_89_" x="5" y="14.7" width="745.3" height="782.3"/>
					</defs>
					<clipPath id="SVGID_90_">
						<use xlink:href="#SVGID_89_"  style="overflow:visible;"/>
					</clipPath>
					<polygon style="clip-path:url(#SVGID_90_);fill:none;stroke:#282D3A;stroke-width:5;stroke-miterlimit:10;" points="442,696
						442,696 363.5,774.4 327.4,738.4 405.9,659.9 					"/>
				</g>
				<g>
					<defs>
						<rect id="SVGID_91_" x="5" y="14.7" width="745.3" height="782.3"/>
					</defs>
					<clipPath id="SVGID_92_">
						<use xlink:href="#SVGID_91_"  style="overflow:visible;"/>
					</clipPath>

						<line style="clip-path:url(#SVGID_92_);fill:none;stroke:#282D3A;stroke-width:5;stroke-miterlimit:10;" x1="423.8" y1="678" x2="345.4" y2="756.5"/>
				</g>
				<g>
					<defs>
						<rect id="SVGID_93_" x="5" y="14.7" width="745.3" height="782.3"/>
					</defs>
					<clipPath id="SVGID_94_">
						<use xlink:href="#SVGID_93_"  style="overflow:visible;"/>
					</clipPath>
					<polygon style="clip-path:url(#SVGID_94_);fill:none;stroke:#282D3A;stroke-width:5;stroke-miterlimit:10;" points="584.6,696
						584.6,696 506.1,774.4 470.1,738.4 548.6,659.9 					"/>
				</g>
				<g>
					<defs>
						<rect id="SVGID_95_" x="5" y="14.7" width="745.3" height="782.3"/>
					</defs>
					<clipPath id="SVGID_96_">
						<use xlink:href="#SVGID_95_"  style="overflow:visible;"/>
					</clipPath>

						<line style="clip-path:url(#SVGID_96_);fill:none;stroke:#282D3A;stroke-width:5;stroke-miterlimit:10;" x1="566.5" y1="678" x2="488" y2="756.5"/>
				</g>
				<g>
					<defs>
						<rect id="SVGID_97_" x="5" y="14.7" width="745.3" height="782.3"/>
					</defs>
					<clipPath id="SVGID_98_">
						<use xlink:href="#SVGID_97_"  style="overflow:visible;"/>
					</clipPath>
					<polygon style="clip-path:url(#SVGID_98_);fill:none;stroke:#282D3A;stroke-width:5;stroke-miterlimit:10;" points="
						189.6,419.7 189.6,419.7 111.1,341.2 147.1,305.1 225.6,383.6 					"/>
				</g>
				<g>
					<defs>
						<rect id="SVGID_99_" x="5" y="14.7" width="745.3" height="782.3"/>
					</defs>
					<clipPath id="SVGID_100_">
						<use xlink:href="#SVGID_99_"  style="overflow:visible;"/>
					</clipPath>

						<line style="clip-path:url(#SVGID_100_);fill:none;stroke:#282D3A;stroke-width:5;stroke-miterlimit:10;" x1="202.5" y1="406.5" x2="124" y2="328"/>
				</g>
				<g>
					<defs>
						<rect id="SVGID_101_" x="5" y="14.7" width="745.3" height="782.3"/>
					</defs>
					<clipPath id="SVGID_102_">
						<use xlink:href="#SVGID_101_"  style="overflow:visible;"/>
					</clipPath>

						<line style="clip-path:url(#SVGID_102_);fill:none;stroke:#282D3A;stroke-width:5;stroke-miterlimit:10;" x1="214.2" y1="394.8" x2="135.7" y2="316.3"/>
				</g>
				<g>
					<defs>
						<rect id="SVGID_103_" x="5" y="14.7" width="745.3" height="782.3"/>
					</defs>
					<clipPath id="SVGID_104_">
						<use xlink:href="#SVGID_103_"  style="overflow:visible;"/>
					</clipPath>
					<polygon style="clip-path:url(#SVGID_104_);fill:none;stroke:#282D3A;stroke-width:5;stroke-miterlimit:10;" points="
						156.3,414.7 156.3,414.7 77.8,493.2 41.8,457.2 120.3,378.7 					"/>
				</g>
				<g>
					<defs>
						<rect id="SVGID_105_" x="5" y="14.7" width="745.3" height="782.3"/>
					</defs>
					<clipPath id="SVGID_106_">
						<use xlink:href="#SVGID_105_"  style="overflow:visible;"/>
					</clipPath>

						<line style="clip-path:url(#SVGID_106_);fill:none;stroke:#282D3A;stroke-width:5;stroke-miterlimit:10;" x1="138.2" y1="396.8" x2="59.7" y2="475.3"/>
				</g>
				<g>
					<defs>
						<rect id="SVGID_107_" x="5" y="14.7" width="745.3" height="782.3"/>
					</defs>
					<clipPath id="SVGID_108_">
						<use xlink:href="#SVGID_107_"  style="overflow:visible;"/>
					</clipPath>
					<polygon style="clip-path:url(#SVGID_108_);fill:none;stroke:#282D3A;stroke-width:5;stroke-miterlimit:10;" points="
						193.6,562.3 193.6,562.3 115.1,483.8 151.2,447.8 229.6,526.3 					"/>
				</g>
				<g>
					<defs>
						<rect id="SVGID_109_" x="5" y="14.7" width="745.3" height="782.3"/>
					</defs>
					<clipPath id="SVGID_110_">
						<use xlink:href="#SVGID_109_"  style="overflow:visible;"/>
					</clipPath>

						<line style="clip-path:url(#SVGID_110_);fill:none;stroke:#282D3A;stroke-width:5;stroke-miterlimit:10;" x1="206.5" y1="549.1" x2="128.1" y2="470.6"/>
				</g>
				<g>
					<defs>
						<rect id="SVGID_111_" x="5" y="14.7" width="745.3" height="782.3"/>
					</defs>
					<clipPath id="SVGID_112_">
						<use xlink:href="#SVGID_111_"  style="overflow:visible;"/>
					</clipPath>

						<line style="clip-path:url(#SVGID_112_);fill:none;stroke:#282D3A;stroke-width:5;stroke-miterlimit:10;" x1="218.2" y1="537.4" x2="139.7" y2="459"/>
				</g>
				<g>
					<defs>
						<rect id="SVGID_113_" x="5" y="14.7" width="745.3" height="782.3"/>
					</defs>
					<clipPath id="SVGID_114_">
						<use xlink:href="#SVGID_113_"  style="overflow:visible;"/>
					</clipPath>
					<polygon style="clip-path:url(#SVGID_114_);fill:none;stroke:#282D3A;stroke-width:5;stroke-miterlimit:10;" points="
						298.9,410.3 298.9,410.3 220.5,488.8 184.4,452.7 262.9,374.2 					"/>
				</g>
				<g>
					<defs>
						<rect id="SVGID_115_" x="5" y="14.7" width="745.3" height="782.3"/>
					</defs>
					<clipPath id="SVGID_116_">
						<use xlink:href="#SVGID_115_"  style="overflow:visible;"/>
					</clipPath>

						<line style="clip-path:url(#SVGID_116_);fill:none;stroke:#282D3A;stroke-width:5;stroke-miterlimit:10;" x1="280.8" y1="392.4" x2="202.3" y2="470.9"/>
				</g>
			</g>
		</g>
	</g>
</g>
</svg>
