<?xml version="1.0" encoding="utf-8"?>
<!-- Generator: Adobe Illustrator 19.1.0, SVG Export Plug-In . SVG Version: 6.00 Build 0)  -->
<svg version="1.1" id="Layer_1" xmlns="http://www.w3.org/2000/svg" xmlns:xlink="http://www.w3.org/1999/xlink" x="0px" y="0px"
	 viewBox="-95 337.6 421 118.4" style="enable-background:new -95 337.6 421 118.4;" xml:space="preserve">
<g>
	<g>
		<defs>
			<rect id="SVGID_1_" x="-94" y="337.2" width="421" height="118.4"/>
		</defs>
		<clipPath id="SVGID_2_">
			<use xlink:href="#SVGID_1_"  style="overflow:visible;"/>
		</clipPath>
		<g style="clip-path:url(#SVGID_2_);">
			
				<rect x="-630.2" y="-108.5" transform="matrix(0.7071 -0.7071 0.7071 0.7071 -81.3267 -124.6636)" style="fill:none;stroke:#F8F8F8;stroke-width:9;" width="878.2" height="288.6"/>
			
				<rect x="-593.1" y="-108.4" transform="matrix(0.7071 -0.7071 0.7071 0.7071 -70.4636 -98.3715)" style="fill:none;stroke:#F8F8F8;stroke-width:9;" width="878.2" height="288.6"/>
			
				<rect x="-556" y="-108.4" transform="matrix(0.7071 -0.7071 0.7071 0.7071 -59.6004 -72.1625)" style="fill:none;stroke:#F8F8F8;stroke-width:9;" width="878.2" height="288.6"/>
			
				<rect x="-518.7" y="-108.5" transform="matrix(0.7071 -0.7071 0.7071 0.7071 -48.6665 -45.8168)" style="fill:none;stroke:#F8F8F8;stroke-width:9;" width="878.2" height="288.6"/>
			
				<rect x="-481.5" y="-108.4" transform="matrix(0.7071 -0.7071 0.7071 0.7071 -37.7741 -19.4537)" style="fill:none;stroke:#F8F8F8;stroke-width:9;" width="878.2" height="288.6"/>
			
				<rect x="-444.3" y="-108.4" transform="matrix(0.7071 -0.7071 0.7071 0.7071 -26.911 6.8381)" style="fill:none;stroke:#F8F8F8;stroke-width:9;" width="878.2" height="288.6"/>
			
				<rect x="-630.2" y="-108.4" transform="matrix(0.7071 0.7071 -0.7071 0.7071 -30.624 145.6367)" style="fill:none;stroke:#F8F8F8;stroke-width:9;" width="878.2" height="288.6"/>
			
				<rect x="-593" y="-108.4" transform="matrix(0.7071 0.7071 -0.7071 0.7071 -19.6904 119.3737)" style="fill:none;stroke:#F8F8F8;stroke-width:9;" width="878.2" height="288.6"/>
			
				<rect x="-555.8" y="-108.5" transform="matrix(0.7071 0.7071 -0.7071 0.7071 -8.8808 93.011)" style="fill:none;stroke:#F8F8F8;stroke-width:9;" width="878.2" height="288.6"/>
			
				<rect x="-518.6" y="-108.4" transform="matrix(0.7071 0.7071 -0.7071 0.7071 2.0652 66.719)" style="fill:none;stroke:#F8F8F8;stroke-width:9;" width="878.2" height="288.6"/>
			
				<rect x="-481.4" y="-108.5" transform="matrix(0.7071 0.7071 -0.7071 0.7071 12.9283 40.4267)" style="fill:none;stroke:#F8F8F8;stroke-width:9;" width="878.2" height="288.6"/>
			
				<rect x="-444.4" y="-108.5" transform="matrix(0.7071 0.7071 -0.7071 0.7071 23.7623 14.2054)" style="fill:none;stroke:#F8F8F8;stroke-width:9;" width="878.2" height="288.6"/>
		</g>
	</g>
</g>
</svg>
