<?xml version="1.0" encoding="utf-8"?>
<!-- Generator: Adobe Illustrator 19.1.0, SVG Export Plug-In . SVG Version: 6.00 Build 0)  -->
<svg version="1.1" id="Layer_1" xmlns="http://www.w3.org/2000/svg" xmlns:xlink="http://www.w3.org/1999/xlink" x="0px" y="0px"
	 viewBox="122 -32.7 856.7 856.7" style="enable-background:new 122 -32.7 856.7 856.7;" xml:space="preserve">
<path style="fill:none;stroke:#282D3A;stroke-width:5;stroke-miterlimit:10;" d="M543.4,460.9c-33-3.5-58.7-31.3-58.7-65.2
	c0-36.2,29.4-65.6,65.6-65.6s65.6,29.4,65.6,65.6c0,12.3-3.4,23.9-9.4,33.8 M628.7,419.9c-10.3,33.4-41.5,57.7-78.3,57.7
	c-15.3,0-29.6-4.2-41.9-11.5 M492.4,453.6c-14.8-14.8-24-35.3-24-58c0-35.9,23.1-66.4,55.1-77.5 M649.3,453.8
	c-19.9,33.9-56.8,56.6-98.9,56.6c-63.4,0-114.7-51.4-114.7-114.7 M613,299.6c31.3,20.5,52.1,55.9,52.1,96.1
	c0,12.3-1.9,24.1-5.5,35.2 M441.9,358.1c15.6-44.9,58.2-77.2,108.4-77.2c5.2,0,10.3,0.3,15.3,1 M495.7,514.9
	c-32.4-14.9-57.7-42.6-69.4-76.7 M558,542.9c-2.5,0.1-5.1,0.2-7.7,0.2c-33.6,0-64.5-11.2-89.3-30.1 M693.1,433
	c-14.7,56.5-62,99.8-120.6,108.5 M444.1,497.9c-25.5-26.5-41.2-62.6-41.2-102.3c0-81.4,66-147.5,147.5-147.5
	c81.4,0,147.5,66,147.5,147.5c0,1.2,0,2.5,0,3.7 M397.4,454.5c-7-18.3-10.9-38.1-10.9-58.9c0-49,21.5-93,55.6-123 M614.2,244.7
	c30.9,13.1,57,35.4,74.8,63.5 M607.9,566.5c-18.1,6.1-37.4,9.4-57.5,9.4c-4.7,0-9.3-0.2-13.9-0.5 M721.4,452.8
	c-14.9,44.5-46.7,81.3-87.7,102.8 M673.4,264c35.2,32.9,57.2,79.7,57.2,131.7c0,4.1-0.1,8.1-0.4,12.2 M485.3,563.8
	c-67.4-26.1-115.2-91.5-115.2-168.1c0-99.5,80.7-180.2,180.2-180.2c37,0,71.3,11.1,99.9,30.2 M471.2,197.9
	c24.5-9.8,51.2-15.2,79.2-15.2c70.2,0,132.4,33.9,171.2,86.3 M337.5,402.5c-0.1-2.3-0.1-4.5-0.1-6.8c0-12.3,1.1-24.4,3.1-36.1
	 M392.3,538.4c-32.7-36.2-53.1-83.7-54.7-135.9 M760.6,361.7c1.8,11.1,2.7,22.4,2.7,34c0,117.6-95.4,213-213,213
	c-7.8,0-15.6-0.4-23.2-1.2 M313.7,329.3c18.5-66.2,64.1-121.2,124.1-152.1 M378.5,571.2c-45.5-44.6-73.8-106.8-73.8-175.6
	c0-15.8,1.5-31.3,4.4-46.4 M406.8,595.1c-10-7.2-19.5-15.2-28.4-23.9 M564.6,641c-4.7,0.3-9.4,0.4-14.2,0.4
	c-53.6,0-103.2-17.2-143.6-46.3 M492,156.9c18.7-4.6,38.3-7,58.4-7c135.7,0,245.7,110,245.7,245.7c0,113.9-77.4,209.6-182.5,237.5
	 M734.2,208.8c48.3,47.5,78.3,113.7,78.3,186.8c0,16.4-1.5,32.5-4.4,48.1 M710.6,188.2c8.3,6.4,16.2,13.3,23.6,20.6 M493.5,123
	c18.4-3.8,37.4-5.8,56.9-5.8c87.1,0,164.8,40,215.9,102.6 M272.2,382.8c5.3-115.3,80.6-212.3,184.4-249.4 M328.9,564.5
	c-23.1-30.3-40.2-65.5-49.3-103.7 M712.3,149.2c67,44.1,115,114.8,128.8,197 M418.5,131.9c39.7-19.9,84.5-31,131.8-31
	c45.7,0,88.9,10.4,127.5,28.9 M843.7,425.8C828.6,574.5,703,690.5,550.4,690.5c-162.9,0-294.9-132-294.9-294.9
	c0-72.2,25.9-138.3,69-189.5 M871.3,329.3c4.4,21.4,6.7,43.6,6.7,66.4c0,85.3-32.6,163-86,221.3 M721.8,116.4
	c64.1,39.4,113.6,100.3,138.5,172.7 M516.9,69.8c11-1.1,22.2-1.7,33.5-1.7c52.2,0,101.5,12.2,145.2,33.9 M754,652.4
	c-55.9,44.4-126.7,70.9-203.6,70.9c-180.9,0-327.6-146.7-327.6-327.6c0-147.8,97.9-272.8,232.4-313.6 M879.1,543.5
	c-31.3,69.4-83.9,127.2-149.5,164.8 M704.9,721.3c-46.8,22.3-99.2,34.7-154.5,34.7C351.3,756,190,594.7,190,395.7
	c0-199.1,161.3-360.4,360.4-360.4c187.9,0,342.2,143.8,358.9,327.3 M896.9,209.9c29.7,55.3,46.6,118.6,46.6,185.8
	c0,122.9-56.4,232.6-144.7,304.7 M781.5,77.7c40.8,29.7,75.7,67.1,102.5,110 M462.9,12.3c28.1-6.4,57.4-9.8,87.5-9.8
	C622,2.5,689,21.6,746.8,55 M289,102.1c20.1-17.9,42-33.7,65.5-47.3 M167.7,486.2c-6.9-29.1-10.5-59.4-10.5-90.6
	c0-102.4,39.2-195.7,103.3-265.6 M660.6,773.1c-35,10.2-71.9,15.7-110.2,15.7c-146,0-273.3-79.5-341.2-197.6 M924.9,598.6
	c-46.5,85.7-121.6,153.6-212.5,191 M820.6,66.5c95,78.1,155.6,196.6,155.6,329.2c0,36.3-4.5,71.5-13.1,105.2 M264.8,79.7
	C340.3,11.4,440.5-30.2,550.4-30.2c58.6,0,114.5,11.8,165.3,33.3 M130.7,468.7c-4.1-23.7-6.2-48.1-6.2-73
	c0-114,44.8-217.6,117.8-294 M327.4,758.6c-78.8-48.5-140.6-122-174.4-209.3 M617.9,816.2c-22,3.5-44.6,5.3-67.6,5.3
	c-68.3,0-132.8-16.1-190-44.6"/>
</svg>
