<?xml version="1.0" encoding="utf-8"?>
<!-- Generator: Adobe Illustrator 19.1.0, SVG Export Plug-In . SVG Version: 6.00 Build 0)  -->
<svg version="1.1" id="Layer_1" xmlns="http://www.w3.org/2000/svg" xmlns:xlink="http://www.w3.org/1999/xlink" x="0px" y="0px"
	 viewBox="-95 337.6 421 118.4" style="enable-background:new -95 337.6 421 118.4;" xml:space="preserve">
<g>
	<g>
		<defs>
			<rect id="SVGID_1_" x="-94" y="338.2" width="421" height="116"/>
		</defs>
		<clipPath id="SVGID_2_">
			<use xlink:href="#SVGID_1_"  style="overflow:visible;"/>
		</clipPath>
		<g style="clip-path:url(#SVGID_2_);">
			
				<rect x="-629.2" y="-108.5" transform="matrix(0.7071 -0.7071 0.7071 0.7071 -81.0337 -123.9565)" style="fill:none;stroke:#282D3A;stroke-width:9;" width="878.2" height="288.6"/>
			
				<rect x="-592.1" y="-108.4" transform="matrix(0.7071 -0.7071 0.7071 0.7071 -70.1706 -97.6645)" style="fill:none;stroke:#282D3A;stroke-width:9;" width="878.2" height="288.6"/>
			
				<rect x="-555" y="-108.4" transform="matrix(0.7071 -0.7071 0.7071 0.7071 -59.3075 -71.4554)" style="fill:none;stroke:#282D3A;stroke-width:9;" width="878.2" height="288.6"/>
			
				<rect x="-517.7" y="-108.5" transform="matrix(0.7071 -0.7071 0.7071 0.7071 -48.3736 -45.1097)" style="fill:none;stroke:#282D3A;stroke-width:9;" width="878.2" height="288.6"/>
			
				<rect x="-480.5" y="-108.4" transform="matrix(0.7071 -0.7071 0.7071 0.7071 -37.4812 -18.7466)" style="fill:none;stroke:#282D3A;stroke-width:9;" width="878.2" height="288.6"/>
			
				<rect x="-443.3" y="-108.4" transform="matrix(0.7071 -0.7071 0.7071 0.7071 -26.6181 7.5452)" style="fill:none;stroke:#282D3A;stroke-width:9;" width="878.2" height="288.6"/>
			
				<rect x="-629.2" y="-108.4" transform="matrix(0.7071 0.7071 -0.7071 0.7071 -30.3311 144.9296)" style="fill:none;stroke:#282D3A;stroke-width:9;" width="878.2" height="288.6"/>
			
				<rect x="-592" y="-108.4" transform="matrix(0.7071 0.7071 -0.7071 0.7071 -19.3975 118.6666)" style="fill:none;stroke:#282D3A;stroke-width:9;" width="878.2" height="288.6"/>
			
				<rect x="-554.8" y="-108.5" transform="matrix(0.7071 0.7071 -0.7071 0.7071 -8.5878 92.3038)" style="fill:none;stroke:#282D3A;stroke-width:9;" width="878.2" height="288.6"/>
			
				<rect x="-517.6" y="-108.4" transform="matrix(0.7071 0.7071 -0.7071 0.7071 2.3581 66.0118)" style="fill:none;stroke:#282D3A;stroke-width:9;" width="878.2" height="288.6"/>
			
				<rect x="-480.4" y="-108.5" transform="matrix(0.7071 0.7071 -0.7071 0.7071 13.2212 39.7196)" style="fill:none;stroke:#282D3A;stroke-width:9;" width="878.2" height="288.6"/>
			
				<rect x="-443.4" y="-108.5" transform="matrix(0.7071 0.7071 -0.7071 0.7071 24.0552 13.4983)" style="fill:none;stroke:#282D3A;stroke-width:9;" width="878.2" height="288.6"/>
		</g>
	</g>
</g>
</svg>
