<?xml version="1.0" encoding="utf-8"?>
<!-- Generator: Adobe Illustrator 19.1.0, SVG Export Plug-In . SVG Version: 6.00 Build 0)  -->
<svg version="1.1" id="Layer_1" xmlns="http://www.w3.org/2000/svg" xmlns:xlink="http://www.w3.org/1999/xlink" x="0px" y="0px"
	 viewBox="-199 -24 212 840" enable-background="new -199 -24 212 840" xml:space="preserve">
<g>
	<g>
		<defs>
			<rect id="SVGID_1_" x="-199" y="-24" width="212" height="840"/>
		</defs>
		<clipPath id="SVGID_2_">
			<use xlink:href="#SVGID_1_"  overflow="visible"/>
		</clipPath>
		<g clip-path="url(#SVGID_2_)">
			
				<rect x="-217.2" y="252.4" transform="matrix(-0.7071 0.7071 -0.7071 -0.7071 659.2761 520.3289)" fill="none" stroke="#282D3A" stroke-width="9" width="878.2" height="288.6"/>
			
				<rect x="-180.1" y="252.4" transform="matrix(-0.7071 0.7071 -0.7071 -0.7071 722.6782 494.1287)" fill="none" stroke="#282D3A" stroke-width="9" width="878.2" height="288.6"/>
			
				<rect x="-143" y="252.4" transform="matrix(-0.7071 0.7071 -0.7071 -0.7071 785.9803 467.8868)" fill="none" stroke="#282D3A" stroke-width="9" width="878.2" height="288.6"/>
			
				<rect x="-105.7" y="252.5" transform="matrix(-0.7071 0.7071 -0.7071 -0.7071 849.695 441.5573)" fill="none" stroke="#282D3A" stroke-width="9" width="878.2" height="288.6"/>
			
				<rect x="-68.5" y="252.5" transform="matrix(-0.7071 0.7071 -0.7071 -0.7071 913.2681 415.2862)" fill="none" stroke="#282D3A" stroke-width="9" width="878.2" height="288.6"/>
			
				<rect x="-31.3" y="252.5" transform="matrix(-0.7071 0.7071 -0.7071 -0.7071 976.6412 389.015)" fill="none" stroke="#282D3A" stroke-width="9" width="878.2" height="288.6"/>
			
				<rect x="-217.2" y="252.5" transform="matrix(-0.7071 -0.7071 0.7071 -0.7071 98.2054 834.2113)" fill="none" stroke="#282D3A" stroke-width="9" width="878.2" height="288.6"/>
			
				<rect x="-180" y="252.5" transform="matrix(-0.7071 -0.7071 0.7071 -0.7071 161.6785 860.5819)" fill="none" stroke="#282D3A" stroke-width="9" width="878.2" height="288.6"/>
			
				<rect x="-142.8" y="252.3" transform="matrix(-0.7071 -0.7071 0.7071 -0.7071 225.3516 886.6116)" fill="none" stroke="#282D3A" stroke-width="9" width="878.2" height="288.6"/>
			
				<rect x="-105.6" y="252.4" transform="matrix(-0.7071 -0.7071 0.7071 -0.7071 288.7952 913.0535)" fill="none" stroke="#282D3A" stroke-width="9" width="878.2" height="288.6"/>
			
				<rect x="-68.5" y="252.4" transform="matrix(-0.7071 -0.7071 0.7071 -0.7071 352.1978 939.2537)" fill="none" stroke="#282D3A" stroke-width="9" width="878.2" height="288.6"/>
			
				<rect x="-31.3" y="252.3" transform="matrix(-0.7071 -0.7071 0.7071 -0.7071 415.7412 965.4542)" fill="none" stroke="#282D3A" stroke-width="9" width="878.2" height="288.6"/>
		</g>
	</g>
</g>
</svg>
