<?xml version="1.0" encoding="utf-8"?>
<!-- Generator: Adobe Illustrator 19.1.0, SVG Export Plug-In . SVG Version: 6.00 Build 0)  -->
<svg version="1.1" id="Layer_1" xmlns="http://www.w3.org/2000/svg" xmlns:xlink="http://www.w3.org/1999/xlink" x="0px" y="0px"
	 viewBox="-249 39.1 460.7 482.9" style="enable-background:new -249 39.1 460.7 482.9;" xml:space="preserve">
<path style="fill:none;stroke:#F8F8F8;stroke-width:27.018;stroke-miterlimit:10;" d="M-574,229.9c-36.6,14-74.4,36.8-114.9,77.2
	 M70.4-414.2C33.8-400.2-4-377.4-44.5-337 M-559.6,189.5c-49.6,11.7-100.8,33.9-156.9,90 M84.8-454.5
	c-49.6,11.7-100.7,33.9-156.9,90 M-552.8,156.9c-60,10.1-121.2,27.9-189.8,96.5 M91.6-487.2c-60,10.1-121.2,27.9-189.8,96.5
	 M-550.7,123c-70.2,10.2-140.4,20.9-220.8,101.3 M93.7-521c-70.2,10.3-140.4,20.9-220.9,101.3 M-224.3-201.1
	c-71,10.4-141.9,20.3-223.3,101.6C-609.4,62.2-489,182.7-650.7,344.4 M-871.4,445.6c-71,10.4-141.9,20.3-223.3,101.6
	c-161.8,161.7-41.4,282.2-203.1,443.9 M420.1-845.2c-71,10.4-141.9,20.3-223.3,101.6C35-581.9,155.4-461.4-6.3-299.7 M-229.2-166.9
	c-59.9,10.1-121,28-189.4,96.4C-580.4,91.2-460,211.7-621.7,373.4 M-876.2,479.8c-59.9,10.1-121,28-189.4,96.4
	c-161.8,161.7-41.4,282.2-203.1,443.9 M415.2-810.9c-59.9,10.1-121,28-189.4,96.4C64-552.8,184.4-432.3,22.7-270.6 M-239.2-133.4
	c-48.5,12-98.5,34.4-153.2,89.1c-161.9,161.7-41.4,282.1-203.2,443.8 M-886.3,513.3c-48.5,12-98.5,34.4-153.2,89.1
	c-161.8,161.7-41.4,282.2-203.1,443.9 M405.2-777.5c-48.5,12-98.5,34.4-153.2,89.1C90.1-526.7,210.6-406.2,48.8-244.5 M-248.4-94.6
	c-37.1,13.9-75.5,36.8-116.5,77.8C-526.7,144.9-406.3,265.4-568,427.1 M-895.5,552.2C-932.6,566.1-971,589-1012,630
	c-161.8,161.7-41.4,282.2-203.1,443.9 M396-738.6c-37.1,13.9-75.5,36.8-116.5,77.8C117.7-499.1,238.1-378.6,76.4-216.9 M-3.6-302.4
	c-40.7,40.6-78.7,63.5-115.5,77.4 M-650.7,344.3c-40.7,40.7-78.7,63.5-115.5,77.4 M25.4-273.4C-28.3-219.7-77.4-197.2-125-185
	 M-621.7,373.4c-53.7,53.7-102.8,76.2-150.4,88.4 M51.5-247.2c-67.2,67.2-127.3,85.6-186.1,95.9 M-595.6,399.5
	c-67.2,67.2-127.3,85.6-186.1,95.9 M79-219.6c-79.7,79.6-149.3,90.8-218.8,101 M-568,427.1c-79.7,79.6-149.3,90.8-218.8,101
	 M-327.6,21.4c-40,39.9-77.4,62.7-113.6,76.7 M-974.7,668.1c-40,39.9-77.4,62.7-113.6,76.7 M316.8-622.6
	c-40,39.9-77.4,62.7-113.6,76.7 M-298.6,50.5c-55,55-105.2,77.3-153.9,89.2 M-945.7,697.2c-55,55-105.2,77.3-153.9,89.2
	 M345.8-593.6c-55,55-105.2,77.3-153.9,89.2 M-272.5,76.6c-67.7,67.6-128.1,85.9-187.4,96.1 M-919.6,723.3
	c-67.7,67.6-128.1,85.9-187.4,96.1 M371.9-567.5c-67.7,67.6-128.1,85.9-187.4,96.1 M-244.9,104.2c-80.9,80.8-151.4,91.1-222,101.4
	 M-892,750.9c-80.9,80.8-151.4,91.1-222,101.4 M399.4-539.9c-80.9,80.8-151.4,91.1-222,101.4 M-124-422.9
	C-285.8-261.2-166.4-139.7-328.1,22 M-771.1,223.8C-932.8,385.5-812.4,506-974.2,667.7 M-95-393.9
	C-256.8-232.2-137.4-110.7-299.1,51 M-742.1,252.8C-903.8,414.5-783.4,535-945.2,696.7 M-68.9-367.8
	C-232.2-204.6-112.8-83.1-273,77.1 M-715.9,279c-161.8,161.6-41.4,282.1-203.2,443.8 M-41.3-340.2C-203.1-178.5-83.7-57-245.4,104.7
	 M-688.4,306.5c-161.8,161.7-41.4,282.2-203.1,443.9 M-537.1,594.6c-36.6,14-74.4,36.8-114.9,77.2 M107.3-49.5
	C70.7-35.5,32.9-12.7-7.6,27.7 M-522.7,554.2c-49.6,11.7-100.7,33.9-156.9,90 M121.7-89.8C72.1-78.1,21-55.9-35.2,0.1 M-515.9,521.5
	c-60,10.1-121.2,27.9-189.8,96.5 M128.5-122.5C68.5-112.4,7.3-94.6-61.3-26 M-513.8,487.7C-584,497.9-654.2,508.6-734.6,589
	 M130.6-156.3C60.4-146.1-9.8-135.4-90.2-55 M-187.3,163.5c-71,10.4-141.9,20.3-223.3,101.6C-572.4,426.8-452,547.3-613.7,709
	 M457-480.5c-71,10.4-141.9,20.3-223.3,101.6C71.9-217.2,192.3-96.7,30.6,65 M-192.2,197.8c-59.9,10.1-121,28-189.4,96.4
	C-543.4,455.9-423,576.4-584.7,738.1 M452.2-446.3c-59.9,10.1-121,28-189.4,96.4C101-188.2,221.4-67.7,59.7,94 M-202.3,231.3
	c-48.5,12-98.5,34.4-153.2,89.1c-161.8,161.7-41.4,282.2-203.1,443.9 M442.1-412.8c-48.5,12-98.5,34.4-153.2,89.1
	C127.1-162,247.5-41.5,85.8,120.2 M-211.4,270.1c-37.1,13.9-75.5,36.8-116.5,77.8C-489.7,509.6-369.3,630.1-531,791.8 M432.9-373.9
	c-37.1,13.9-75.5,36.8-116.5,77.8C154.6-134.4,275-13.9,113.3,147.8 M33.3,62.3c-40.7,40.6-78.7,63.5-115.5,77.4 M-613.8,709
	c-40.7,40.6-78.7,63.5-115.5,77.4 M62.3,91.3C8.6,145-40.5,167.5-88.1,179.7 M-584.7,738c-53.7,53.7-102.8,76.2-150.4,88.4
	 M88.4,117.4C21.2,184.6-38.9,203-97.7,213.3 M-558.6,764.2c-67.2,67.2-127.3,85.6-186.1,95.9 M-290.7,386.1
	c-40,39.9-77.4,62.7-113.6,76.7 M-937.7,1032.8c-40,39.9-77.4,62.7-113.6,76.7 M353.7-257.9c-40,39.9-77.4,62.7-113.6,76.7
	 M-261.7,415.1c-55,55-105.2,77.3-153.9,89.2 M-908.7,1061.8c-55,55-105.2,77.3-153.9,89.2 M382.7-228.9
	c-55,55-105.2,77.3-153.9,89.2 M-235.6,441.3c-67.7,67.6-128.1,85.9-187.4,96.1 M-882.6,1088c-67.7,67.6-128.1,85.9-187.4,96.1
	 M408.8-202.8c-67.7,67.6-128.1,85.9-187.4,96.1 M-87.1-58.2C-248.9,103.5-129.5,225-291.2,386.7 M-734.1,588.5
	c-161.8,161.7-41.4,282.2-203.1,443.9 M557.3-702.3c-161.8,161.7-41.4,282.2-203.1,443.9 M-58-29.2
	C-219.8,132.5-100.4,254-262.1,415.7 M-705.1,617.5c-161.8,161.7-41.4,282.2-203.1,443.9 M586.3-673.3
	c-161.8,161.7-41.4,282.2-203.1,443.9 M-31.9-3.1C-193.7,158.6-75.3,281.1-237,442.8 M-679,643.6
	c-161.8,161.7-41.4,282.2-203.1,443.9 M612.5-647.1c-161.8,161.7-41.4,282.2-203.1,443.9 M-4.4,24.5
	c-161.8,161.7-42.4,283.2-204.1,444.9 M-651.4,671.2c-161.8,161.7-41.4,282.2-203.1,443.9 M640-619.6
	c-161.8,161.7-41.4,282.2-203.1,443.9 M116,145c-79.7,79.6-149.3,90.8-218.8,101 M-531.1,791.7c-79.7,79.6-149.3,90.8-218.8,101
	 M-208,468.8c-80.9,80.8-151.4,91.1-222,101.4 M-855.1,1115.6c-80.9,80.8-151.4,91.1-222,101.4 M436.4-175.2
	C355.5-94.4,285-84.1,214.4-73.8"/>
</svg>
