<?xml version="1.0" encoding="utf-8"?>
<!-- Generator: Adobe Illustrator 19.1.0, SVG Export Plug-In . SVG Version: 6.00 Build 0)  -->
<svg version="1.1" id="Layer_1" xmlns="http://www.w3.org/2000/svg" xmlns:xlink="http://www.w3.org/1999/xlink" x="0px" y="0px"
	 viewBox="-199 -23.9 212.8 839.9" enable-background="new -199 -23.9 212.8 839.9" xml:space="preserve">
<g>
	<g>
		<g>
			<defs>
				<rect id="SVGID_1_" x="-199" y="-23.9" width="212.8" height="839.9"/>
			</defs>
			<clipPath id="SVGID_2_">
				<use xlink:href="#SVGID_1_"  overflow="visible"/>
			</clipPath>
			<g clip-path="url(#SVGID_2_)">
				
					<rect x="-216.6" y="253.5" transform="matrix(0.7071 -0.7071 0.7071 0.7071 -216.0892 273.825)" fill="none" stroke="#F8F8F8" stroke-width="9" width="878.2" height="288.6"/>
				
					<rect x="-179.4" y="253.4" transform="matrix(0.7071 -0.7071 0.7071 0.7071 -205.1553 300.0877)" fill="none" stroke="#F8F8F8" stroke-width="9" width="878.2" height="288.6"/>
				
					<rect x="-142.4" y="253.4" transform="matrix(0.7071 -0.7071 0.7071 0.7071 -194.2922 326.2968)" fill="none" stroke="#F8F8F8" stroke-width="9" width="878.2" height="288.6"/>
				
					<rect x="-105.1" y="253.5" transform="matrix(0.7071 -0.7071 0.7071 0.7071 -183.4292 352.6719)" fill="none" stroke="#F8F8F8" stroke-width="9" width="878.2" height="288.6"/>
				
					<rect x="-67.8" y="253.5" transform="matrix(0.7071 -0.7071 0.7071 0.7071 -172.5366 379.0346)" fill="none" stroke="#F8F8F8" stroke-width="9" width="878.2" height="288.6"/>
				
					<rect x="-30.8" y="253.5" transform="matrix(0.7071 -0.7071 0.7071 0.7071 -161.7028 405.2559)" fill="none" stroke="#F8F8F8" stroke-width="9" width="878.2" height="288.6"/>
				
					<rect x="-216.6" y="253.5" transform="matrix(0.7071 0.7071 -0.7071 0.7071 346.4579 -40.8211)" fill="none" stroke="#F8F8F8" stroke-width="9" width="878.2" height="288.6"/>
				
					<rect x="-179.4" y="253.5" transform="matrix(0.7071 0.7071 -0.7071 0.7071 357.3211 -67.1134)" fill="none" stroke="#F8F8F8" stroke-width="9" width="878.2" height="288.6"/>
				
					<rect x="-142.2" y="253.3" transform="matrix(0.7071 0.7071 -0.7071 0.7071 368.1304 -93.4762)" fill="none" stroke="#F8F8F8" stroke-width="9" width="878.2" height="288.6"/>
				
					<rect x="-105" y="253.4" transform="matrix(0.7071 0.7071 -0.7071 0.7071 379.0767 -119.7681)" fill="none" stroke="#F8F8F8" stroke-width="9" width="878.2" height="288.6"/>
				
					<rect x="-67.8" y="253.5" transform="matrix(0.7071 0.7071 -0.7071 0.7071 390.0103 -146.0312)" fill="none" stroke="#F8F8F8" stroke-width="9" width="878.2" height="288.6"/>
				
					<rect x="-30.6" y="253.3" transform="matrix(0.7071 0.7071 -0.7071 0.7071 400.8028 -172.3522)" fill="none" stroke="#F8F8F8" stroke-width="9" width="878.2" height="288.6"/>
			</g>
		</g>
	</g>
</g>
</svg>
