<?xml version="1.0" encoding="utf-8"?>
<!-- Generator: Adobe Illustrator 19.1.0, SVG Export Plug-In . SVG Version: 6.00 Build 0)  -->
<!DOCTYPE svg PUBLIC "-//W3C//DTD SVG 1.1//EN" "http://www.w3.org/Graphics/SVG/1.1/DTD/svg11.dtd">
<svg version="1.1" id="Layer_1" xmlns="http://www.w3.org/2000/svg" xmlns:xlink="http://www.w3.org/1999/xlink" x="0px" y="0px"
	 viewBox="0 0 88.8 89.3" enable-background="new 0 0 88.8 89.3" xml:space="preserve">
<path fill="#FFFFFF" d="M88.4,3.1c0,1.6-1.2,2.8-2.7,2.9c-1.6,0-2.8-1.2-2.9-2.7c0-1.6,1.2-2.8,2.7-2.9C87.1,0.4,88.4,1.6,88.4,3.1
	 M85.5,0c-1.8,0-3.2,1.5-3.1,3.3c0,1.8,1.5,3.2,3.3,3.1c1.8,0,3.2-1.5,3.1-3.3C88.7,1.4,87.3,0,85.5,0"/>
<path fill="#FFFFFF" d="M11.5,48.3c0.1-0.2,2.9,11,18.4,9.1c-3-7.3-12.5-12.1-14.7-12.2c0.4-0.3,3.1-2.4,3.6-2.6
	c-0.6,2,8.3,10.2,15.1,7.9c-1.8-5.6-9.4-10.3-11.3-10.4c0.8-0.4,1.6-1.1,2.5-1.5c-0.4,1.1,6.1,7.4,13,6.9c0.1-3.3-7.5-9.6-8.9-9.1
	c0.7-0.4,1.8-1,2.1-1.2c1,2.3,7.4,7.1,11.8,6.4c-3.6-7.7-8.2-8.1-8.3-8.1c1.2-0.6,2-1,2.2-1.1c0,2.1,6.4,6.7,10.8,5.6
	c-0.9-3.4-4.4-6.7-7.8-7.1c0.8-0.4,1.7-0.8,2.3-1.1c-0.4,0.6,5,5.1,10.1,4.8c-2.4-5.9-5.8-6.1-7-6.3c0.7-0.3,1.4-0.7,2.1-1.1
	c0.3,0.8,3.1,4.7,9.7,3.7c-1.7-3.6-5.2-4.8-7.1-5c1-0.6,1.7-0.8,2.3-1.2c0.5,0.5,2.1,4.1,8.9,2.8c-1.4-3.4-4.5-4.3-5.8-4.5
	c0.6-0.4,1.3-0.7,1.7-1c0.5,0.8,3.9,3.3,7.6,2.2c-0.7-2.1-3.4-3.3-5.7-3.4c1-0.7,2-1.4,2-1.4c0.3,0.8,2.4,2.7,7.1,1.4
	c-1.5-3-5.4-2.6-5.4-2.6c0.9-0.7,1.2-0.9,1.9-1.5c0.1,0,2.3,3.1,6.1,1c-1.2-1.8-2.8-2.7-4.6-2.2c0.5-0.5,1-0.9,1.4-1.4
	c-0.2,0.4,2.8,2,5.5,0c-1.3-1.2-2.7-1.5-4.2-1.4c0.3-0.4,0.4-0.4,0.8-0.9c0,0,2.4,1.8,4.6-0.4c-1.8-1.4-3.9-0.5-3.9-0.5l0.9-1.3
	c0.4,0.5,2.9,1,3.8-0.7c-0.7-0.7-3-0.5-3.3-0.3C72,8.8,72.2,8.3,72.4,8c4.7,0.6,3.1-4.9,2-8C56.6,27.1,33,7.9,4.1,24.9
	c-1.3,3.5-1.8,7.2-1.5,11c0,0.4,0,0.7,0.2,1.5c-0.1,0.3,0.3,2.4,1.1,4.7c0.6,1.7,1.2,2.8,1.9,4.5c0.4-0.3,0.9-0.7,1.2-1
	c-1.3-1.8-5.6-13-0.2-19.5c5.1-0.1,5.7,14.6,4.8,16.1c0,0,2.4-1.6,3.3-2.1c-1.1-0.4-5-13.2,1.5-18.5c0,0,5.8,2.2,3.4,15.7
	c1-0.6,2.4-1.2,3.7-1.9c-0.7-1.3-4.7-10.9,1.6-15.9c3.4,1.4,3.2,11.9,1.9,14.2c1.1-0.5,2.3-1.1,3.4-1.6c-2-0.9-1.8-10.8,1.5-13.5
	c3.7,3.5,2.8,9.4,1.9,12l2.8-1.2c-2.2-4.2-1.2-9.3,1.2-11.3c1.8,1.2,2.3,4.6,1.5,10.2c0.8-0.3,1.3-0.6,2-0.8
	c-0.5-0.9-1.8-6.7,1.5-9.7c2.9,1.4,1.9,7.8,1.7,8.4l1.7-0.7c-0.6-1.2-1-6,1.7-8.2c1.1,0.8,2.2,2.9,1.2,7c0.6-0.3,1.3-0.6,1.9-0.9
	c-0.9-1-0.3-5.2,1.1-6.8c1.7,0.7,2.4,4.3,1.8,5.5c0.4-0.2,0.9-0.5,1.6-0.9c-0.5-0.8-0.7-4.7,0.9-5.7c1.6,1.1,1.4,3.9,1.4,4.5
	c0.5-0.3,1.8-1,1.8-1c-0.9-0.8-1.3-3.4,0.6-4.9c1.6,0.4,1.7,3.4,1.5,3.6c0.6-0.4,1.7-1.2,2.2-1.5c-1.5-0.3-1.3-2.7-0.5-3.8
	c1,0.2,1.7,0.8,2,2.6c0.4-0.4,1.3-1.1,1.6-1.4c-0.9-0.1-2-2.1-0.6-3.4c0.4,0.2,1.7,0.7,1.8,2.1c0.2-0.1,0.9-1,1-1.2
	c-0.6-0.2-1.3-2.1-0.7-3c0.9-0.1,1.6,1.1,1.8,1.6l0.8-1.2C70.6,8.1,69.6,7,70.5,6c1,0,1.3,0.8,1.5,1.5C62.3,26.6,22.8,29.9,2.2,53
	c0,0-2.1,2.2-2.1,3.3v7.8h0.4C1.5,61.2,4.8,53.7,11.5,48.3"/>
<polygon fill="#FFFFFF" points="85.4,2.6 85.4,2.2 83.7,2.2 83.7,2.6 84.3,2.6 84.3,4.5 84.8,4.5 84.8,2.6 "/>
<polygon fill="#FFFFFF" points="87.7,4.5 87.7,2.2 87.3,2.2 86.6,3.5 85.9,2.2 85.5,2.2 85.5,4.5 85.9,4.5 85.9,3 86.4,4 86.8,4 
	87.3,3 87.3,4.5 "/>
<path fill="#FFFFFF" d="M78,76h1.3c0.6,0,1-0.2,1.3-0.5c0.3-0.4,0.4-1,0.4-2.3c0-1.4-0.1-1.9-0.4-2.3s-0.7-0.5-1.3-0.5H78V76z
	 M79.4,77.6h-3.2v-8.9h3.2c1,0,1.8,0.3,2.4,0.9c0.9,0.9,0.9,2,0.9,3.2v0.7c0,1.2,0,2.4-0.9,3.3C81.2,77.3,80.4,77.6,79.4,77.6"/>
<path fill="#FFFFFF" d="M42.6,77.6h-5.9v-6c0-0.6,0-1.8,0.3-2.2c0.3-0.5,0.7-0.7,1.5-0.7h4.1v1.6h-3.2c-0.2,0-0.5,0-0.6,0.2
	c-0.2,0.2-0.2,0.5-0.2,0.8v1H42V74h-3.5v2h4.1V77.6z"/>
<path fill="#FFFFFF" d="M14.5,68.7H8.7v6c0,0.6,0,1.8,0.3,2.2c0.3,0.5,0.7,0.7,1.5,0.7h4.1V76h-3.2c-0.2,0-0.5,0-0.6-0.2
	c-0.2-0.2-0.2-0.5-0.2-0.8v-1h3.5v-1.6h-3.5v-2.1h4.1v-1.6H14.5z"/>
<path fill="#FFFFFF" d="M54.1,76h4v1.6h-5.8v-7.7l0,0c0-0.6-0.2-0.8-0.6-1.1l0,0l0,0l0,0h1.1c0.7,0,1.3,0.2,1.3,1.9V76z"/>
<polygon fill="#FFFFFF" points="5,68.7 5,74 1.6,68.7 0,68.7 0,77.6 1.8,77.6 1.8,72.3 5.2,77.6 6.8,77.6 6.8,68.7 "/>
<path fill="#FFFFFF" d="M72.5,72.7v-3c0-0.5-0.1-0.7-0.5-0.9l0,0l0,0l0,0h1c0.8,0,1.3,0.6,1.3,1.9v7h-1.6l-3.4-5.3v5.3h-1.8v-8.9
	h1.6l3.4,5.3V72.7z"/>
<path fill="#FFFFFF" d="M46.4,74.5l1.1-3l1,3H46.4z M48.5,69.6c-0.2-0.6-0.6-0.9-1.1-0.9h-0.7l-3.2,8.9h1.9l0.5-1.6H49l0.5,1.6h1.9
	L48.5,69.6z"/>
<path fill="#FFFFFF" d="M61.6,74.5l1.1-3l1,3H61.6z M63.7,69.6c-0.2-0.6-0.6-0.9-1.1-0.9h-0.7l-3.2,8.9h1.9l0.5-1.6h3.1l0.5,1.6h1.9
	L63.7,69.6z"/>
<path fill="#FFFFFF" d="M19,74.2l1.6-5.4h1.3l1.6,5.4l1.3-5.4h1.9l-2.4,8.9h-1.5l-1.6-5.3l-1.6,5.3h-1.5l-2-7.6
	c-0.2-0.7-0.4-1-0.9-1.2l0,0l0,0l0,0h1.2c0.9,0,1.4,0.4,1.6,1.2L19,74.2z"/>
<path fill="#FFFFFF" d="M34.7,71.1c0.3-0.6,0.6-1.3,0.6-1.8v-0.5h-5.7v1.6h3.6l-3.7,5.8v1.4h5.9V76h-3.7L34.7,71.1z"/>
<path fill="#A6A8AC" d="M36.8,86.8l0.9-2.5l0.8,2.5H36.8z M38.5,82.8c-0.2-0.5-0.5-0.7-0.9-0.7h-0.5l-2.6,7.2H36l0.4-1.3h2.5
	l0.4,1.3h1.5L38.5,82.8z"/>
<path fill="#A6A8AC" d="M24.5,89.3c-0.8,0-1.4-0.3-1.9-0.8c-0.7-0.7-0.7-1.6-0.7-2.7v-0.1v-0.1c0-1.2,0-2,0.7-2.7
	c0.5-0.5,1.2-0.8,1.9-0.8c0.9,0,1.5,0.2,2.2,0.9l0,0l-1,1l0,0c-0.4-0.4-0.7-0.6-1.2-0.6c-0.3,0-0.7,0.1-0.9,0.4
	c-0.3,0.3-0.3,0.6-0.3,2s0.1,1.7,0.3,2c0.2,0.2,0.5,0.4,0.9,0.4s0.7-0.1,0.9-0.4c0.2-0.3,0.3-0.7,0.3-0.9v-0.2h-1.3v-1.2h2.7v1
	c0,1.1-0.2,1.7-0.7,2.2C26,89,25.3,89.3,24.5,89.3"/>
<polygon fill="#A6A8AC" points="8.3,82.1 6.5,85.9 4.6,82.1 3.2,82.1 3.2,89.3 4.7,89.3 4.7,85.2 6,87.8 7,87.8 8.3,85.2 8.3,89.3 
	9.8,89.3 9.8,82.1 "/>
<polygon fill="#A6A8AC" points="16.3,82.1 14.5,85.9 12.6,82.1 11.2,82.1 11.2,89.3 12.7,89.3 12.7,85.2 14,87.8 15,87.8 16.3,85.2 
	16.3,89.3 17.8,89.3 17.8,82.1 "/>
<path fill="#A6A8AC" d="M52.4,83.2c-0.4,0-0.7,0.1-0.9,0.4c-0.3,0.3-0.3,0.6-0.3,2s0.1,1.7,0.3,2c0.2,0.2,0.5,0.4,0.9,0.4
	s0.7-0.1,0.9-0.4c0.3-0.3,0.3-0.6,0.3-2s-0.1-1.7-0.3-2C53.1,83.4,52.8,83.2,52.4,83.2 M52.4,89.3c-0.8,0-1.4-0.3-2-0.8
	c-0.7-0.7-0.7-1.6-0.7-2.8v-0.1v-0.1c0-1.2,0-2.1,0.7-2.8c0.5-0.5,1.2-0.8,2-0.8s1.4,0.3,2,0.8c0.7,0.7,0.7,1.6,0.7,2.8l0,0l0,0
	c0,1.2,0,2.1-0.7,2.8C53.9,89,53.2,89.3,52.4,89.3"/>
<polygon fill="#A6A8AC" points="40.4,82.1 40.4,83.4 42.3,83.4 42.3,89.3 43.7,89.3 43.7,83.4 45.6,83.4 45.6,82.1 "/>
<polygon fill="#A6A8AC" points="60.3,81.9 60.3,86.2 57.5,81.9 56.2,81.9 56.2,89.1 57.7,89.1 57.7,84.8 60.5,89.1 61.8,89.1 
	61.8,81.9 "/>
<path fill="#A6A8AC" d="M19.1,83.7v-1c0-0.5-0.1-0.7-0.5-0.9l0,0l0,0l0,0h0.9c0.6,0,1,0.2,1.1,1.6V89h-1.5V83.7z"/>
<path fill="#A6A8AC" d="M0.5,83.7v-1c0-0.5-0.1-0.7-0.5-0.9l0,0l0,0l0,0h0.9c0.6,0,1,0.2,1.1,1.6V89H0.5V83.7z"/>
<path fill="#A6A8AC" d="M46.8,83.7v-1c0-0.5-0.1-0.7-0.5-0.9l0,0l0,0l0,0h0.9c0.6,0,1,0.2,1.1,1.6V89h-1.5V83.7z"/>
<path fill="#A6A8AC" d="M29.9,85.2h1.3c0.6,0,1-0.4,1-0.9s-0.4-0.9-1-0.9h-1.3C29.9,83.4,29.9,85.2,29.9,85.2z M33.9,89.3h-1.7
	l-1.4-2.9h-1v2.9h-1.5v-7.2h2.8c1.4,0,2.4,0.9,2.4,2.2c0,0.9-0.5,1.6-1.3,1.9L33.9,89.3z"/>
</svg>
