<?xml version="1.0" encoding="utf-8"?>
<!-- Generator: Adobe Illustrator 19.1.0, SVG Export Plug-In . SVG Version: 6.00 Build 0)  -->
<!DOCTYPE svg PUBLIC "-//W3C//DTD SVG 1.1//EN" "http://www.w3.org/Graphics/SVG/1.1/DTD/svg11.dtd">
<svg version="1.1" id="Layer_1" xmlns="http://www.w3.org/2000/svg" xmlns:xlink="http://www.w3.org/1999/xlink" x="0px" y="0px"
	 viewBox="-237 384.2 99.2 30.8" enable-background="new -237 384.2 99.2 30.8" xml:space="preserve">
<path fill="#D6D7DB" d="M-157.5,406.2h-1v5.7h1.2v-3.4l2.2,3.4h1v-5.7h-1.2v3.4L-157.5,406.2z M-162.5,409c0-1.1,0.1-1.3,0.3-1.6
	c0.2-0.2,0.4-0.3,0.7-0.3c0.3,0,0.5,0.1,0.7,0.3c0.2,0.2,0.3,0.5,0.3,1.6c0,1.1-0.1,1.3-0.3,1.6c-0.2,0.2-0.4,0.3-0.7,0.3
	c-0.3,0-0.5-0.1-0.7-0.3C-162.5,410.3-162.5,410.1-162.5,409 M-163.1,406.7c-0.6,0.6-0.6,1.2-0.6,2.2v0.1v0.1c0,0.9,0,1.6,0.6,2.2
	c0.4,0.4,0.9,0.6,1.6,0.6c0.6,0,1.1-0.2,1.5-0.6c0.6-0.6,0.6-1.3,0.6-2.2l0,0l0,0c0-1,0-1.7-0.6-2.2c-0.4-0.4-0.9-0.6-1.5-0.6
	C-162.2,406.1-162.7,406.3-163.1,406.7 M-166.3,406.2L-166.3,406.2C-166.3,406.2-166.3,406.3-166.3,406.2L-166.3,406.2
	c0.3,0.2,0.4,0.4,0.4,0.7v0.8v4.2h1.2v-4.5c0-1.1-0.4-1.2-0.8-1.2H-166.3z M-171.1,407.2h1.5v4.7h1.2v-4.7h1.4v-1h-4.1V407.2z
	 M-173.9,409.9l0.7-2l0.7,2H-173.9z M-173.7,406.2l-2.1,5.7h1.2l0.3-1h2l0.3,1h1.2l-1.9-5.2c-0.1-0.4-0.4-0.6-0.7-0.6L-173.7,406.2z
	 M-188.2,406.2C-188.3,406.2-188.3,406.2-188.2,406.2C-188.3,406.2-188.3,406.3-188.2,406.2L-188.2,406.2c0.3,0.2,0.4,0.4,0.4,0.7
	v0.8v4.2h1.2v-4.5c0-1.1-0.4-1.2-0.8-1.2H-188.2z M-199.3,406.2h-1.1v5.7h1.2v-3.2l1,2.1h0.8l1-2.1v3.2h1.2v-5.7h-1.1l-1.5,3
	L-199.3,406.2z M-202.9,406.2C-203,406.2-203,406.2-202.9,406.2C-203,406.2-203,406.3-202.9,406.2L-202.9,406.2
	c0.3,0.2,0.4,0.4,0.4,0.7v0.8v4.2h1.2v-4.5c0-1.1-0.4-1.2-0.8-1.2H-202.9z M-201.5,384.5c-8.5,12.8-19.7,3.7-33.5,11.8
	c-0.6,1.7-0.9,3.4-0.7,5.2c0,0.2,0,0.3,0.1,0.7c0,0.1,0.2,1.1,0.5,2.2c0.3,0.8,0.6,1.3,0.9,2.1c0.2-0.2,0.4-0.3,0.6-0.5
	c-0.6-0.9-2.7-6.2-0.1-9.3c2.4,0,2.7,6.9,2.3,7.7c0,0,1.1-0.8,1.6-1c-0.5-0.2-2.4-6.3,0.7-8.8c0,0,2.8,1.1,1.6,7.5
	c0.5-0.3,1.1-0.6,1.8-0.9c-0.4-0.6-2.2-5.2,0.8-7.6c1.6,0.7,1.5,5.7,0.9,6.8c0.5-0.2,1.1-0.5,1.6-0.8c-1-0.4-0.9-5.1,0.7-6.4
	c1.8,1.7,1.3,4.5,0.9,5.7c0,0,1.4-0.6,1.3-0.6c-1.1-2-0.6-4.4,0.6-5.4c0.9,0.6,1.1,2.2,0.7,4.8c0.4-0.2,0.6-0.3,1-0.4
	c-0.2-0.4-0.8-3.2,0.7-4.6c1.4,0.7,0.9,3.7,0.8,4l0.8-0.3c-0.3-0.6-0.5-2.8,0.8-3.9c0.5,0.4,1.1,1.4,0.6,3.3
	c0.3-0.1,0.6-0.3,0.9-0.4c-0.4-0.5-0.1-2.5,0.5-3.2c0.8,0.3,1.1,2.1,0.8,2.6c0.2-0.1,0.5-0.2,0.8-0.4c-0.3-0.4-0.3-2.2,0.4-2.7
	c0.8,0.5,0.7,1.9,0.7,2.2c0.2-0.1,0.9-0.5,0.8-0.5c-0.4-0.4-0.6-1.6,0.3-2.3c0.8,0.2,0.8,1.6,0.7,1.7c0.3-0.2,0.8-0.6,1-0.7
	c-0.7-0.2-0.6-1.3-0.2-1.8c0.5,0.1,0.8,0.4,1,1.2c0.2-0.2,0.6-0.5,0.8-0.7c-0.4,0-1-1-0.3-1.6c0.2,0.1,0.8,0.3,0.9,1
	c0.1-0.1,0.4-0.5,0.5-0.5c-0.3-0.1-0.6-1-0.3-1.4c0.4,0,0.8,0.5,0.8,0.8l0.4-0.6c-0.2-0.2-0.7-0.7-0.3-1.2c0.5,0,0.6,0.4,0.7,0.7
	c-4.7,9.1-23.5,10.7-33.4,21.7c0,0-1,1.1-1,1.6v3.7h0.2c0.5-1.4,2.1-4.9,5.3-7.5c0.1-0.1,1.4,5.3,8.8,4.3c-1.4-3.5-6-5.7-7-5.8
	c0.2-0.2,1.5-1.1,1.7-1.2c-0.3,0.9,4,4.9,7.2,3.8c-0.9-2.7-4.5-4.9-5.4-4.9c0.4-0.2,0.8-0.5,1.2-0.7c-0.2,0.5,2.9,3.5,6.2,3.3
	c0-1.6-3.6-4.6-4.3-4.3c0.3-0.2,0.8-0.5,1-0.6c0.5,1.1,3.5,3.4,5.7,3c-1.7-3.7-3.9-3.9-4-3.9c0.6-0.3,0.9-0.5,1-0.5
	c0,1,3,3.2,5.1,2.7c-0.4-1.6-2.1-3.2-3.7-3.4c0.4-0.2,0.8-0.4,1.1-0.5c-0.1,0.2,2.5,2.4,4.9,2.2c-1.2-2.8-2.8-2.9-3.3-3
	c0.3-0.1,0.7-0.3,1-0.5c0.1,0.4,1.5,2.2,4.6,1.8c-0.8-1.7-2.5-2.3-3.4-2.4c0.5-0.3,0.8-0.4,1.1-0.6c0.2,0.3,1,1.9,4.3,1.3
	c-0.7-1.6-2.2-2-2.8-2.1c0.3-0.2,0.6-0.3,0.8-0.5c0.2,0.4,1.9,1.6,3.6,1.1c-0.3-1-1.6-1.6-2.7-1.6c0.5-0.3,1-0.7,0.9-0.6
	c0.2,0.4,1.1,1.3,3.4,0.7c-0.7-1.4-2.6-1.2-2.6-1.2c0.4-0.3,0.6-0.4,0.9-0.7c0,0,1.1,1.5,2.9,0.5c-0.5-0.8-1.4-1.3-2.2-1.1
	c0.2-0.2,0.5-0.4,0.7-0.6c-0.1,0.2,1.4,1,2.6,0c-0.6-0.6-1.3-0.7-2-0.7c0.1-0.2,0.2-0.2,0.4-0.4c0,0,1.1,0.8,2.2-0.2
	c-0.9-0.6-1.9-0.2-1.9-0.2l0.4-0.6c0.2,0.2,1.4,0.5,1.8-0.3c-0.4-0.3-1.4-0.2-1.6-0.1c0,0,0.1-0.3,0.2-0.4
	C-200.2,388.5-201,385.9-201.5,384.5 M-198.9,403.9h1.3v-7h-1.4v4.2l-2.7-4.2h-1.3v7h1.4v-4.2L-198.9,403.9z M-196.2,385.8h0.4v-0.2
	h-1.1v0.2h0.4v1.2h0.3C-196.2,387-196.2,385.8-196.2,385.8z M-194.6,387h0.3v-1.4h-0.3l-0.4,0.8l-0.4-0.8h-0.3v1.5h0.3v-1l0.3,0.6
	h0.2l0.3-0.6C-194.6,386.1-194.6,387-194.6,387z M-193.8,386.2c0,1-0.8,1.8-1.7,1.8c-1,0-1.8-0.8-1.8-1.7c0-1,0.8-1.8,1.7-1.8
	C-194.6,384.4-193.8,385.2-193.8,386.2 M-193.6,386.2c0-1.1-1-2-2.1-2s-2,0.9-2,2.1c0,1.1,1,2,2.1,2
	C-194.4,388.2-193.5,387.3-193.6,386.2 M-194.8,403.9h3.3v-1.3h-2.5c-0.2,0-0.4,0-0.5-0.2c-0.1-0.1-0.2-0.4-0.2-0.6V401h2.7v-1.3
	h-2.7v-1.5h3.2v-1.3h-4.6v4.7c0,0.5,0,1.4,0.2,1.8C-195.7,403.8-195.4,403.9-194.8,403.9 M-190.1,406.2l-1.5,3l-1.4-3h-1.1v5.7h1.1
	v-3.2l1,2.1h0.8l1-2.1v3.2h1.2v-5.7H-190.1z M-183.8,403.9l1.9-7h-1.5l-1.1,4.3l-1.2-4.3h-1.1l-1.3,4.3l-0.8-3.3
	c-0.2-0.6-0.6-1-1.2-1h-0.9l0,0l0,0l0,0c0.4,0.2,0.6,0.3,0.7,0.9l1.6,6h1.2l1.3-4.1l1.3,4.1h1.1V403.9z M-182,411.2
	c0.4-0.4,0.5-0.9,0.5-1.7v-0.8h-2.1v1h1v0.2c0,0.2,0,0.5-0.2,0.7c-0.2,0.2-0.4,0.3-0.7,0.3s-0.5-0.1-0.7-0.3
	c-0.2-0.2-0.3-0.5-0.3-1.6c0-1.1,0.1-1.3,0.3-1.6c0.2-0.2,0.4-0.3,0.7-0.3c0.4,0,0.6,0.2,1,0.5l0,0l0.8-0.8l0,0
	c-0.5-0.5-1-0.7-1.7-0.7c-0.6,0-1.1,0.2-1.5,0.6c-0.6,0.6-0.6,1.2-0.6,2.2v0.1v0.1c0,0.9,0,1.6,0.6,2.2c0.4,0.4,0.9,0.6,1.5,0.6
	C-183,411.9-182.5,411.7-182,411.2 M-178.4,407.2c0.5,0,0.8,0.3,0.8,0.7c0,0.4-0.3,0.7-0.8,0.7h-1v-1.4H-178.4z M-178.3,406.2h-2.2
	v5.7h1.2v-2.3h0.8l1.1,2.3h1.3l-1.3-2.5c0.6-0.2,1-0.8,1-1.5C-176.5,406.9-177.2,406.2-178.3,406.2 M-179.8,403.9h4.6v-1.3h-3
	l2.5-3.9c0.3-0.5,0.4-1,0.5-1.5v-0.4h-4.5v1.4h2.8l-2.9,4.6V403.9z M-174.1,403.9h4.6v-1.3h-3.2V401h2.7v-1.3h-2.7v-0.8
	c0-0.2,0-0.5,0.2-0.6s0.4-0.1,0.5-0.1h2.5v-1.3h-3.3c-0.6,0-0.9,0.2-1.2,0.6c-0.2,0.4-0.2,1.3-0.2,1.8L-174.1,403.9L-174.1,403.9z
	 M-164.7,401.5h-1.6l0.8-2.4L-164.7,401.5z M-164,403.9h1.5l-2.3-6.3c-0.2-0.5-0.4-0.7-0.8-0.7h-0.5l-2.6,7h1.5l0.4-1.2h2.4
	L-164,403.9z M-161.7,403.9h4.6v-1.3h-3.2v-4.2c0-1.3-0.5-1.5-1-1.5h-0.8l0,0l0,0l0,0c0.3,0.2,0.5,0.4,0.5,0.8l0,0L-161.7,403.9
	L-161.7,403.9z M-152.8,401.5h-1.6l0.8-2.4L-152.8,401.5z M-152,403.9h1.5l-2.3-6.3c-0.2-0.5-0.4-0.7-0.8-0.7h-0.5l-2.6,7h1.5
	l0.4-1.2h2.4L-152,403.9z M-145.6,403.9h1.3v-5.5c0-1-0.3-1.5-1-1.5h-0.8l0,0l0,0l0,0c0.3,0.1,0.4,0.3,0.4,0.7v2.4v1l-2.7-4.2h-1.3
	v7h1.4v-4.2L-145.6,403.9z M-139.2,400.4c0,1.1,0,1.5-0.3,1.8c-0.2,0.3-0.6,0.4-1,0.4h-1v-4.4h1c0.4,0,0.8,0.1,1,0.4
	C-139.3,398.9-139.2,399.3-139.2,400.4 M-137.8,400.7v-0.5c0-0.9,0-1.8-0.7-2.5c-0.4-0.4-1.1-0.7-1.9-0.7h-2.5v7h2.5
	c0.8,0,1.4-0.2,1.9-0.7C-137.8,402.5-137.8,401.6-137.8,400.7"/>
</svg>
