<?xml version="1.0" encoding="UTF-8" standalone="no"?>
<svg width="170px" height="18px" viewBox="0 0 170 18" version="1.1" xmlns="http://www.w3.org/2000/svg" xmlns:xlink="http://www.w3.org/1999/xlink" xmlns:sketch="http://www.bohemiancoding.com/sketch/ns">
    <!-- Generator: Sketch 3.2.2 (9983) - http://www.bohemiancoding.com/sketch -->
    <title>Slice 1</title>
    <desc>Created with Sketch.</desc>
    <defs></defs>
    <g id="Page-1" stroke="none" stroke-width="1" fill="none" fill-rule="evenodd" sketch:type="MSPage">
        <path d="M0,16.462 C0,16.462 21.438,14.042 41.716,14.042 C62.426,14.042 83.992,16.462 83.992,16.462 L83.992,17.316 C83.992,17.316 62.284,15.022 41.718,15.022 C21.438,15.022 0,17.316 0,17.316 L0,16.462 L0,16.462 Z M8.244,12.514 L6.398,12.514 L3.152,5.952 C2.524,4.678 1.88,3.28 1.646,2.564 L1.538,2.582 C1.628,3.638 1.664,4.876 1.682,6.024 L1.754,12.514 L1.076,12.514 C0.294,12.514 0.014,11.758 0.014,10.904 L0.014,0.16 L2.022,0.16 L5.466,6.974 C5.986,7.996 6.594,9.592 6.684,9.932 L6.792,9.896 C6.756,9.538 6.612,7.584 6.612,6.222 L6.576,0.16 L8.244,0.16 L8.244,12.514 L8.244,12.514 Z M38.978,11.226 L38.548,12.66 L31.178,12.66 L31.178,11.334 L36.162,3.46 C36.432,2.994 36.79,2.51 37.042,2.186 C36.682,2.222 36.234,2.24 35.624,2.24 L31.394,2.24 L31.806,0.806 L38.906,0.806 L38.906,2.186 L33.976,10.06 C33.706,10.528 33.42,10.886 33.204,11.244 C33.582,11.226 33.994,11.226 34.442,11.226 L38.978,11.226 L38.978,11.226 Z M95.672,11.56 C94.668,12.188 93.322,12.546 92.014,12.546 C90.364,12.546 89.056,11.992 88.106,10.88 C87.12,9.732 86.672,8.28 86.672,6.254 C86.672,4.538 87.388,2.574 88.804,1.408 C89.702,0.674 90.688,0.352 91.906,0.352 C93.252,0.352 94.434,0.746 95.402,1.588 L94.578,2.664 C93.664,2 92.892,1.732 91.942,1.732 C90.76,1.732 89.882,2.226 89.288,3.31 C88.858,4.098 88.608,4.872 88.608,6.344 C88.608,8.046 88.912,9.32 89.486,10.072 C90.024,10.772 91.082,11.184 92.14,11.184 C92.838,11.184 93.466,11.004 93.968,10.718 L93.968,7.204 L91.692,7.204 L91.404,5.788 L95.672,5.788 L95.672,11.56 L95.672,11.56 Z M104.66,7.958 C104.66,10.808 103.136,12.618 100.752,12.618 C98.35,12.618 96.86,10.79 96.86,7.866 C96.86,4.962 98.35,3.134 100.716,3.134 C103.37,3.134 104.66,5.25 104.66,7.958 L104.66,7.958 Z M102.814,8.028 C102.814,5.25 102.008,4.406 100.716,4.406 C99.282,4.406 98.69,5.428 98.69,7.688 C98.69,10.432 99.39,11.346 100.788,11.346 C102.042,11.346 102.814,10.378 102.814,8.028 L102.814,8.028 Z M112.908,3.384 L109.628,12.44 L108.084,12.44 L104.876,3.42 L106.578,3.152 L108.354,8.584 C108.552,9.194 108.748,9.912 108.892,10.52 C109.036,9.984 109.214,9.284 109.466,8.548 L111.168,3.384 L112.908,3.384 L112.908,3.384 Z M120.416,8.226 L114.946,8.226 L114.946,8.442 C114.946,9.212 115.054,9.804 115.324,10.234 C115.79,10.952 116.524,11.292 117.386,11.292 C118.228,11.292 118.946,11.004 119.59,10.432 L120.218,11.418 C119.34,12.188 118.282,12.564 117.116,12.564 C114.624,12.564 113.1,10.754 113.1,7.814 C113.1,6.254 113.406,5.25 114.176,4.336 C114.894,3.492 115.772,3.098 116.884,3.098 C117.888,3.098 118.694,3.42 119.322,4.066 C120.112,4.872 120.398,5.878 120.416,7.94 L120.416,8.226 L120.416,8.226 Z M118.694,7.006 C118.694,6.146 118.498,5.428 118.138,4.98 C117.852,4.622 117.42,4.352 116.848,4.352 C115.592,4.352 114.964,5.374 114.964,7.006 L118.694,7.006 L118.694,7.006 Z M126.408,3.188 L125.834,4.838 C125.674,4.784 125.548,4.748 125.368,4.748 C124.364,4.748 123.504,5.59 123.504,6.576 L123.504,12.368 L121.854,12.368 L121.854,5.77 C121.854,4.676 121.728,4.084 121.514,3.528 L123.11,3.116 C123.27,3.456 123.414,4.048 123.414,4.496 L123.414,4.658 C124.132,3.618 124.902,3.098 125.852,3.098 C126.068,3.098 126.264,3.134 126.408,3.188 L126.408,3.188 Z M134.282,12.368 L132.65,12.368 L132.65,6.308 C132.65,5.5 132.578,5.214 132.364,4.926 C132.184,4.694 131.862,4.568 131.45,4.568 C130.804,4.568 129.836,5.07 129.226,5.716 L129.226,12.368 L127.594,12.368 L127.594,5.68 C127.594,4.604 127.504,4.192 127.254,3.546 L128.814,3.116 C129.028,3.546 129.118,3.94 129.118,4.496 C129.638,4.066 129.908,3.834 130.284,3.618 C130.804,3.312 131.396,3.17 131.952,3.17 C132.902,3.17 133.744,3.672 134.068,4.442 C134.21,4.766 134.282,5.16 134.282,5.572 L134.282,12.368 L134.282,12.368 Z M147.19,12.368 L145.56,12.368 L145.56,5.932 C145.56,4.908 145.236,4.55 144.484,4.55 C143.658,4.55 143.066,5.088 142.386,5.77 L142.386,12.368 L140.772,12.368 L140.772,5.966 C140.772,4.962 140.486,4.586 139.66,4.586 C139.052,4.586 138.37,4.89 137.598,5.626 L137.598,12.368 L135.966,12.368 L135.966,5.77 C135.966,4.496 135.894,4.156 135.644,3.528 L137.186,3.152 C137.366,3.456 137.49,3.904 137.49,4.406 C138.262,3.6 139.176,3.134 140.018,3.134 C140.862,3.134 141.704,3.582 142.152,4.55 C143.05,3.6 143.982,3.134 144.896,3.134 C146.294,3.134 147.19,4.012 147.19,5.662 L147.19,12.368 L147.19,12.368 Z M155.778,8.226 L150.31,8.226 L150.31,8.442 C150.31,9.212 150.418,9.804 150.686,10.234 C151.152,10.952 151.886,11.292 152.748,11.292 C153.59,11.292 154.308,11.004 154.954,10.432 L155.58,11.418 C154.702,12.188 153.644,12.564 152.478,12.564 C149.986,12.564 148.462,10.754 148.462,7.814 C148.462,6.254 148.768,5.25 149.538,4.336 C150.256,3.492 151.134,3.098 152.246,3.098 C153.25,3.098 154.056,3.42 154.684,4.066 C155.474,4.872 155.76,5.878 155.778,7.94 L155.778,8.226 L155.778,8.226 Z M154.056,7.006 C154.056,6.146 153.86,5.428 153.5,4.98 C153.214,4.622 152.784,4.352 152.21,4.352 C150.956,4.352 150.328,5.374 150.328,7.006 L154.056,7.006 L154.056,7.006 Z M163.904,12.368 L162.272,12.368 L162.272,6.308 C162.272,5.5 162.202,5.214 161.986,4.926 C161.806,4.694 161.484,4.568 161.072,4.568 C160.426,4.568 159.458,5.07 158.848,5.716 L158.848,12.368 L157.216,12.368 L157.216,5.68 C157.216,4.604 157.128,4.192 156.876,3.546 L158.436,3.116 C158.65,3.546 158.74,3.94 158.74,4.496 C159.26,4.066 159.53,3.834 159.906,3.618 C160.426,3.312 161.018,3.17 161.574,3.17 C162.524,3.17 163.366,3.672 163.69,4.442 C163.832,4.766 163.904,5.16 163.904,5.572 L163.904,12.368 L163.904,12.368 Z M169.978,3.384 L169.53,4.55 L167.756,4.55 L167.756,9.966 C167.756,11.076 168.024,11.418 168.92,11.418 C169.226,11.418 169.476,11.364 169.764,11.238 L169.96,12.242 C169.458,12.492 168.92,12.618 168.328,12.618 C167.736,12.618 167.092,12.44 166.804,12.17 C166.428,11.83 166.142,11.65 166.142,10.342 L166.142,4.55 L165.066,4.55 L165.066,3.384 L166.142,3.384 C166.142,2.686 166.158,1.772 166.25,1.09 L167.952,0.696 C167.88,1.34 167.792,2.47 167.792,3.384 L169.978,3.384 L169.978,3.384 Z M16.814,8.224 L11.318,8.224 L11.318,8.44 C11.318,9.214 11.426,9.81 11.696,10.242 C12.164,10.962 12.902,11.304 13.768,11.304 C14.614,11.304 15.336,11.016 15.984,10.44 L16.616,11.43 C15.732,12.206 14.668,12.584 13.498,12.584 C10.994,12.584 9.462,10.764 9.462,7.81 C9.462,6.242 9.768,5.232 10.542,4.314 C11.264,3.466 12.146,3.07 13.264,3.07 C14.272,3.07 15.084,3.394 15.714,4.044 C16.508,4.854 16.796,5.864 16.814,7.936 L16.814,8.224 L16.814,8.224 Z M15.084,6.998 C15.084,6.134 14.886,5.412 14.526,4.962 C14.236,4.602 13.804,4.332 13.228,4.332 C11.966,4.332 11.336,5.358 11.336,6.998 L15.084,6.998 L15.084,6.998 Z M29.268,3.358 L26.746,12.458 L25.142,12.458 L23.826,7.538 C23.664,6.908 23.268,5.412 23.268,5.412 L23.214,5.412 C23.214,5.412 22.854,6.944 22.728,7.43 L21.376,12.458 L19.79,12.458 L17.322,3.43 L18.998,3.16 L20.15,8.224 C20.348,9.124 20.62,10.44 20.62,10.44 L20.674,10.44 C20.674,10.44 20.872,9.16 21.088,8.386 L22.456,3.358 L24.168,3.358 L25.43,8.242 C25.682,9.214 25.934,10.35 25.934,10.44 L26.006,10.44 C26.006,10.35 26.294,8.89 26.422,8.296 L27.538,3.358 L29.268,3.358 L29.268,3.358 Z M46.08,8.224 L40.584,8.224 L40.584,8.44 C40.584,9.214 40.692,9.81 40.962,10.242 C41.43,10.962 42.168,11.304 43.034,11.304 C43.88,11.304 44.602,11.016 45.25,10.44 L45.882,11.43 C44.998,12.206 43.936,12.584 42.764,12.584 C40.26,12.584 38.728,10.764 38.728,7.81 C38.728,6.242 39.034,5.232 39.808,4.314 C40.53,3.466 41.412,3.07 42.53,3.07 C43.538,3.07 44.35,3.394 44.98,4.044 C45.774,4.854 46.062,5.864 46.08,7.936 L46.08,8.224 L46.08,8.224 Z M44.35,6.998 C44.35,6.134 44.152,5.412 43.792,4.962 C43.502,4.602 43.07,4.332 42.494,4.332 C41.232,4.332 40.602,5.358 40.602,6.998 L44.35,6.998 L44.35,6.998 Z M54.588,11.646 L53.742,12.764 C53.182,12.548 52.75,12.098 52.534,11.468 C52.3,11.754 51.544,12.656 49.976,12.656 C48.174,12.656 47.056,11.738 47.056,10.008 C47.056,7.918 48.732,6.8 51.652,6.8 C51.866,6.8 52.048,6.8 52.282,6.818 L52.282,6.224 C52.282,5.16 52.138,4.44 50.876,4.44 C49.922,4.44 48.84,4.908 48.102,5.466 L47.344,4.278 C48.228,3.774 49.38,3.088 51.128,3.088 C52.444,3.088 53.398,3.574 53.742,4.53 C53.886,4.926 53.922,5.232 53.922,6.116 C53.922,6.764 53.85,8.152 53.85,9.466 C53.85,10.71 53.886,11.214 54.588,11.646 L54.588,11.646 Z M52.246,7.952 C51.994,7.936 51.85,7.918 51.704,7.918 C50.462,7.918 49.706,8.152 49.344,8.566 C49.002,8.962 48.876,9.286 48.876,9.882 C48.876,10.872 49.38,11.448 50.3,11.448 C51.056,11.448 51.778,10.98 52.192,10.26 L52.246,7.952 L52.246,7.952 Z M58.552,12.368 C58.21,12.512 57.922,12.566 57.524,12.566 C56.876,12.566 56.462,12.368 56.12,11.882 C55.85,11.502 55.776,11.196 55.776,10.314 L55.776,2.954 C55.776,1.676 55.722,1.064 55.578,0.36 L57.308,0 C57.472,0.594 57.472,1.46 57.472,2.576 L57.472,9.882 C57.472,10.836 57.524,11.052 57.704,11.214 C57.814,11.34 58.066,11.394 58.264,11.34 L58.552,12.368 L58.552,12.368 Z M66.776,11.646 L65.928,12.764 C65.37,12.548 64.938,12.098 64.722,11.468 C64.488,11.754 63.73,12.656 62.162,12.656 C60.36,12.656 59.244,11.738 59.244,10.008 C59.244,7.918 60.92,6.8 63.838,6.8 C64.054,6.8 64.236,6.8 64.468,6.818 L64.468,6.224 C64.468,5.16 64.324,4.44 63.064,4.44 C62.108,4.44 61.028,4.908 60.288,5.466 L59.532,4.278 C60.414,3.774 61.568,3.088 63.316,3.088 C64.63,3.088 65.586,3.574 65.928,4.53 C66.072,4.926 66.108,5.232 66.108,6.116 C66.108,6.764 66.036,8.152 66.036,9.466 C66.036,10.71 66.072,11.214 66.776,11.646 L66.776,11.646 Z M64.432,7.952 C64.18,7.936 64.036,7.918 63.892,7.918 C62.65,7.918 61.892,8.152 61.532,8.566 C61.19,8.962 61.064,9.286 61.064,9.882 C61.064,10.872 61.568,11.448 62.488,11.448 C63.244,11.448 63.964,10.98 64.378,10.26 L64.432,7.952 L64.432,7.952 Z M83.696,12.386 L82.11,12.386 C82.02,12.116 82.002,11.99 81.948,11.538 C81.318,12.206 80.578,12.53 79.624,12.53 C77.318,12.53 75.966,10.8 75.966,7.952 C75.966,6.008 76.632,4.512 77.858,3.72 C78.416,3.358 78.976,3.196 79.624,3.196 C80.488,3.196 81.208,3.504 81.822,4.242 C81.822,3.99 81.786,2.61 81.786,1.998 L81.786,0.128 L83.444,0.398 L83.444,9.358 C83.444,10.818 83.498,11.828 83.696,12.386 L83.696,12.386 Z M81.768,10.098 L81.768,5.376 C81.3,4.818 80.706,4.53 79.858,4.53 C79.174,4.53 78.632,4.872 78.29,5.448 C77.948,6.044 77.822,6.764 77.822,7.936 C77.822,9.684 78.038,10.17 78.524,10.674 C78.83,10.998 79.246,11.142 79.858,11.142 C80.812,11.142 81.462,10.638 81.768,10.098 L81.768,10.098 Z M74.546,12.386 L72.906,12.386 L72.906,6.296 C72.906,5.484 72.834,5.196 72.618,4.908 C72.438,4.674 72.114,4.548 71.7,4.548 C71.05,4.548 70.078,5.052 69.466,5.702 L69.466,12.386 L68.632,12.386 C68.106,12.386 67.826,11.992 67.826,11.374 L67.826,5.664 C67.826,4.584 67.736,4.17 67.482,3.52 L69.05,3.088 C69.266,3.52 69.358,3.918 69.358,4.476 C69.88,4.044 70.15,3.81 70.528,3.592 C71.05,3.286 71.646,3.142 72.204,3.142 C73.158,3.142 74.006,3.646 74.33,4.422 C74.474,4.746 74.546,5.142 74.546,5.556 L74.546,12.386 L74.546,12.386 Z" id="Imported-Layers" opacity="0.799999952" fill="#FFFFFF" sketch:type="MSShapeGroup"></path>
    </g>
</svg>