<?xml version="1.0" encoding="utf-8"?>
<!-- Generator: Adobe Illustrator 19.1.0, SVG Export Plug-In . SVG Version: 6.00 Build 0)  -->
<svg version="1.1" id="Layer_1" xmlns:sketch="http://www.bohemiancoding.com/sketch/ns"
	 xmlns="http://www.w3.org/2000/svg" xmlns:xlink="http://www.w3.org/1999/xlink" x="0px" y="0px" viewBox="-394 272 170 18"
	 style="enable-background:new -394 272 170 18;" xml:space="preserve">
<style type="text/css">
	.st0{opacity:0.8;fill:#0E7AC3;enable-background:new    ;}
</style>
<title>Slice 1</title>
<desc>Created with Sketch.</desc>
<g id="Page-1" sketch:type="MSPage">
	<path id="Imported-Layers" sketch:type="MSShapeGroup" class="st0" d="M-394,288.5c0,0,21.4-2.4,41.7-2.4c20.7,0,42.3,2.4,42.3,2.4
		v0.9c0,0-21.7-2.3-42.3-2.3c-20.3,0-41.7,2.3-41.7,2.3V288.5L-394,288.5z M-385.8,284.5h-1.8l-3.2-6.6c-0.6-1.3-1.3-2.7-1.5-3.4
		l-0.1,0c0.1,1.1,0.1,2.3,0.1,3.4l0.1,6.5h-0.7c-0.8,0-1.1-0.8-1.1-1.6v-10.7h2l3.4,6.8c0.5,1,1.1,2.6,1.2,3l0.1,0
		c0-0.4-0.2-2.3-0.2-3.7l0-6.1h1.7V284.5L-385.8,284.5z M-355,283.2l-0.4,1.4h-7.4v-1.3l5-7.9c0.3-0.5,0.6-0.9,0.9-1.3
		c-0.4,0-0.8,0.1-1.4,0.1h-4.2l0.4-1.4h7.1v1.4l-4.9,7.9c-0.3,0.5-0.6,0.8-0.8,1.2c0.4,0,0.8,0,1.2,0H-355L-355,283.2z
		 M-298.3,283.6c-1,0.6-2.4,1-3.7,1c-1.6,0-3-0.6-3.9-1.7c-1-1.1-1.4-2.6-1.4-4.6c0-1.7,0.7-3.7,2.1-4.8c0.9-0.7,1.9-1.1,3.1-1.1
		c1.3,0,2.5,0.4,3.5,1.2l-0.8,1.1c-0.9-0.7-1.7-0.9-2.6-0.9c-1.2,0-2.1,0.5-2.7,1.6c-0.4,0.8-0.7,1.6-0.7,3c0,1.7,0.3,3,0.9,3.7
		c0.5,0.7,1.6,1.1,2.7,1.1c0.7,0,1.3-0.2,1.8-0.5v-3.5h-2.3l-0.3-1.4h4.3V283.6L-298.3,283.6z M-289.3,280c0,2.9-1.5,4.7-3.9,4.7
		c-2.4,0-3.9-1.8-3.9-4.8c0-2.9,1.5-4.7,3.9-4.7C-290.6,275.1-289.3,277.2-289.3,280L-289.3,280z M-291.2,280c0-2.8-0.8-3.6-2.1-3.6
		c-1.4,0-2,1-2,3.3c0,2.7,0.7,3.7,2.1,3.7C-292,283.3-291.2,282.4-291.2,280L-291.2,280z M-281.1,275.4l-3.3,9.1h-1.5l-3.2-9
		l1.7-0.3l1.8,5.4c0.2,0.6,0.4,1.3,0.5,1.9c0.1-0.5,0.3-1.2,0.6-2l1.7-5.2H-281.1L-281.1,275.4z M-273.6,280.2h-5.5v0.2
		c0,0.8,0.1,1.4,0.4,1.8c0.5,0.7,1.2,1.1,2.1,1.1c0.8,0,1.6-0.3,2.2-0.9l0.6,1c-0.9,0.8-1.9,1.1-3.1,1.1c-2.5,0-4-1.8-4-4.8
		c0-1.6,0.3-2.6,1.1-3.5c0.7-0.8,1.6-1.2,2.7-1.2c1,0,1.8,0.3,2.4,1c0.8,0.8,1.1,1.8,1.1,3.9V280.2L-273.6,280.2z M-275.3,279
		c0-0.9-0.2-1.6-0.6-2c-0.3-0.4-0.7-0.6-1.3-0.6c-1.3,0-1.9,1-1.9,2.7H-275.3L-275.3,279z M-267.6,275.2l-0.6,1.7
		c-0.2-0.1-0.3-0.1-0.5-0.1c-1,0-1.9,0.8-1.9,1.8v5.8h-1.6v-6.6c0-1.1-0.1-1.7-0.3-2.2l1.6-0.4c0.2,0.3,0.3,0.9,0.3,1.4v0.2
		c0.7-1,1.5-1.6,2.4-1.6C-267.9,275.1-267.7,275.1-267.6,275.2L-267.6,275.2z M-259.7,284.4h-1.6v-6.1c0-0.8-0.1-1.1-0.3-1.4
		c-0.2-0.2-0.5-0.4-0.9-0.4c-0.6,0-1.6,0.5-2.2,1.1v6.7h-1.6v-6.7c0-1.1-0.1-1.5-0.3-2.1l1.6-0.4c0.2,0.4,0.3,0.8,0.3,1.4
		c0.5-0.4,0.8-0.7,1.2-0.9c0.5-0.3,1.1-0.4,1.7-0.4c0.9,0,1.8,0.5,2.1,1.3c0.1,0.3,0.2,0.7,0.2,1.1V284.4L-259.7,284.4z
		 M-246.8,284.4h-1.6v-6.4c0-1-0.3-1.4-1.1-1.4c-0.8,0-1.4,0.5-2.1,1.2v6.6h-1.6V278c0-1-0.3-1.4-1.1-1.4c-0.6,0-1.3,0.3-2.1,1v6.7
		h-1.6v-6.6c0-1.3-0.1-1.6-0.3-2.2l1.5-0.4c0.2,0.3,0.3,0.8,0.3,1.3c0.8-0.8,1.7-1.3,2.5-1.3c0.8,0,1.7,0.4,2.1,1.4
		c0.9-0.9,1.8-1.4,2.7-1.4c1.4,0,2.3,0.9,2.3,2.5V284.4L-246.8,284.4z M-238.2,280.2h-5.5v0.2c0,0.8,0.1,1.4,0.4,1.8
		c0.5,0.7,1.2,1.1,2.1,1.1c0.8,0,1.6-0.3,2.2-0.9l0.6,1c-0.9,0.8-1.9,1.1-3.1,1.1c-2.5,0-4-1.8-4-4.8c0-1.6,0.3-2.6,1.1-3.5
		c0.7-0.8,1.6-1.2,2.7-1.2c1,0,1.8,0.3,2.4,1c0.8,0.8,1.1,1.8,1.1,3.9V280.2L-238.2,280.2z M-239.9,279c0-0.9-0.2-1.6-0.6-2
		c-0.3-0.4-0.7-0.6-1.3-0.6c-1.3,0-1.9,1-1.9,2.7H-239.9L-239.9,279z M-230.1,284.4h-1.6v-6.1c0-0.8-0.1-1.1-0.3-1.4
		c-0.2-0.2-0.5-0.4-0.9-0.4c-0.6,0-1.6,0.5-2.2,1.1v6.7h-1.6v-6.7c0-1.1-0.1-1.5-0.3-2.1l1.6-0.4c0.2,0.4,0.3,0.8,0.3,1.4
		c0.5-0.4,0.8-0.7,1.2-0.9c0.5-0.3,1.1-0.4,1.7-0.4c0.9,0,1.8,0.5,2.1,1.3c0.1,0.3,0.2,0.7,0.2,1.1V284.4L-230.1,284.4z M-224,275.4
		l-0.4,1.2h-1.8v5.4c0,1.1,0.3,1.5,1.2,1.5c0.3,0,0.6-0.1,0.8-0.2l0.2,1c-0.5,0.2-1,0.4-1.6,0.4c-0.6,0-1.2-0.2-1.5-0.4
		c-0.4-0.3-0.7-0.5-0.7-1.8v-5.8h-1.1v-1.2h1.1c0-0.7,0-1.6,0.1-2.3l1.7-0.4c-0.1,0.6-0.2,1.8-0.2,2.7H-224L-224,275.4z
		 M-377.2,280.2h-5.5v0.2c0,0.8,0.1,1.4,0.4,1.8c0.5,0.7,1.2,1.1,2.1,1.1c0.8,0,1.6-0.3,2.2-0.9l0.6,1c-0.9,0.8-1.9,1.2-3.1,1.2
		c-2.5,0-4-1.8-4-4.8c0-1.6,0.3-2.6,1.1-3.5c0.7-0.8,1.6-1.2,2.7-1.2c1,0,1.8,0.3,2.4,1c0.8,0.8,1.1,1.8,1.1,3.9V280.2L-377.2,280.2
		z M-378.9,279c0-0.9-0.2-1.6-0.6-2c-0.3-0.4-0.7-0.6-1.3-0.6c-1.3,0-1.9,1-1.9,2.7H-378.9L-378.9,279z M-364.7,275.4l-2.5,9.1h-1.6
		l-1.3-4.9c-0.2-0.6-0.6-2.1-0.6-2.1h-0.1c0,0-0.4,1.5-0.5,2l-1.4,5h-1.6l-2.5-9l1.7-0.3l1.2,5.1c0.2,0.9,0.5,2.2,0.5,2.2h0.1
		c0,0,0.2-1.3,0.4-2.1l1.4-5h1.7l1.3,4.9c0.3,1,0.5,2.1,0.5,2.2h0.1c0-0.1,0.3-1.5,0.4-2.1l1.1-4.9H-364.7L-364.7,275.4z
		 M-347.9,280.2h-5.5v0.2c0,0.8,0.1,1.4,0.4,1.8c0.5,0.7,1.2,1.1,2.1,1.1c0.8,0,1.6-0.3,2.2-0.9l0.6,1c-0.9,0.8-1.9,1.2-3.1,1.2
		c-2.5,0-4-1.8-4-4.8c0-1.6,0.3-2.6,1.1-3.5c0.7-0.8,1.6-1.2,2.7-1.2c1,0,1.8,0.3,2.5,1c0.8,0.8,1.1,1.8,1.1,3.9V280.2L-347.9,280.2
		z M-349.6,279c0-0.9-0.2-1.6-0.6-2c-0.3-0.4-0.7-0.6-1.3-0.6c-1.3,0-1.9,1-1.9,2.7H-349.6L-349.6,279z M-339.4,283.6l-0.8,1.1
		c-0.6-0.2-1-0.7-1.2-1.3c-0.2,0.3-1,1.2-2.6,1.2c-1.8,0-2.9-0.9-2.9-2.6c0-2.1,1.7-3.2,4.6-3.2c0.2,0,0.4,0,0.6,0v-0.6
		c0-1.1-0.1-1.8-1.4-1.8c-1,0-2,0.5-2.8,1l-0.8-1.2c0.9-0.5,2-1.2,3.8-1.2c1.3,0,2.3,0.5,2.6,1.4c0.1,0.4,0.2,0.7,0.2,1.6
		c0,0.6-0.1,2-0.1,3.4C-340.1,282.7-340.1,283.2-339.4,283.6L-339.4,283.6z M-341.8,280c-0.3,0-0.4,0-0.5,0c-1.2,0-2,0.2-2.4,0.6
		c-0.3,0.4-0.5,0.7-0.5,1.3c0,1,0.5,1.6,1.4,1.6c0.8,0,1.5-0.5,1.9-1.2L-341.8,280L-341.8,280z M-335.4,284.4
		c-0.3,0.1-0.6,0.2-1,0.2c-0.6,0-1.1-0.2-1.4-0.7c-0.3-0.4-0.3-0.7-0.3-1.6V275c0-1.3-0.1-1.9-0.2-2.6l1.7-0.4
		c0.2,0.6,0.2,1.5,0.2,2.6v7.3c0,1,0.1,1.2,0.2,1.3c0.1,0.1,0.4,0.2,0.6,0.1L-335.4,284.4L-335.4,284.4z M-327.2,283.6l-0.8,1.1
		c-0.6-0.2-1-0.7-1.2-1.3c-0.2,0.3-1,1.2-2.6,1.2c-1.8,0-2.9-0.9-2.9-2.6c0-2.1,1.7-3.2,4.6-3.2c0.2,0,0.4,0,0.6,0v-0.6
		c0-1.1-0.1-1.8-1.4-1.8c-1,0-2,0.5-2.8,1l-0.8-1.2c0.9-0.5,2-1.2,3.8-1.2c1.3,0,2.3,0.5,2.6,1.4c0.1,0.4,0.2,0.7,0.2,1.6
		c0,0.6-0.1,2-0.1,3.4C-328,282.7-327.9,283.2-327.2,283.6L-327.2,283.6z M-329.6,280c-0.3,0-0.4,0-0.5,0c-1.2,0-2,0.2-2.4,0.6
		c-0.3,0.4-0.5,0.7-0.5,1.3c0,1,0.5,1.6,1.4,1.6c0.8,0,1.5-0.5,1.9-1.2L-329.6,280L-329.6,280z M-310.3,284.4h-1.6
		c-0.1-0.3-0.1-0.4-0.2-0.8c-0.6,0.7-1.4,1-2.3,1c-2.3,0-3.7-1.7-3.7-4.6c0-1.9,0.7-3.4,1.9-4.2c0.6-0.4,1.1-0.5,1.8-0.5
		c0.9,0,1.6,0.3,2.2,1c0-0.3,0-1.6,0-2.2v-1.9l1.7,0.3v9C-310.6,282.8-310.5,283.8-310.3,284.4L-310.3,284.4z M-312.2,282.1v-4.7
		c-0.5-0.6-1.1-0.8-1.9-0.8c-0.7,0-1.2,0.3-1.6,0.9c-0.3,0.6-0.5,1.3-0.5,2.5c0,1.7,0.2,2.2,0.7,2.7c0.3,0.3,0.7,0.5,1.3,0.5
		C-313.2,283.1-312.5,282.6-312.2,282.1L-312.2,282.1z M-319.5,284.4h-1.6v-6.1c0-0.8-0.1-1.1-0.3-1.4c-0.2-0.2-0.5-0.4-0.9-0.4
		c-0.7,0-1.6,0.5-2.2,1.2v6.7h-0.8c-0.5,0-0.8-0.4-0.8-1v-5.7c0-1.1-0.1-1.5-0.3-2.1l1.6-0.4c0.2,0.4,0.3,0.8,0.3,1.4
		c0.5-0.4,0.8-0.7,1.2-0.9c0.5-0.3,1.1-0.5,1.7-0.5c1,0,1.8,0.5,2.1,1.3c0.1,0.3,0.2,0.7,0.2,1.1V284.4L-319.5,284.4z"/>
</g>
</svg>
