<svg id="Layer_1" data-name="Layer 1" xmlns="http://www.w3.org/2000/svg" xmlns:xlink="http://www.w3.org/1999/xlink" viewBox="0 0 400 400">
  <defs>
    <style>
      .cls-1, .cls-3, .cls-5, .cls-7, .cls-9 {
        fill: none;
      }

      .cls-2 {
        clip-path: url(#clip-path);
      }

      .cls-3, .cls-5, .cls-7, .cls-9 {
        stroke: #fff;
      }

      .cls-3 {
        stroke-width: 14px;
      }

      .cls-4 {
        clip-path: url(#clip-path-2);
      }

      .cls-5 {
        stroke-linecap: square;
        stroke-width: 8.06px;
      }

      .cls-5, .cls-7 {
        stroke-miterlimit: 10;
      }

      .cls-6 {
        clip-path: url(#clip-path-3);
      }

      .cls-7 {
        stroke-width: 12.25px;
      }

      .cls-8 {
        clip-path: url(#clip-path-4);
      }

      .cls-9 {
        stroke-width: 13.25px;
      }
    </style>
    <clipPath id="clip-path">
      <rect class="cls-1" x="420" y="0.2" width="400" height="400"/>
    </clipPath>
    <clipPath id="clip-path-2">
      <rect class="cls-1" x="420" y="420.2" width="400" height="400"/>
    </clipPath>
    <clipPath id="clip-path-3">
      <rect class="cls-1" y="420" width="400" height="400"/>
    </clipPath>
    <clipPath id="clip-path-4">
      <rect class="cls-1" width="400" height="400"/>
    </clipPath>
  </defs>
  <title>Untitled-2</title>
  <g class="cls-2">
    <rect class="cls-3" x="-425.38" y="-146.15" width="1096.31" height="360.3" transform="translate(11.92 96.77) rotate(-45)"/>
    <rect class="cls-3" x="-378.97" y="-146.14" width="1096.31" height="360.31" transform="translate(25.5 129.6) rotate(-45)"/>
    <rect class="cls-3" x="-332.56" y="-146.12" width="1096.31" height="360.3" transform="translate(39.08 162.42) rotate(-45)"/>
    <rect class="cls-3" x="-286.16" y="-146.1" width="1096.31" height="360.3" transform="translate(52.66 195.24) rotate(-45)"/>
    <rect class="cls-3" x="-239.75" y="-146.08" width="1096.31" height="360.3" transform="translate(66.23 228.06) rotate(-45)"/>
    <rect class="cls-3" x="-193.34" y="-146.06" width="1096.31" height="360.3" transform="translate(79.81 260.88) rotate(-45)"/>
    <rect class="cls-3" x="-57.37" y="-514.06" width="360.31" height="1096.31" transform="translate(11.85 96.8) rotate(-45)"/>
    <rect class="cls-3" x="-10.97" y="-514.08" width="360.31" height="1096.31" transform="translate(25.46 129.61) rotate(-45)"/>
    <rect class="cls-3" x="35.44" y="-514.1" width="360.31" height="1096.31" transform="translate(39.06 162.42) rotate(-45)"/>
    <rect class="cls-3" x="81.85" y="-514.12" width="360.3" height="1096.31" transform="translate(52.67 195.23) rotate(-45)"/>
    <rect class="cls-3" x="128.25" y="-514.14" width="360.31" height="1096.31" transform="translate(66.28 228.04) rotate(-45)"/>
    <rect class="cls-3" x="174.66" y="-514.16" width="360.31" height="1096.31" transform="translate(79.88 260.85) rotate(-45)"/>
  </g>
  <g class="cls-4">
    <path class="cls-5" d="M320.93,520.2a44.6,44.6,0,1,1,43-21.4m15-6.49a55.77,55.77,0,0,1-81.76,31.44m-10.92-8.5a55.75,55.75,0,0,1,21.18-92.1m85.5,92.23a78,78,0,0,1-145.28-39.54m120.63-65.36a78.14,78.14,0,0,1,31.65,89.32m-148-49.51a78.12,78.12,0,0,1,84.16-51.78M288.47,556.9a89.42,89.42,0,0,1-47.19-52.17M330.85,576q-2.59.13-5.21,0.13a99.84,99.84,0,0,1-60.72-20.47M422.69,501.2a100.39,100.39,0,0,1-82,73.82m-87.26-29.63a100.29,100.29,0,1,1,172.54-69.54c0,0.85,0,1.7,0,2.54M221.62,515.87A111.57,111.57,0,0,1,252,392.21m117-19a111.87,111.87,0,0,1,50.84,43.2M364.75,592a122.38,122.38,0,0,1-39.1,6.37q-4.77,0-9.46-.36m125.73-83.35a122.94,122.94,0,0,1-59.65,69.88M409.33,386.3a122.21,122.21,0,0,1,38.87,89.54q0,4.17-.28,8.27M281.42,590.18A122.58,122.58,0,1,1,393.59,373.82M271.77,341.36A145,145,0,0,1,442.1,389.71M180.88,480.45q-0.08-2.3-.08-4.61a146.21,146.21,0,0,1,2.08-24.58m35.23,121.61a144.24,144.24,0,0,1-37.23-92.42M468.64,452.7A145,145,0,0,1,309.86,619.83M164.71,430.69a167.48,167.48,0,0,1,84.42-103.45m-40.4,268a167.38,167.38,0,0,1-47.22-150.93M228,611.48a167.89,167.89,0,0,1-19.28-16.24M335.3,642.67q-4.8.27-9.65,0.27A166.36,166.36,0,0,1,228,611.48m57.94-298a167.15,167.15,0,0,1,82.67,323.89m82-288.59a178.6,178.6,0,0,1,50.24,159.78M434.6,334.76a180,180,0,0,1,16.05,14M287,290.41a189.7,189.7,0,0,1,185.49,65.81m-336,110.83A189.51,189.51,0,0,1,261.87,297.46M175,590.66a188.58,188.58,0,0,1-33.56-70.53M435.73,308.22a200.59,200.59,0,0,1,87.62,134M236,296.44A200.95,200.95,0,0,1,412.33,295m112.8,201.37c-10.27,101.11-95.66,180-199.48,180-110.74,0-200.52-89.77-200.52-200.52A199.72,199.72,0,0,1,172,347m371.84,83.75a223.23,223.23,0,0,1-53.91,195.6M442.22,285.95a223.45,223.45,0,0,1,94.17,117.44M302.87,254.2A224.37,224.37,0,0,1,325.64,253a221.87,221.87,0,0,1,98.77,23M464.1,650.4a221.86,221.86,0,0,1-138.45,48.24c-123,0-222.79-99.75-222.79-222.79,0-100.52,66.57-185.49,158-213.23M549.2,576.38a246,246,0,0,1-101.65,112.1m-16.82,8.81a244,244,0,0,1-105.09,23.62c-135.35,0-245.07-109.72-245.07-245.06S190.3,230.78,325.64,230.78c127.77,0,232.71,97.78,244,222.6M561.3,349.5A267.5,267.5,0,0,1,494.59,683M482.84,259.58a268.91,268.91,0,0,1,69.69,74.81M266.13,215.15a268.31,268.31,0,0,1,193.1,29.08M147.87,276.17A268,268,0,0,1,192.39,244m-127,293.4a267.86,267.86,0,0,1,63.15-242.24m272,437.35A267.76,267.76,0,0,1,93.65,608.78m486.68,5A290.71,290.71,0,0,1,435.84,743.75M509.41,252a290.12,290.12,0,0,1,97,295.37M131.44,261A289.95,289.95,0,0,1,438,208.85M40.27,525.51A291.63,291.63,0,0,1,36,475.84a288.64,288.64,0,0,1,80.1-200M174,722.64A290.6,290.6,0,0,1,55.44,580.3M371.59,761.83a291.62,291.62,0,0,1-45.94,3.62A288.4,288.4,0,0,1,196.43,735.1"/>
  </g>
  <g class="cls-6">
    <path class="cls-7" d="M169.71,754.49C147.3,763,124.11,777,99.33,801.77m-326,348.93c-22.4,8.56-45.59,22.52-70.37,47.28M564.49,359.92c-22.4,8.56-45.59,22.52-70.37,47.28M178.55,729.77c-30.4,7.19-61.72,20.75-96.1,55.11M-217.87,1126c-30.4,7.19-61.72,20.75-96.1,55.11M573.33,335.2c-30.4,7.19-61.72,20.75-96.1,55.11M182.71,709.76c-36.78,6.2-74.24,17.12-116.26,59.12M-213.71,1106c-36.78,6.2-74.24,17.12-116.26,59.12M577.49,315.18c-36.77,6.2-74.24,17.12-116.26,59.11M184,689c-43,6.28-86,12.79-135.3,62m-261.12,334.16c-43,6.28-86,12.78-135.3,62M578.76,294.47c-43,6.28-86,12.78-135.3,62M384,490.44c-43.49,6.35-86.94,12.43-136.81,62.26-99.11,99.06-25.34,172.88-124.45,271.93m-135.16,62c-43.49,6.35-86.94,12.43-136.8,62.26-99.11,99.07-25.34,172.88-124.45,271.93M778.76,95.87c-43.49,6.35-86.94,12.43-136.81,62.26C542.84,257.2,616.61,331,517.5,430.06M381,511.4c-36.71,6.21-74.11,17.16-116.05,59.08-99.11,99.06-25.34,172.88-124.45,271.93m-155.92,65.2c-36.71,6.21-74.11,17.16-116.05,59.08-99.11,99.06-25.34,172.88-124.45,271.93M775.78,116.84C739.07,123,701.66,134,659.72,175.92,560.61,275,634.38,348.79,535.27,447.85M374.82,531.92c-29.7,7.33-60.35,21-93.89,54.57-99.11,99.06-25.34,172.87-124.45,271.93M-21.6,928.13c-29.7,7.33-60.34,21-93.89,54.57-99.11,99.06-25.34,172.87-124.45,271.93M769.61,137.35c-29.7,7.33-60.35,21-93.89,54.57C576.61,291,650.38,364.8,551.27,463.85M369.21,555.73c-22.72,8.52-46.24,22.53-71.39,47.66-99.11,99.06-25.34,172.87-124.45,271.93M-27.21,951.93c-22.72,8.52-46.23,22.53-71.39,47.66-99.11,99.06-25.34,172.87-124.45,271.93M764,161.15c-22.72,8.52-46.24,22.53-71.39,47.66-99.11,99.06-25.34,172.87-124.45,271.93m-49-52.34c-24.92,24.9-48.23,38.88-70.75,47.43M122.73,824.61C97.82,849.52,74.5,863.49,52,872M536.93,446.19c-32.89,32.87-63,46.7-92.15,54.14M140.51,842.4c-32.89,32.87-63,46.71-92.16,54.14M552.93,462.2c-41.17,41.15-78,52.46-114,58.74M156.51,858.4c-41.17,41.14-78,52.46-114,58.73m527.32-438c-48.81,48.78-91.47,55.64-134,61.86M173.39,875.3c-48.81,48.78-91.47,55.64-134,61.86M320.66,626.79c-24.48,24.47-47.42,38.39-69.57,47M-75.76,1023c-24.48,24.47-47.42,38.39-69.57,47M715.45,232.22c-24.48,24.47-47.42,38.39-69.57,47M338.44,644.58c-33.7,33.68-64.46,47.37-94.3,54.67M-58,1040.78c-33.7,33.68-64.46,47.37-94.3,54.67M733.22,250c-33.7,33.68-64.46,47.37-94.3,54.67M354.43,660.58C313,702,275.94,713.21,239.63,719.45M-42,1056.79c-41.47,41.44-78.5,52.63-114.8,58.87M749.22,266c-41.46,41.44-78.49,52.63-114.8,58.87m-263.1,352.6c-49.55,49.53-92.77,55.84-136,62.15M-25.1,1073.68c-49.55,49.53-92.77,55.84-136,62.15M766.1,282.91c-49.55,49.53-92.77,55.84-136,62.15m-184.7,9.51C346.3,453.62,420.07,527.43,321,626.49M49,750.77C-50.12,849.83,23.65,923.64-75.46,1022.7M463.19,372.35c-99.11,99.06-25.34,172.87-124.45,271.93m-272,124.28c-99.11,99.06-25.34,172.87-124.45,271.93M479.19,388.35c-99.11,99.06-25.34,172.87-124.45,271.93m-272,124.28c-99.11,99.06-25.34,172.87-124.45,271.93M496.07,405.25C397,504.31,470.73,578.12,371.62,677.18m-272,124.28C0.54,900.51,74.31,974.33-24.8,1073.38m217.14-95.47c-22.4,8.56-45.59,22.52-70.37,47.28M587.12,583.34c-22.4,8.56-45.59,22.51-70.37,47.28M201.18,953.19c-30.4,7.19-61.72,20.75-96.1,55.11M596,558.62c-30.4,7.19-61.72,20.75-96.1,55.11M205.34,933.17c-36.78,6.2-74.24,17.12-116.26,59.12m511-453.68c-36.77,6.2-74.24,17.12-116.26,59.11M206.61,912.46c-43,6.28-86,12.78-135.3,62M601.39,517.89c-43,6.28-86,12.79-135.3,62M406.61,713.85c-43.49,6.35-86.94,12.43-136.81,62.26C170.69,875.18,244.46,949,145.35,1048m-135.16,62c-43.49,6.35-86.94,12.43-136.81,62.26-99.11,99.06-25.34,172.88-124.45,271.93m1052.46-1125c-43.49,6.35-86.94,12.43-136.81,62.26-99.11,99.06-25.34,172.88-124.45,271.93M403.63,734.82C366.92,741,329.52,752,287.58,793.9,188.46,893,262.24,966.78,163.13,1065.83M7.21,1131c-36.71,6.2-74.11,17.16-116.05,59.08C-208,1289.17-134.18,1363-233.29,1462M798.41,340.25c-36.71,6.21-74.11,17.16-116.05,59.08C583.25,498.39,657,572.21,557.91,671.26M397.46,755.33c-29.7,7.33-60.34,21-93.89,54.57C204.46,909,278.23,982.78,179.12,1081.83M1,1151.54c-29.7,7.33-60.35,21-93.89,54.57C-192,1305.17-118.19,1379-217.3,1478M792.24,360.76c-29.7,7.33-60.34,21-93.89,54.57C599.24,514.4,673,588.21,573.91,687.26M391.85,779.14c-22.72,8.52-46.23,22.53-71.38,47.66C221.35,925.86,295.12,999.67,196,1098.73M-4.57,1175.34c-22.72,8.52-46.23,22.53-71.39,47.66-99.11,99.06-25.34,172.87-124.45,271.93m987-1110.37c-22.72,8.52-46.23,22.53-71.38,47.66C616.13,531.29,689.9,605.1,590.79,704.16m-49-52.34c-24.92,24.9-48.23,38.88-70.75,47.43M145.37,1048c-24.92,24.9-48.23,38.88-70.75,47.42M559.57,669.6c-32.89,32.87-63,46.71-92.15,54.14M163.15,1065.81c-32.89,32.87-63,46.71-92.15,54.14M575.56,685.61c-41.17,41.15-78,52.46-114,58.74m-282.4,337.47c-41.17,41.14-78,52.46-114,58.73M343.3,850.21c-24.48,24.47-47.42,38.39-69.57,47M-53.12,1246.41c-24.48,24.47-47.42,38.39-69.57,47M738.08,455.64c-24.48,24.47-47.42,38.39-69.57,47M361.07,868c-33.7,33.68-64.46,47.37-94.3,54.67M-35.35,1264.2c-33.7,33.68-64.47,47.37-94.3,54.67m885.5-845.45c-33.7,33.68-64.46,47.37-94.29,54.67M377.07,884c-41.47,41.44-78.5,52.63-114.8,58.87M-19.35,1280.2c-41.47,41.44-78.5,52.63-114.8,58.87m906-849.64c-41.47,41.44-78.5,52.63-114.8,58.87M468,578C368.94,677,442.71,750.85,343.6,849.9m-272,124.28c-99.11,99.06-25.34,172.87-124.45,271.93M862.83,183.41c-99.11,99.06-25.34,172.87-124.45,271.93M485.82,595.76c-99.11,99.06-25.34,172.87-124.45,271.93M89.41,992C-9.71,1091,64.06,1164.84-35,1263.89M880.61,201.19c-99.11,99.06-25.34,172.87-124.45,271.93M501.82,611.77c-99.11,99.06-25.34,172.87-124.45,271.93M105.4,1008C6.29,1107,80.06,1180.84-19,1279.9M896.61,217.2c-99.11,99.06-25.34,172.87-124.45,271.93M518.71,628.66c-99.11,99.06-25.34,172.87-124.45,271.93m-272,124.28C23.18,1123.93,96.95,1197.74-2.16,1296.8M913.49,234.09C814.38,333.15,888.15,407,789,506M592.45,702.51c-48.81,48.78-91.47,55.64-134,61.86M196,1098.71c-48.81,48.78-91.47,55.64-134,61.87M394,900.89C344.4,950.42,301.18,956.73,258,963M-2.46,1297.1c-49.55,49.53-92.77,55.84-136,62.15m927.2-852.92c-49.55,49.53-92.77,55.84-136,62.15"/>
  </g>
  <g id="tile_motivation">
    <g class="cls-8">
      <line class="cls-9" x1="330.04" y1="272.36" x2="217.79" y2="384.61"/>
      <polygon class="cls-9" points="240.26 456.81 240.26 456.81 129.13 345.68 78.07 396.74 189.2 507.87 240.26 456.81"/>
      <line class="cls-9" x1="215.12" y1="482.73" x2="102.87" y2="370.48"/>
      <polygon class="cls-9" points="81.15 27.91 81.15 27.91 -29.97 139.04 21.08 190.09 132.21 78.97 81.15 27.91"/>
      <line class="cls-9" x1="99.8" y1="45.78" x2="-12.45" y2="158.03"/>
      <line class="cls-9" x1="116.94" y1="62.91" x2="4.69" y2="175.16"/>
      <polygon class="cls-9" points="30.43 31.02 30.43 31.02 -80.7 -80.1 -131.75 -29.05 -20.63 82.08 30.43 31.02"/>
      <line class="cls-9" x1="5.29" y1="56.94" x2="-106.96" y2="-55.31"/>
      <polygon class="cls-9" points="239.91 37.57 239.91 37.57 128.78 -73.56 77.72 -22.5 188.85 88.63 239.91 37.57"/>
      <line class="cls-9" x1="214.77" y1="63.49" x2="102.52" y2="-48.76"/>
      <polygon class="cls-9" points="444.5 36.9 444.5 36.9 333.37 -74.23 282.31 -23.17 393.44 87.96 444.5 36.9"/>
      <line class="cls-9" x1="419.36" y1="62.82" x2="307.11" y2="-49.43"/>
      <polygon class="cls-9" points="30.46 247.02 30.46 247.02 -80.66 135.89 -131.72 186.95 -20.59 298.07 30.46 247.02"/>
      <line class="cls-9" x1="5.32" y1="272.94" x2="-106.93" y2="160.69"/>
      <line class="cls-9" x1="312.9" y1="255.22" x2="200.65" y2="367.47"/>
      <polygon class="cls-9" points="240.22 240.82 240.22 240.82 129.1 129.69 78.04 180.75 189.16 291.88 240.22 240.82"/>
      <line class="cls-9" x1="215.09" y1="266.74" x2="102.84" y2="154.49"/>
      <polygon class="cls-9" points="87.42 237.67 87.42 237.67 -23.71 348.8 27.35 399.86 138.47 288.73 87.42 237.67"/>
      <line class="cls-9" x1="106.07" y1="255.54" x2="-6.18" y2="367.79"/>
      <line class="cls-9" x1="123.2" y1="272.68" x2="10.95" y2="384.93"/>
      <polygon class="cls-9" points="294.25 237.35 294.25 237.35 183.12 348.48 234.18 399.54 345.31 288.41 294.25 237.35"/>
    </g>
  </g>
</svg>
