<svg id="Layer_1" data-name="Layer 1" xmlns="http://www.w3.org/2000/svg" xmlns:xlink="http://www.w3.org/1999/xlink" viewBox="0 0 400 400">
  <defs>
    <style>
      .cls-1, .cls-3, .cls-5, .cls-7, .cls-9 {
        fill: none;
      }

      .cls-2 {
        clip-path: url(#clip-path);
      }

      .cls-3, .cls-5, .cls-7, .cls-9 {
        stroke: #fff;
      }

      .cls-3 {
        stroke-width: 14px;
      }

      .cls-4 {
        clip-path: url(#clip-path-2);
      }

      .cls-5 {
        stroke-linecap: square;
        stroke-width: 8.06px;
      }

      .cls-5, .cls-7 {
        stroke-miterlimit: 10;
      }

      .cls-6 {
        clip-path: url(#clip-path-3);
      }

      .cls-7 {
        stroke-width: 12.25px;
      }

      .cls-8 {
        clip-path: url(#clip-path-4);
      }

      .cls-9 {
        stroke-width: 13.25px;
      }
    </style>
    <clipPath id="clip-path">
      <rect class="cls-1" y="0.2" width="400" height="400"/>
    </clipPath>
    <clipPath id="clip-path-2">
      <rect class="cls-1" y="420.2" width="400" height="400"/>
    </clipPath>
    <clipPath id="clip-path-3">
      <rect class="cls-1" x="-420" y="420" width="400" height="400"/>
    </clipPath>
    <clipPath id="clip-path-4">
      <rect class="cls-1" x="-420" width="400" height="400"/>
    </clipPath>
  </defs>
  <title>Untitled-2</title>
  <g class="cls-2">
    <rect class="cls-3" x="-845.38" y="-146.15" width="1096.31" height="360.3" transform="translate(-111.09 -200.21) rotate(-45)"/>
    <rect class="cls-3" x="-798.97" y="-146.14" width="1096.31" height="360.31" transform="translate(-97.52 -167.39) rotate(-45)"/>
    <rect class="cls-3" x="-752.56" y="-146.12" width="1096.31" height="360.3" transform="translate(-83.94 -134.57) rotate(-45)"/>
    <rect class="cls-3" x="-706.16" y="-146.1" width="1096.31" height="360.3" transform="translate(-70.36 -101.75) rotate(-45)"/>
    <rect class="cls-3" x="-659.75" y="-146.08" width="1096.31" height="360.3" transform="translate(-56.78 -68.93) rotate(-45)"/>
    <rect class="cls-3" x="-613.34" y="-146.06" width="1096.31" height="360.3" transform="translate(-43.2 -36.11) rotate(-45)"/>
    <rect class="cls-3" x="-477.37" y="-514.06" width="360.31" height="1096.31" transform="translate(-111.16 -200.18) rotate(-45)"/>
    <rect class="cls-3" x="-430.97" y="-514.08" width="360.31" height="1096.31" transform="translate(-97.56 -167.37) rotate(-45)"/>
    <rect class="cls-3" x="-384.56" y="-514.1" width="360.31" height="1096.31" transform="translate(-83.95 -134.56) rotate(-45)"/>
    <rect class="cls-3" x="-338.15" y="-514.12" width="360.3" height="1096.31" transform="translate(-70.35 -101.76) rotate(-45)"/>
    <rect class="cls-3" x="-291.75" y="-514.14" width="360.31" height="1096.31" transform="translate(-56.74 -68.95) rotate(-45)"/>
    <rect class="cls-3" x="-245.34" y="-514.16" width="360.31" height="1096.31" transform="translate(-43.13 -36.14) rotate(-45)"/>
  </g>
  <g class="cls-4">
    <path class="cls-5" d="M-99.07,520.2A44.61,44.61,0,0,1-139,475.84a44.6,44.6,0,0,1,44.61-44.6,44.6,44.6,0,0,1,44.6,44.6,44.4,44.4,0,0,1-6.36,23m15-6.49a55.77,55.77,0,0,1-53.26,39.27,55.48,55.48,0,0,1-28.5-7.83m-10.92-8.5a55.57,55.57,0,0,1-16.33-39.41,55.76,55.76,0,0,1,37.5-52.69m85.5,92.23a78,78,0,0,1-67.27,38.47,78,78,0,0,1-78-78m120.63-65.36a77.94,77.94,0,0,1,35.4,65.36,78,78,0,0,1-3.75,24m-148-49.51a78,78,0,0,1,73.73-52.47,78.45,78.45,0,0,1,10.44.69M-131.53,556.9a89.42,89.42,0,0,1-47.19-52.17M-89.15,576q-2.59.13-5.21,0.13a99.84,99.84,0,0,1-60.72-20.47M2.69,501.2a100.39,100.39,0,0,1-82,73.82m-87.26-29.63a100,100,0,0,1-28-69.54A100.29,100.29,0,0,1-94.36,375.55,100.29,100.29,0,0,1,5.93,475.84c0,0.85,0,1.7,0,2.54m-204.27,37.49a111.15,111.15,0,0,1-7.4-40A111.16,111.16,0,0,1-168,392.21m117-19A111.87,111.87,0,0,1-.1,416.39M-55.25,592a122.38,122.38,0,0,1-39.1,6.37q-4.77,0-9.46-.36M21.92,514.69a122.94,122.94,0,0,1-59.65,69.88M-10.67,386.3A122.21,122.21,0,0,1,28.2,475.84q0,4.17-.28,8.27m-166.5,106.07a122.6,122.6,0,0,1-78.34-114.34A122.56,122.56,0,0,1-94.36,353.28a122,122,0,0,1,67.94,20.54m-121.81-32.47A144.47,144.47,0,0,1-94.36,331,144.63,144.63,0,0,1,22.1,389.71m-261.21,90.74q-0.08-2.3-.08-4.61a146.21,146.21,0,0,1,2.08-24.58m35.23,121.61a144.24,144.24,0,0,1-37.23-92.42M48.64,452.7a145.59,145.59,0,0,1,1.84,23.14A144.83,144.83,0,0,1-94.36,620.68a146.42,146.42,0,0,1-15.79-.85M-255.29,430.69a167.48,167.48,0,0,1,84.42-103.45m-40.4,268a166.61,166.61,0,0,1-50.2-119.4,168,168,0,0,1,3-31.53M-192,611.48a167.89,167.89,0,0,1-19.28-16.24M-84.7,642.67q-4.8.27-9.65,0.27A166.36,166.36,0,0,1-192,611.48m57.94-298a167.53,167.53,0,0,1,39.69-4.74A167.11,167.11,0,0,1,72.75,475.84,167.18,167.18,0,0,1-51.38,637.37m82-288.59A177.68,177.68,0,0,1,83.88,475.84a179,179,0,0,1-3,32.72M14.6,334.76a180,180,0,0,1,16.05,14M-133,290.41a189.74,189.74,0,0,1,38.66-4A189,189,0,0,1,52.47,356.22m-336,110.83A189.51,189.51,0,0,1-158.13,297.46M-245,590.66a188.58,188.58,0,0,1-33.56-70.53M15.73,308.22a200.59,200.59,0,0,1,87.62,134M-184,296.44a199.64,199.64,0,0,1,89.66-21.11A199.69,199.69,0,0,1-7.67,295m112.8,201.37c-10.27,101.11-95.66,180-199.48,180-110.74,0-200.52-89.77-200.52-200.52A199.72,199.72,0,0,1-248,347m371.84,83.75a223.74,223.74,0,0,1,4.58,45.13A222,222,0,0,1,69.94,626.31M22.22,285.95a223.45,223.45,0,0,1,94.17,117.44M-117.13,254.2A224.37,224.37,0,0,1-94.36,253a221.87,221.87,0,0,1,98.77,23M44.1,650.4A221.86,221.86,0,0,1-94.36,698.64c-123,0-222.79-99.75-222.79-222.79,0-100.52,66.57-185.49,158-213.23M129.2,576.38A246,246,0,0,1,27.56,688.48m-16.82,8.81A244,244,0,0,1-94.36,720.91c-135.35,0-245.07-109.72-245.07-245.06S-229.7,230.78-94.36,230.78c127.77,0,232.71,97.78,244,222.6M141.3,349.5A266.25,266.25,0,0,1,173,475.84,266.82,266.82,0,0,1,74.59,683M62.84,259.58a268.91,268.91,0,0,1,69.69,74.81m-286.4-119.24a268.15,268.15,0,0,1,59.51-6.65A266.08,266.08,0,0,1,39.24,244.22m-311.36,31.94A268,268,0,0,1-227.61,244m-127,293.4a268.34,268.34,0,0,1-7.13-61.59,266.37,266.37,0,0,1,70.28-180.65m272,437.35a267.32,267.32,0,0,1-74.93,10.64,267.24,267.24,0,0,1-232-134.4m486.68,5A290.71,290.71,0,0,1,15.84,743.75M89.41,252A289,289,0,0,1,195.25,475.84a290,290,0,0,1-8.9,71.52M-288.56,261A288.55,288.55,0,0,1-94.36,186.23,288.67,288.67,0,0,1,18,208.85M-379.73,525.51A291.63,291.63,0,0,1-384,475.84a288.64,288.64,0,0,1,80.1-200M-246,722.64A290.6,290.6,0,0,1-364.56,580.3M-48.41,761.83a291.62,291.62,0,0,1-45.94,3.62A288.4,288.4,0,0,1-223.57,735.1"/>
  </g>
  <g class="cls-6">
    <path class="cls-7" d="M-250.29,754.49c-22.4,8.56-45.6,22.52-70.38,47.28m-326,348.93c-22.4,8.56-45.59,22.52-70.37,47.28M144.49,359.92c-22.4,8.56-45.59,22.52-70.37,47.28M-241.45,729.77c-30.4,7.19-61.72,20.75-96.1,55.11M-637.87,1126c-30.4,7.19-61.72,20.75-96.1,55.11M153.33,335.2c-30.4,7.19-61.72,20.75-96.1,55.11M-237.29,709.76c-36.78,6.2-74.24,17.12-116.26,59.12M-633.71,1106c-36.78,6.2-74.24,17.12-116.26,59.12M157.49,315.18c-36.77,6.2-74.24,17.12-116.26,59.11M-236,689c-43,6.28-86,12.79-135.3,62m-261.12,334.16c-43,6.28-86,12.78-135.3,62M158.76,294.47c-43,6.28-86,12.78-135.3,62M-36,490.44c-43.49,6.35-86.94,12.43-136.81,62.26-99.11,99.06-25.34,172.88-124.45,271.93m-135.16,62c-43.49,6.35-86.94,12.43-136.8,62.26-99.11,99.07-25.34,172.88-124.45,271.93M358.76,95.87c-43.49,6.35-86.94,12.43-136.81,62.26C122.84,257.2,196.61,331,97.5,430.06M-39,511.4c-36.71,6.21-74.11,17.16-116.05,59.08-99.11,99.06-25.34,172.88-124.45,271.93m-155.92,65.2c-36.71,6.21-74.11,17.16-116.05,59.08-99.11,99.06-25.34,172.88-124.45,271.93M355.78,116.84C319.07,123,281.66,134,239.72,175.92,140.61,275,214.38,348.79,115.27,447.85M-45.18,531.92c-29.7,7.33-60.35,21-93.89,54.57-99.11,99.06-25.34,172.87-124.45,271.93M-441.6,928.13c-29.7,7.33-60.34,21-93.89,54.57-99.11,99.06-25.34,172.87-124.45,271.93M349.61,137.35c-29.7,7.33-60.35,21-93.89,54.57C156.61,291,230.38,364.8,131.27,463.85M-50.79,555.73c-22.72,8.52-46.24,22.53-71.39,47.66-99.11,99.06-25.34,172.87-124.45,271.93m-200.59,76.61c-22.72,8.52-46.23,22.53-71.39,47.66-99.11,99.06-25.34,172.87-124.45,271.93M344,161.15c-22.72,8.52-46.24,22.53-71.39,47.66-99.11,99.06-25.34,172.87-124.45,271.93m-49-52.34c-24.92,24.9-48.23,38.88-70.75,47.43M-297.27,824.61C-322.18,849.52-345.5,863.49-368,872M116.93,446.19c-32.89,32.87-63,46.7-92.15,54.14M-279.49,842.4c-32.89,32.87-63,46.71-92.16,54.14M132.93,462.2c-41.17,41.15-78,52.46-114,58.74M-263.49,858.4c-41.17,41.14-78,52.46-114,58.73m527.32-438C101,527.87,58.34,534.73,15.77,541M-246.61,875.3c-48.81,48.78-91.47,55.64-134,61.86M-99.34,626.79c-24.48,24.47-47.42,38.39-69.57,47M-495.76,1023c-24.48,24.47-47.42,38.39-69.57,47M295.45,232.22c-24.48,24.47-47.42,38.39-69.57,47M-81.56,644.58c-33.7,33.68-64.46,47.37-94.3,54.67M-478,1040.78c-33.7,33.68-64.46,47.37-94.3,54.67M313.22,250c-33.7,33.68-64.46,47.37-94.3,54.67M-65.57,660.58c-41.47,41.44-78.5,52.63-114.8,58.87M-462,1056.79c-41.47,41.44-78.5,52.63-114.8,58.87M329.22,266c-41.46,41.44-78.49,52.63-114.8,58.87m-263.1,352.6c-49.55,49.53-92.77,55.84-136,62.15M-445.1,1073.68c-49.55,49.53-92.77,55.84-136,62.15M346.1,282.91c-49.55,49.53-92.77,55.84-136,62.15m-184.7,9.51C-73.7,453.62.07,527.43-99,626.49M-371,750.77c-99.11,99.06-25.34,172.87-124.45,271.93M43.19,372.35C-55.92,471.4,17.85,545.22-81.26,644.27m-272,124.28c-99.11,99.06-25.34,172.87-124.45,271.93M59.19,388.35C-39.93,487.41,33.85,561.22-65.27,660.28m-272,124.28c-99.11,99.06-25.34,172.87-124.45,271.93M76.07,405.25C-23,504.31,50.73,578.12-48.38,677.18m-272,124.28c-99.11,99.06-25.34,172.87-124.45,271.93m217.14-95.47c-22.4,8.56-45.59,22.52-70.37,47.28M167.12,583.34c-22.4,8.56-45.59,22.51-70.37,47.28M-218.82,953.19c-30.4,7.19-61.72,20.75-96.1,55.11M176,558.62c-30.4,7.19-61.72,20.75-96.1,55.11M-214.66,933.17c-36.78,6.2-74.24,17.12-116.26,59.12m511-453.68c-36.77,6.2-74.24,17.12-116.26,59.11M-213.39,912.46c-43,6.28-86,12.78-135.3,62M181.39,517.89c-43,6.28-86,12.79-135.3,62M-13.39,713.85c-43.49,6.35-86.94,12.43-136.81,62.26C-249.31,875.18-175.54,949-274.65,1048m-135.16,62c-43.49,6.35-86.94,12.43-136.81,62.26-99.11,99.06-25.34,172.88-124.45,271.93m1052.46-1125c-43.49,6.35-86.94,12.43-136.81,62.26-99.11,99.06-25.34,172.88-124.45,271.93M-16.37,734.82C-53.08,741-90.48,752-132.42,793.9c-99.11,99.06-25.34,172.88-124.45,271.93M-412.79,1131c-36.71,6.2-74.11,17.16-116.05,59.08C-628,1289.17-554.18,1363-653.29,1462M378.41,340.25c-36.71,6.21-74.11,17.16-116.05,59.08C163.25,498.39,237,572.21,137.91,671.26M-22.54,755.33c-29.7,7.33-60.34,21-93.89,54.57-99.11,99.06-25.34,172.87-124.45,271.93M-419,1151.54c-29.7,7.33-60.35,21-93.89,54.57C-612,1305.17-538.19,1379-637.3,1478M372.24,360.76c-29.7,7.33-60.34,21-93.89,54.57C179.24,514.4,253,588.21,153.91,687.26M-28.15,779.14c-22.72,8.52-46.23,22.53-71.38,47.66-99.11,99.06-25.34,172.87-124.45,271.93m-200.58,76.61c-22.72,8.52-46.23,22.53-71.39,47.66-99.11,99.06-25.34,172.87-124.45,271.93m987-1110.37c-22.72,8.52-46.23,22.53-71.38,47.66C196.13,531.29,269.9,605.1,170.79,704.16m-49-52.34C96.87,676.72,73.56,690.7,51,699.25M-274.63,1048c-24.92,24.9-48.23,38.88-70.75,47.42M139.57,669.6c-32.89,32.87-63,46.71-92.15,54.14m-304.27,342.07c-32.89,32.87-63,46.71-92.15,54.14M155.56,685.61c-41.17,41.15-78,52.46-114,58.74m-282.4,337.47c-41.17,41.14-78,52.46-114,58.73M-76.7,850.21c-24.48,24.47-47.42,38.39-69.57,47m-326.85,349.23c-24.48,24.47-47.42,38.39-69.57,47M318.08,455.64c-24.48,24.47-47.42,38.39-69.57,47M-58.93,868c-33.7,33.68-64.46,47.37-94.3,54.67M-455.35,1264.2c-33.7,33.68-64.47,47.37-94.3,54.67m885.5-845.45c-33.7,33.68-64.46,47.37-94.29,54.67M-42.93,884c-41.47,41.44-78.5,52.63-114.8,58.87M-439.35,1280.2c-41.47,41.44-78.5,52.63-114.8,58.87m906-849.64c-41.47,41.44-78.5,52.63-114.8,58.87M48,578C-51.06,677,22.71,750.85-76.4,849.9m-272,124.28c-99.11,99.06-25.34,172.87-124.45,271.93M442.83,183.41c-99.11,99.06-25.34,172.87-124.45,271.93M65.82,595.76C-33.29,694.82,40.48,768.63-58.63,867.69M-330.59,992C-429.71,1091-355.94,1164.84-455,1263.89M460.61,201.19c-99.11,99.06-25.34,172.87-124.45,271.93M81.82,611.77C-17.29,710.83,56.48,784.64-42.63,883.7M-314.6,1008C-413.71,1107-339.94,1180.84-439,1279.9M476.61,217.2c-99.11,99.06-25.34,172.87-124.45,271.93M98.71,628.66C-0.41,727.72,73.37,801.53-25.74,900.59m-272,124.28c-99.11,99.06-25.34,172.87-124.45,271.93M493.49,234.09C394.38,333.15,468.15,407,369,506M172.45,702.51c-48.81,48.78-91.47,55.64-134,61.86M-224,1098.71c-48.81,48.78-91.47,55.64-134,61.87M-26,900.89C-75.6,950.42-118.82,956.73-162,963M-422.46,1297.1c-49.55,49.53-92.77,55.84-136,62.15m927.2-852.92c-49.55,49.53-92.77,55.84-136,62.15"/>
  </g>
  <g id="tile_motivation">
    <g class="cls-8">
      <polygon class="cls-9" points="24.5 36.9 24.5 36.9 -86.63 -74.23 -137.69 -23.17 -26.56 87.96 24.5 36.9"/>
      <line class="cls-9" x1="-0.64" y1="62.82" x2="-112.89" y2="-49.43"/>
    </g>
  </g>
</svg>
