<svg id="Layer_1" data-name="Layer 1" xmlns="http://www.w3.org/2000/svg" xmlns:xlink="http://www.w3.org/1999/xlink" viewBox="0 0 400 400">
  <defs>
    <style>
      .cls-1, .cls-3, .cls-5, .cls-7, .cls-9 {
        fill: none;
      }

      .cls-2 {
        clip-path: url(#clip-path);
      }

      .cls-3, .cls-5, .cls-7, .cls-9 {
        stroke: #fff;
      }

      .cls-3 {
        stroke-width: 14px;
      }

      .cls-4 {
        clip-path: url(#clip-path-2);
      }

      .cls-5 {
        stroke-linecap: square;
        stroke-width: 8.06px;
      }

      .cls-5, .cls-7 {
        stroke-miterlimit: 10;
      }

      .cls-6 {
        clip-path: url(#clip-path-3);
      }

      .cls-7 {
        stroke-width: 12.25px;
      }

      .cls-8 {
        clip-path: url(#clip-path-4);
      }

      .cls-9 {
        stroke-width: 13.25px;
      }
    </style>
    <clipPath id="clip-path">
      <rect class="cls-1" x="420" y="-419.8" width="400" height="400"/>
    </clipPath>
    <clipPath id="clip-path-2">
      <rect class="cls-1" x="420" y="0.2" width="400" height="400"/>
    </clipPath>
    <clipPath id="clip-path-3">
      <rect class="cls-1" width="400" height="400"/>
    </clipPath>
    <clipPath id="clip-path-4">
      <rect class="cls-1" y="-420" width="400" height="400"/>
    </clipPath>
  </defs>
  <title>Untitled-2</title>
  <g class="cls-2">
    <rect class="cls-3" x="-425.38" y="-566.15" width="1096.31" height="360.3" transform="translate(308.91 -26.24) rotate(-45)"/>
    <rect class="cls-3" x="-378.97" y="-566.14" width="1096.31" height="360.31" transform="translate(322.48 6.58) rotate(-45)"/>
    <rect class="cls-3" x="-332.56" y="-566.12" width="1096.31" height="360.3" transform="translate(336.06 39.4) rotate(-45)"/>
    <rect class="cls-3" x="-286.16" y="-566.1" width="1096.31" height="360.3" transform="translate(349.64 72.22) rotate(-45)"/>
    <rect class="cls-3" x="-239.75" y="-566.08" width="1096.31" height="360.3" transform="translate(363.22 105.04) rotate(-45)"/>
    <rect class="cls-3" x="-193.34" y="-566.06" width="1096.31" height="360.3" transform="translate(376.8 137.86) rotate(-45)"/>
    <rect class="cls-3" x="-57.37" y="-934.06" width="360.31" height="1096.31" transform="translate(308.84 -26.21) rotate(-45)"/>
    <rect class="cls-3" x="-10.97" y="-934.08" width="360.31" height="1096.31" transform="translate(322.44 6.6) rotate(-45)"/>
    <rect class="cls-3" x="35.44" y="-934.1" width="360.31" height="1096.31" transform="translate(336.05 39.41) rotate(-45)"/>
    <rect class="cls-3" x="81.85" y="-934.12" width="360.3" height="1096.31" transform="translate(349.65 72.21) rotate(-45)"/>
    <rect class="cls-3" x="128.25" y="-934.14" width="360.31" height="1096.31" transform="translate(363.26 105.02) rotate(-45)"/>
    <rect class="cls-3" x="174.66" y="-934.16" width="360.31" height="1096.31" transform="translate(376.87 137.83) rotate(-45)"/>
  </g>
  <g class="cls-4">
    <path class="cls-5" d="M320.93,100.2a44.6,44.6,0,1,1,43-21.4m15-6.49a55.77,55.77,0,0,1-81.76,31.44m-10.92-8.5A55.75,55.75,0,0,1,307.4,3.16m85.5,92.23A78,78,0,0,1,247.63,55.84M368.25-9.52A78.14,78.14,0,0,1,399.9,79.81m-148-49.51a78.12,78.12,0,0,1,84.16-51.78M288.47,136.9a89.42,89.42,0,0,1-47.19-52.17M330.85,156q-2.59.13-5.21,0.13a99.84,99.84,0,0,1-60.72-20.47M422.69,81.2a100.39,100.39,0,0,1-82,73.82m-87.26-29.63A100.29,100.29,0,1,1,425.93,55.84c0,0.85,0,1.7,0,2.54M221.62,95.87A111.57,111.57,0,0,1,252-27.79m117-19A111.87,111.87,0,0,1,419.9-3.61M364.75,172a122.38,122.38,0,0,1-39.1,6.37q-4.77,0-9.46-.36M441.92,94.69a122.94,122.94,0,0,1-59.65,69.88M409.33-33.7A122.21,122.21,0,0,1,448.2,55.84q0,4.17-.28,8.27M281.42,170.18a122.58,122.58,0,0,1,44.22-236.9,122,122,0,0,1,67.94,20.54M271.77-78.64A145,145,0,0,1,442.1-30.29M180.88,60.45q-0.08-2.3-.08-4.61a146.21,146.21,0,0,1,2.08-24.58m35.23,121.61a144.24,144.24,0,0,1-37.23-92.42M468.64,32.7a144.94,144.94,0,0,1-143,168,146.42,146.42,0,0,1-15.79-.85M164.71,10.69A167.48,167.48,0,0,1,249.13-92.75m-40.4,268A167.38,167.38,0,0,1,161.51,24.31M228,191.48a167.89,167.89,0,0,1-19.28-16.24M335.3,222.67q-4.8.27-9.65,0.27A166.36,166.36,0,0,1,228,191.48m57.94-298a167.15,167.15,0,0,1,82.67,323.89m82-288.59A178.6,178.6,0,0,1,500.89,88.56M434.6-85.24a180,180,0,0,1,16.05,14M287-129.59a189.74,189.74,0,0,1,38.66-4A189,189,0,0,1,472.47-63.78m-336,110.83A189.51,189.51,0,0,1,261.87-122.54M175,170.66a188.58,188.58,0,0,1-33.56-70.53M435.73-111.78a200.59,200.59,0,0,1,87.62,134M236-123.56A200.95,200.95,0,0,1,412.33-125M525.12,76.34c-10.27,101.11-95.66,180-199.48,180-110.74,0-200.52-89.77-200.52-200.52A199.72,199.72,0,0,1,172-73M543.86,10.71a223.23,223.23,0,0,1-53.91,195.6M442.22-134.05A223.45,223.45,0,0,1,536.39-16.61M302.87-165.8A224.37,224.37,0,0,1,325.64-167a221.87,221.87,0,0,1,98.77,23M464.1,230.4a221.86,221.86,0,0,1-138.45,48.24c-123,0-222.79-99.75-222.79-222.79,0-100.52,66.57-185.49,158-213.23M549.2,156.38a246,246,0,0,1-101.65,112.1m-16.82,8.81a244,244,0,0,1-105.09,23.62C190.3,300.91,80.58,191.19,80.58,55.84S190.3-189.22,325.64-189.22c127.77,0,232.71,97.78,244,222.6M561.3-70.5A266.25,266.25,0,0,1,593,55.84,266.82,266.82,0,0,1,494.59,263M482.84-160.42a268.91,268.91,0,0,1,69.69,74.81M266.13-204.85a268.15,268.15,0,0,1,59.51-6.65,266.08,266.08,0,0,1,133.59,35.72M147.87-143.83A268,268,0,0,1,192.39-176m-127,293.4a267.86,267.86,0,0,1,63.15-242.24m272,437.35A267.76,267.76,0,0,1,93.65,188.78m486.68,5A290.71,290.71,0,0,1,435.84,323.75M509.41-168a290.12,290.12,0,0,1,97,295.37M131.44-159A289.95,289.95,0,0,1,438-211.15M40.27,105.51A291.63,291.63,0,0,1,36,55.84a288.64,288.64,0,0,1,80.1-200M174,302.64A290.6,290.6,0,0,1,55.44,160.3M371.59,341.83a291.62,291.62,0,0,1-45.94,3.62A288.4,288.4,0,0,1,196.43,315.1"/>
  </g>
  <g class="cls-6">
    <path class="cls-7" d="M169.71,334.49C147.3,343,124.11,357,99.33,381.77m-326,348.93c-22.4,8.56-45.59,22.52-70.37,47.28M564.49-60.08c-22.4,8.56-45.59,22.52-70.37,47.28M178.55,309.77c-30.4,7.19-61.72,20.75-96.1,55.11M-217.87,706c-30.4,7.19-61.72,20.75-96.1,55.11M573.33-84.8c-30.4,7.19-61.72,20.75-96.1,55.11M182.71,289.76c-36.78,6.2-74.24,17.12-116.26,59.12M-213.71,686c-36.78,6.2-74.24,17.12-116.26,59.12M577.49-104.82c-36.77,6.2-74.24,17.12-116.26,59.11M184,269c-43,6.28-86,12.79-135.3,62M-212.44,665.25c-43,6.28-86,12.78-135.3,62M578.76-125.53c-43,6.28-86,12.78-135.3,62M384,70.44C340.48,76.79,297,82.86,247.17,132.7c-99.11,99.06-25.34,172.88-124.45,271.93m-135.16,62c-43.49,6.35-86.94,12.43-136.8,62.26C-248.37,628-174.59,701.78-273.7,800.84m1052.46-1125c-43.49,6.35-86.94,12.43-136.81,62.26C542.84-162.8,616.61-89,517.5,10.06M381,91.4c-36.71,6.21-74.11,17.16-116.05,59.08-99.11,99.06-25.34,172.88-124.45,271.93m-155.92,65.2c-36.71,6.21-74.11,17.16-116.05,59.08-99.11,99.06-25.34,172.88-124.45,271.93M775.78-303.16C739.07-297,701.66-286,659.72-244.08,560.61-145,634.38-71.21,535.27,27.85M374.82,111.92c-29.7,7.33-60.35,21-93.89,54.57-99.11,99.06-25.34,172.87-124.45,271.93M-21.6,508.13c-29.7,7.33-60.34,21-93.89,54.57-99.11,99.06-25.34,172.87-124.45,271.93M769.61-282.65c-29.7,7.33-60.35,21-93.89,54.57C576.61-129,650.38-55.2,551.27,43.85M369.21,135.73c-22.72,8.52-46.24,22.53-71.39,47.66-99.11,99.06-25.34,172.87-124.45,271.93M-27.21,531.93c-22.72,8.52-46.23,22.53-71.39,47.66C-197.71,678.65-123.94,752.47-223,851.52M764-258.85c-22.72,8.52-46.24,22.53-71.39,47.66C593.49-112.12,667.27-38.31,568.16,60.75m-49-52.34c-24.92,24.9-48.23,38.88-70.75,47.43M122.73,404.61C97.82,429.52,74.5,443.49,52,452M536.93,26.19c-32.89,32.87-63,46.7-92.15,54.14M140.51,422.4c-32.89,32.87-63,46.71-92.16,54.14M552.93,42.2c-41.17,41.15-78,52.46-114,58.74M156.51,438.4c-41.17,41.14-78,52.46-114,58.73m527.32-438c-48.81,48.78-91.47,55.64-134,61.86M173.39,455.3c-48.81,48.78-91.47,55.64-134,61.86M320.66,206.79c-24.48,24.47-47.42,38.39-69.57,47M-75.76,603c-24.48,24.47-47.42,38.39-69.57,47M715.45-187.78c-24.48,24.47-47.42,38.39-69.57,47M338.44,224.58c-33.7,33.68-64.46,47.37-94.3,54.67M-58,620.78c-33.7,33.68-64.46,47.37-94.3,54.67M733.22-170c-33.7,33.68-64.46,47.37-94.3,54.67M354.43,240.58C313,282,275.94,293.21,239.63,299.45M-42,636.79c-41.47,41.44-78.5,52.63-114.8,58.87M749.22-154c-41.46,41.44-78.49,52.63-114.8,58.87m-263.1,352.6c-49.55,49.53-92.77,55.84-136,62.15M-25.1,653.68c-49.55,49.53-92.77,55.84-136,62.15M766.1-137.09c-49.55,49.53-92.77,55.84-136,62.15m-184.7,9.51C346.3,33.62,420.07,107.43,321,206.49M49,330.77C-50.12,429.83,23.65,503.64-75.46,602.7M463.19-47.65C364.08,51.4,437.85,125.22,338.74,224.27m-272,124.28C-32.34,447.61,41.43,521.42-57.68,620.48M479.19-31.65c-99.11,99.06-25.34,172.87-124.45,271.93m-272,124.28C-16.35,463.62,57.43,537.43-41.68,636.49M496.07-14.75C397,84.31,470.73,158.12,371.62,257.18m-272,124.28C0.54,480.51,74.31,554.33-24.8,653.38m217.14-95.47c-22.4,8.56-45.59,22.52-70.37,47.28M587.12,163.34c-22.4,8.56-45.59,22.51-70.37,47.28M201.18,533.19c-30.4,7.19-61.72,20.75-96.1,55.11M596,138.62c-30.4,7.19-61.72,20.75-96.1,55.11M205.34,513.17c-36.78,6.2-74.24,17.12-116.26,59.12m511-453.68c-36.77,6.2-74.24,17.12-116.26,59.11M206.61,492.46c-43,6.28-86,12.78-135.3,62M601.39,97.89c-43,6.28-86,12.79-135.3,62M406.61,293.85c-43.49,6.35-86.94,12.43-136.81,62.26C170.69,455.18,244.46,529,145.35,628m-135.16,62c-43.49,6.35-86.94,12.43-136.81,62.26C-225.73,851.38-152,925.2-251.07,1024.25m1052.46-1125c-43.49,6.35-86.94,12.43-136.81,62.26-99.11,99.06-25.34,172.88-124.45,271.93M403.63,314.82C366.92,321,329.52,332,287.58,373.9,188.46,473,262.24,546.78,163.13,645.83M7.21,711c-36.71,6.2-74.11,17.16-116.05,59.08C-208,869.17-134.18,943-233.29,1042M798.41-79.75C761.7-73.54,724.3-62.59,682.36-20.67,583.25,78.39,657,152.21,557.91,251.26M397.46,335.33c-29.7,7.33-60.34,21-93.89,54.57C204.46,489,278.23,562.78,179.12,661.83M1,731.54c-29.7,7.33-60.35,21-93.89,54.57C-192,885.17-118.19,959-217.3,1058M792.24-59.24c-29.7,7.33-60.34,21-93.89,54.57C599.24,94.4,673,168.21,573.91,267.26M391.85,359.14c-22.72,8.52-46.23,22.53-71.38,47.66C221.35,505.86,295.12,579.67,196,678.73M-4.57,755.34C-27.29,763.86-50.81,777.87-76,803c-99.11,99.06-25.34,172.87-124.45,271.93m987-1110.37c-22.72,8.52-46.23,22.53-71.38,47.66C616.13,111.29,689.9,185.1,590.79,284.16m-49-52.34c-24.92,24.9-48.23,38.88-70.75,47.43M145.37,628c-24.92,24.9-48.23,38.88-70.75,47.42M559.57,249.6c-32.89,32.87-63,46.71-92.15,54.14M163.15,645.81c-32.89,32.87-63,46.71-92.15,54.14M575.56,265.61c-41.17,41.15-78,52.46-114,58.74M179.14,661.82c-41.17,41.14-78,52.46-114,58.73M343.3,430.21c-24.48,24.47-47.42,38.39-69.57,47M-53.12,826.41c-24.48,24.47-47.42,38.39-69.57,47M738.08,35.64C713.6,60.1,690.66,74,668.51,82.61M361.07,448c-33.7,33.68-64.46,47.37-94.3,54.67M-35.35,844.2c-33.7,33.68-64.47,47.37-94.3,54.67M755.86,53.42c-33.7,33.68-64.46,47.37-94.29,54.67M377.07,464c-41.47,41.44-78.5,52.63-114.8,58.87M-19.35,860.2c-41.47,41.44-78.5,52.63-114.8,58.87m906-849.64c-41.47,41.44-78.5,52.63-114.8,58.87M468,158C368.94,257,442.71,330.85,343.6,429.9m-272,124.28C-27.48,653.24,46.29,727.05-52.82,826.11M862.83-236.59C763.72-137.53,837.49-63.72,738.38,35.33M485.82,175.76c-99.11,99.06-25.34,172.87-124.45,271.93M89.41,572C-9.71,671,64.06,744.84-35,843.89M880.61-218.81C781.5-119.75,855.27-45.94,756.16,53.12M501.82,191.77c-99.11,99.06-25.34,172.87-124.45,271.93M105.4,588C6.29,687,80.06,760.84-19,859.9M896.61-202.8C797.49-103.74,871.27-29.93,772.16,69.12M518.71,208.66c-99.11,99.06-25.34,172.87-124.45,271.93m-272,124.28C23.18,703.93,96.95,777.74-2.16,876.8M913.49-185.91C814.38-86.85,888.15-13,789,86M592.45,282.51c-48.81,48.78-91.47,55.64-134,61.86M196,678.71c-48.81,48.78-91.47,55.64-134,61.87M394,480.89C344.4,530.42,301.18,536.73,258,543M-2.46,877.1c-49.55,49.53-92.77,55.84-136,62.15M788.74,86.32c-49.55,49.53-92.77,55.84-136,62.15"/>
  </g>
  <g id="tile_motivation">
    <g class="cls-8">
      <polygon class="cls-9" points="240.26 36.81 240.26 36.81 129.13 -74.32 78.07 -23.26 189.2 87.87 240.26 36.81"/>
      <line class="cls-9" x1="215.12" y1="62.73" x2="102.87" y2="-49.52"/>
    </g>
  </g>
</svg>
