<svg id="Layer_1" data-name="Layer 1" xmlns="http://www.w3.org/2000/svg" xmlns:xlink="http://www.w3.org/1999/xlink" viewBox="0 0 400 400">
  <defs>
    <style>
      .cls-1, .cls-3, .cls-5, .cls-7 {
        fill: none;
      }

      .cls-2 {
        clip-path: url(#clip-path);
      }

      .cls-3, .cls-5, .cls-7 {
        stroke: #fff;
      }

      .cls-3 {
        stroke-width: 14px;
      }

      .cls-4 {
        clip-path: url(#clip-path-2);
      }

      .cls-5 {
        stroke-linecap: square;
        stroke-width: 8.06px;
      }

      .cls-5, .cls-7 {
        stroke-miterlimit: 10;
      }

      .cls-6 {
        clip-path: url(#clip-path-3);
      }

      .cls-7 {
        stroke-width: 12.25px;
      }
    </style>
    <clipPath id="clip-path">
      <rect class="cls-1" y="-419.8" width="400" height="400"/>
    </clipPath>
    <clipPath id="clip-path-2">
      <rect class="cls-1" y="0.2" width="400" height="400"/>
    </clipPath>
    <clipPath id="clip-path-3">
      <rect class="cls-1" x="-420" width="400" height="400"/>
    </clipPath>
  </defs>
  <title>Untitled-2</title>
  <g class="cls-2">
    <rect class="cls-3" x="-845.38" y="-566.15" width="1096.31" height="360.3" transform="translate(185.89 -323.23) rotate(-45)"/>
    <rect class="cls-3" x="-798.97" y="-566.14" width="1096.31" height="360.31" transform="translate(199.47 -290.4) rotate(-45)"/>
    <rect class="cls-3" x="-752.56" y="-566.12" width="1096.31" height="360.3" transform="translate(213.05 -257.58) rotate(-45)"/>
    <rect class="cls-3" x="-706.16" y="-566.1" width="1096.31" height="360.3" transform="translate(226.63 -224.76) rotate(-45)"/>
    <rect class="cls-3" x="-659.75" y="-566.08" width="1096.31" height="360.3" transform="translate(240.2 -191.94) rotate(-45)"/>
    <rect class="cls-3" x="-613.34" y="-566.06" width="1096.31" height="360.3" transform="translate(253.78 -159.12) rotate(-45)"/>
    <rect class="cls-3" x="-477.37" y="-934.06" width="360.31" height="1096.31" transform="translate(185.82 -323.2) rotate(-45)"/>
    <rect class="cls-3" x="-430.97" y="-934.08" width="360.31" height="1096.31" transform="translate(199.43 -290.39) rotate(-45)"/>
    <rect class="cls-3" x="-384.56" y="-934.1" width="360.31" height="1096.31" transform="translate(213.03 -257.58) rotate(-45)"/>
    <rect class="cls-3" x="-338.15" y="-934.12" width="360.3" height="1096.31" transform="translate(226.64 -224.77) rotate(-45)"/>
    <rect class="cls-3" x="-291.75" y="-934.14" width="360.31" height="1096.31" transform="translate(240.25 -191.96) rotate(-45)"/>
    <rect class="cls-3" x="-245.34" y="-934.16" width="360.31" height="1096.31" transform="translate(253.85 -159.15) rotate(-45)"/>
  </g>
  <g class="cls-4">
    <path class="cls-5" d="M416.84,268.09a25,25,0,1,1,24.07-12m8.42-3.64a31.26,31.26,0,0,1-45.82,17.62m-6.12-4.76a31.24,31.24,0,0,1,11.87-51.61m47.92,51.69a43.73,43.73,0,0,1-81.42-22.16m67.6-36.63a43.79,43.79,0,0,1,17.74,50.06m-82.94-27.75a43.78,43.78,0,0,1,47.17-29m-26.68,88.76a50.11,50.11,0,0,1-26.45-29.24m50.2,39.94q-1.45.07-2.92,0.07a56,56,0,0,1-34-11.47m88.42-30.52a56.26,56.26,0,0,1-46,41.37M379,282.2a56.2,56.2,0,1,1,96.69-39c0,0.47,0,.95,0,1.42m-114.48,21a62.52,62.52,0,0,1,17-69.3M443.8,185.7a62.69,62.69,0,0,1,28.49,24.21m-30.91,98.43a68.55,68.55,0,0,1-21.91,3.57q-2.67,0-5.3-.2M484.64,265a68.89,68.89,0,0,1-33.43,39.16m15.17-111.11a68.49,68.49,0,0,1,21.78,50.18q0,2.34-.16,4.64m-93.31,59.44a68.7,68.7,0,1,1,62.86-121.25m-68.27-18.19A81.27,81.27,0,0,1,484.74,195M338.35,245.81c0-.86,0-1.72,0-2.58a82,82,0,0,1,1.17-13.78m19.74,68.15a80.83,80.83,0,0,1-20.86-51.79m161.26-15.55a81.24,81.24,0,0,1-89,93.66m-81.34-106a93.86,93.86,0,0,1,47.31-58M354,310.14a93.81,93.81,0,0,1-26.46-84.58m37.27,93.68a94.28,94.28,0,0,1-10.8-9.1m70.93,26.58q-2.69.15-5.41,0.15a93.23,93.23,0,0,1-54.72-17.64m32.47-167a93.67,93.67,0,0,1,46.33,181.51m46-161.73a100.09,100.09,0,0,1,28.16,89.54m-37.15-97.4a100.62,100.62,0,0,1,9,7.86m-91.72-32.71a106.31,106.31,0,0,1,104,36.88M313.46,238.31a106.2,106.2,0,0,1,70.28-95M335.07,307.58a105.7,105.7,0,0,1-18.81-39.53M481.17,149.29a112.41,112.41,0,0,1,49.1,75.09m-161-81.69a112.61,112.61,0,0,1,98.82-.82m63.21,112.85A112.38,112.38,0,1,1,333.38,171m208.38,46.93a125.1,125.1,0,0,1-30.21,109.62M484.81,136.81a125.22,125.22,0,0,1,52.77,65.81M406.71,119a125.79,125.79,0,0,1,12.77-.65,124.34,124.34,0,0,1,55.35,12.91m22.24,209.77A124.87,124.87,0,1,1,383.18,123.73M544.76,299.57a137.88,137.88,0,0,1-57,62.82m-9.43,4.94a137.35,137.35,0,1,1,77.87-136.69m-4.7-58.22a149.91,149.91,0,0,1-37.39,186.92M507.57,122A150.73,150.73,0,0,1,546.63,164M386.12,97.13a150.36,150.36,0,0,1,108.22,16.3m-174.49,17.9a150.2,150.2,0,0,1,24.95-18M273.65,277.74A150.11,150.11,0,0,1,309,142M461.47,387.08a150.05,150.05,0,0,1-172-69.35m272.74,2.83a162.93,162.93,0,0,1-81,72.81m41.23-275.59a162.58,162.58,0,0,1,54.33,165.53M310.64,122.83A162.49,162.49,0,0,1,482.47,93.6M259.55,271.06a163.42,163.42,0,0,1-2.37-27.83,161.75,161.75,0,0,1,44.89-112.06M334.5,381.54a162.86,162.86,0,0,1-66.45-79.77M445.22,403.5a163.44,163.44,0,0,1-25.75,2,161.63,161.63,0,0,1-72.42-17"/>
    <path class="cls-5" d="M-99.07,100.2A44.61,44.61,0,0,1-139,55.84a44.6,44.6,0,0,1,44.61-44.6,44.6,44.6,0,0,1,44.6,44.6,44.4,44.4,0,0,1-6.36,23m15-6.49a55.77,55.77,0,0,1-53.26,39.27,55.48,55.48,0,0,1-28.5-7.83m-10.92-8.5A55.57,55.57,0,0,1-150.1,55.84,55.76,55.76,0,0,1-112.6,3.16m85.5,92.23a78,78,0,0,1-67.27,38.47,78,78,0,0,1-78-78M-51.75-9.52a77.94,77.94,0,0,1,35.4,65.36,78,78,0,0,1-3.75,24m-148-49.51A78,78,0,0,1-94.36-22.17a78.45,78.45,0,0,1,10.44.69M-131.53,136.9a89.42,89.42,0,0,1-47.19-52.17M-89.15,156q-2.59.13-5.21,0.13a99.84,99.84,0,0,1-60.72-20.47M2.69,81.2a100.39,100.39,0,0,1-82,73.82m-87.26-29.63a100,100,0,0,1-28-69.54A100.29,100.29,0,0,1-94.36-44.45,100.29,100.29,0,0,1,5.93,55.84c0,0.85,0,1.7,0,2.54M-198.38,95.87a111.15,111.15,0,0,1-7.4-40A111.16,111.16,0,0,1-168-27.79m117-19A111.87,111.87,0,0,1-.1-3.61M-55.25,172a122.38,122.38,0,0,1-39.1,6.37q-4.77,0-9.46-.36M21.92,94.69a122.94,122.94,0,0,1-59.65,69.88M-10.67-33.7A122.21,122.21,0,0,1,28.2,55.84q0,4.17-.28,8.27m-166.5,106.07A122.6,122.6,0,0,1-216.92,55.84,122.56,122.56,0,0,1-94.36-66.72,122,122,0,0,1-26.41-46.18M-148.23-78.64A144.47,144.47,0,0,1-94.36-89,144.63,144.63,0,0,1,22.1-30.29M-239.12,60.45q-0.08-2.3-.08-4.61a146.21,146.21,0,0,1,2.08-24.58m35.23,121.61a144.24,144.24,0,0,1-37.23-92.42M48.64,32.7a145.59,145.59,0,0,1,1.84,23.14A144.83,144.83,0,0,1-94.36,200.68a146.42,146.42,0,0,1-15.79-.85M-255.29,10.69A167.48,167.48,0,0,1-170.87-92.75m-40.4,268a166.61,166.61,0,0,1-50.2-119.4,168,168,0,0,1,3-31.53M-192,191.48a167.89,167.89,0,0,1-19.28-16.24M-84.7,222.67q-4.8.27-9.65,0.27A166.36,166.36,0,0,1-192,191.48m57.94-298a167.53,167.53,0,0,1,39.69-4.74A167.11,167.11,0,0,1,72.75,55.84,167.18,167.18,0,0,1-51.38,217.37m82-288.59A177.68,177.68,0,0,1,83.88,55.84a179,179,0,0,1-3,32.72M14.6-85.24a180,180,0,0,1,16.05,14M-133-129.59a189.74,189.74,0,0,1,38.66-4A189,189,0,0,1,52.47-63.78m-336,110.83A189.51,189.51,0,0,1-158.13-122.54M-245,170.66a188.58,188.58,0,0,1-33.56-70.53M15.73-111.78a200.59,200.59,0,0,1,87.62,134M-184-123.56a199.64,199.64,0,0,1,89.66-21.11A199.69,199.69,0,0,1-7.67-125M105.12,76.34c-10.27,101.11-95.66,180-199.48,180-110.74,0-200.52-89.77-200.52-200.52A199.72,199.72,0,0,1-248-73M123.86,10.71a223.74,223.74,0,0,1,4.58,45.13A222,222,0,0,1,69.94,206.31M22.22-134.05A223.45,223.45,0,0,1,116.39-16.61M-117.13-165.8A224.37,224.37,0,0,1-94.36-167a221.87,221.87,0,0,1,98.77,23M44.1,230.4A221.86,221.86,0,0,1-94.36,278.64c-123,0-222.79-99.75-222.79-222.79,0-100.52,66.57-185.49,158-213.23M129.2,156.38A246,246,0,0,1,27.56,268.48m-16.82,8.81A244,244,0,0,1-94.36,300.91c-135.35,0-245.07-109.72-245.07-245.06S-229.7-189.22-94.36-189.22c127.77,0,232.71,97.78,244,222.6M141.3-70.5A266.25,266.25,0,0,1,173,55.84,266.82,266.82,0,0,1,74.59,263M62.84-160.42a268.91,268.91,0,0,1,69.69,74.81m-286.4-119.24a268.15,268.15,0,0,1,59.51-6.65A266.08,266.08,0,0,1,39.24-175.78m-311.36,31.94A268,268,0,0,1-227.61-176m-127,293.4a268.34,268.34,0,0,1-7.13-61.59,266.37,266.37,0,0,1,70.28-180.65m272,437.35a267.32,267.32,0,0,1-74.93,10.64,267.24,267.24,0,0,1-232-134.4m486.68,5A290.71,290.71,0,0,1,15.84,323.75M89.41-168A289,289,0,0,1,195.25,55.84a290,290,0,0,1-8.9,71.52M-288.56-159A288.55,288.55,0,0,1-94.36-233.77,288.67,288.67,0,0,1,18-211.15M-379.73,105.51A291.63,291.63,0,0,1-384,55.84a288.64,288.64,0,0,1,80.1-200M-246,302.64A290.6,290.6,0,0,1-364.56,160.3M-48.41,341.83a291.62,291.62,0,0,1-45.94,3.62A288.4,288.4,0,0,1-223.57,315.1"/>
  </g>
  <g class="cls-6">
    <path class="cls-7" d="M-250.29,334.49c-22.4,8.56-45.6,22.52-70.38,47.28m-326,348.93c-22.4,8.56-45.59,22.52-70.37,47.28M144.49-60.08C122.09-51.52,98.9-37.56,74.12-12.8M-241.45,309.77c-30.4,7.19-61.72,20.75-96.1,55.11M-637.87,706c-30.4,7.19-61.72,20.75-96.1,55.11M153.33-84.8c-30.4,7.19-61.72,20.75-96.1,55.11M-237.29,289.76c-36.78,6.2-74.24,17.12-116.26,59.12M-633.71,686c-36.78,6.2-74.24,17.12-116.26,59.12M157.49-104.82C120.72-98.62,83.25-87.7,41.23-45.7M-236,269c-43,6.28-86,12.79-135.3,62M-632.44,665.25c-43,6.28-86,12.78-135.3,62M158.76-125.53c-43,6.28-86,12.78-135.3,62M-36,70.44C-79.52,76.79-123,82.86-172.83,132.7c-99.11,99.06-25.34,172.88-124.45,271.93m-135.16,62c-43.49,6.35-86.94,12.43-136.8,62.26C-668.37,628-594.59,701.78-693.7,800.84m1052.46-1125c-43.49,6.35-86.94,12.43-136.81,62.26C122.84-162.8,196.61-89,97.5,10.06M-39,91.4c-36.71,6.21-74.11,17.16-116.05,59.08-99.11,99.06-25.34,172.88-124.45,271.93m-155.92,65.2c-36.71,6.21-74.11,17.16-116.05,59.08-99.11,99.06-25.34,172.88-124.45,271.93M355.78-303.16C319.07-297,281.66-286,239.72-244.08,140.61-145,214.38-71.21,115.27,27.85M-45.18,111.92c-29.7,7.33-60.35,21-93.89,54.57-99.11,99.06-25.34,172.87-124.45,271.93M-441.6,508.13c-29.7,7.33-60.34,21-93.89,54.57-99.11,99.06-25.34,172.87-124.45,271.93M349.61-282.65c-29.7,7.33-60.35,21-93.89,54.57C156.61-129,230.38-55.2,131.27,43.85M-50.79,135.73c-22.72,8.52-46.24,22.53-71.39,47.66-99.11,99.06-25.34,172.87-124.45,271.93m-200.59,76.61c-22.72,8.52-46.23,22.53-71.39,47.66C-617.71,678.65-543.94,752.47-643,851.52M344-258.85c-22.72,8.52-46.24,22.53-71.39,47.66C173.49-112.12,247.27-38.31,148.16,60.75m-49-52.34C74.24,33.31,50.92,47.29,28.4,55.83M-297.27,404.61C-322.18,429.52-345.5,443.49-368,452M116.93,26.19C84,59.06,53.94,72.9,24.77,80.33M-279.49,422.4c-32.89,32.87-63,46.71-92.16,54.14M132.93,42.2c-41.17,41.15-78,52.46-114,58.74M-263.49,438.4c-41.17,41.14-78,52.46-114,58.73m527.32-438C101,107.87,58.34,114.73,15.77,121M-246.61,455.3c-48.81,48.78-91.47,55.64-134,61.86M-99.34,206.79c-24.48,24.47-47.42,38.39-69.57,47M-495.76,603c-24.48,24.47-47.42,38.39-69.57,47M295.45-187.78c-24.48,24.47-47.42,38.39-69.57,47M-81.56,224.58c-33.7,33.68-64.46,47.37-94.3,54.67M-478,620.78c-33.7,33.68-64.46,47.37-94.3,54.67M313.22-170c-33.7,33.68-64.46,47.37-94.3,54.67M-65.57,240.58c-41.47,41.44-78.5,52.63-114.8,58.87M-462,636.79c-41.47,41.44-78.5,52.63-114.8,58.87M329.22-154c-41.46,41.44-78.49,52.63-114.8,58.87m-263.1,352.6c-49.55,49.53-92.77,55.84-136,62.15M-445.1,653.68c-49.55,49.53-92.77,55.84-136,62.15M346.1-137.09c-49.55,49.53-92.77,55.84-136,62.15M25.41-65.44C-73.7,33.62.07,107.43-99,206.49M-371,330.77c-99.11,99.06-25.34,172.87-124.45,271.93M43.19-47.65C-55.92,51.4,17.85,125.22-81.26,224.27m-272,124.28c-99.11,99.06-25.34,172.87-124.45,271.93M59.19-31.65C-39.93,67.41,33.85,141.22-65.27,240.28m-272,124.28c-99.11,99.06-25.34,172.87-124.45,271.93M76.07-14.75C-23,84.31,50.73,158.12-48.38,257.18m-272,124.28c-99.11,99.06-25.34,172.87-124.45,271.93m217.14-95.47c-22.4,8.56-45.59,22.52-70.37,47.28M167.12,163.34c-22.4,8.56-45.59,22.51-70.37,47.28M-218.82,533.19c-30.4,7.19-61.72,20.75-96.1,55.11M176,138.62c-30.4,7.19-61.72,20.75-96.1,55.11M-214.66,513.17c-36.78,6.2-74.24,17.12-116.26,59.12m511-453.68c-36.77,6.2-74.24,17.12-116.26,59.11M-213.39,492.46c-43,6.28-86,12.78-135.3,62M181.39,97.89c-43,6.28-86,12.79-135.3,62M-13.39,293.85c-43.49,6.35-86.94,12.43-136.81,62.26C-249.31,455.18-175.54,529-274.65,628m-135.16,62c-43.49,6.35-86.94,12.43-136.81,62.26C-645.73,851.38-572,925.2-671.07,1024.25m1052.46-1125c-43.49,6.35-86.94,12.43-136.81,62.26-99.11,99.06-25.34,172.88-124.45,271.93M-16.37,314.82C-53.08,321-90.48,332-132.42,373.9-231.54,473-157.76,546.78-256.87,645.83M-412.79,711c-36.71,6.2-74.11,17.16-116.05,59.08C-628,869.17-554.18,943-653.29,1042M378.41-79.75C341.7-73.54,304.3-62.59,262.36-20.67,163.25,78.39,237,152.21,137.91,251.26M-22.54,335.33c-29.7,7.33-60.34,21-93.89,54.57C-215.54,489-141.77,562.78-240.88,661.83M-419,731.54c-29.7,7.33-60.35,21-93.89,54.57C-612,885.17-538.19,959-637.3,1058M372.24-59.24c-29.7,7.33-60.34,21-93.89,54.57C179.24,94.4,253,168.21,153.91,267.26M-28.15,359.14c-22.72,8.52-46.23,22.53-71.38,47.66C-198.65,505.86-124.88,579.67-224,678.73m-200.58,76.61c-22.72,8.52-46.23,22.53-71.39,47.66-99.11,99.06-25.34,172.87-124.45,271.93m987-1110.37c-22.72,8.52-46.23,22.53-71.38,47.66C196.13,111.29,269.9,185.1,170.79,284.16m-49-52.34C96.87,256.72,73.56,270.7,51,279.25M-274.63,628c-24.92,24.9-48.23,38.88-70.75,47.42M139.57,249.6c-32.89,32.87-63,46.71-92.15,54.14M-256.85,645.81c-32.89,32.87-63,46.71-92.15,54.14M155.56,265.61c-41.17,41.15-78,52.46-114,58.74m-282.4,337.47c-41.17,41.14-78,52.46-114,58.73M-76.7,430.21c-24.48,24.47-47.42,38.39-69.57,47M-473.12,826.41c-24.48,24.47-47.42,38.39-69.57,47M318.08,35.64C293.6,60.1,270.66,74,248.51,82.61M-58.93,448c-33.7,33.68-64.46,47.37-94.3,54.67M-455.35,844.2c-33.7,33.68-64.47,47.37-94.3,54.67M335.86,53.42c-33.7,33.68-64.46,47.37-94.29,54.67M-42.93,464c-41.47,41.44-78.5,52.63-114.8,58.87M-439.35,860.2c-41.47,41.44-78.5,52.63-114.8,58.87m906-849.64c-41.47,41.44-78.5,52.63-114.8,58.87M48,158C-51.06,257,22.71,330.85-76.4,429.9m-272,124.28c-99.11,99.06-25.34,172.87-124.45,271.93M442.83-236.59C343.72-137.53,417.49-63.72,318.38,35.33M65.82,175.76C-33.29,274.82,40.48,348.63-58.63,447.69M-330.59,572C-429.71,671-355.94,744.84-455,843.89M460.61-218.81C361.5-119.75,435.27-45.94,336.16,53.12M81.82,191.77C-17.29,290.83,56.48,364.64-42.63,463.7M-314.6,588C-413.71,687-339.94,760.84-439,859.9M476.61-202.8C377.49-103.74,451.27-29.93,352.16,69.12M98.71,208.66C-0.41,307.72,73.37,381.53-25.74,480.59m-272,124.28c-99.11,99.06-25.34,172.87-124.45,271.93M493.49-185.91C394.38-86.85,468.15-13,369,86M172.45,282.51c-48.81,48.78-91.47,55.64-134,61.86M-224,678.71c-48.81,48.78-91.47,55.64-134,61.87M-26,480.89C-75.6,530.42-118.82,536.73-162,543M-422.46,877.1c-49.55,49.53-92.77,55.84-136,62.15M368.74,86.32c-49.55,49.53-92.77,55.84-136,62.15"/>
  </g>
</svg>
