<svg width="24" height="24" viewBox="0 0 24 24" fill="none" xmlns="http://www.w3.org/2000/svg">
<path d="M24 9.4976C23.9996 9.34488 23.9643 9.19428 23.8967 9.05733C23.8291 8.92039 23.731 8.80076 23.61 8.7076L12.61 0.207599C12.4351 0.0729904 12.2207 0 12 0C11.7793 0 11.5649 0.0729904 11.39 0.207599L0.39 8.7076C0.268985 8.80076 0.170915 8.92039 0.103311 9.05733C0.0357078 9.19428 0.00036708 9.34488 0 9.4976L0 22.9976C0 23.2628 0.105357 23.5172 0.292893 23.7047C0.48043 23.8922 0.734784 23.9976 1 23.9976H9C9.13261 23.9976 9.25979 23.9449 9.35355 23.8512C9.44732 23.7574 9.5 23.6302 9.5 23.4976V18.9976C9.5 18.3346 9.76339 17.6987 10.2322 17.2298C10.7011 16.761 11.337 16.4976 12 16.4976C12.663 16.4976 13.2989 16.761 13.7678 17.2298C14.2366 17.6987 14.5 18.3346 14.5 18.9976V23.4976C14.5 23.6302 14.5527 23.7574 14.6464 23.8512C14.7402 23.9449 14.8674 23.9976 15 23.9976H23C23.2652 23.9976 23.5196 23.8922 23.7071 23.7047C23.8946 23.5172 24 23.2628 24 22.9976V9.4976Z" fill="#323849"/>
</svg>
