<?xml version="1.0" encoding="UTF-8" standalone="no"?>
<svg width="15px" height="15px" viewBox="0 0 15 15" version="1.1" xmlns="http://www.w3.org/2000/svg" xmlns:xlink="http://www.w3.org/1999/xlink">
    <g id="Page-1" stroke="none" stroke-width="1" fill="none" fill-rule="evenodd">
        <g id="Group-2" stroke="#848892">
            <path d="M2.8384,9.8291 C4.1294,9.8291 5.1764,8.7861 5.1764,7.5001 C5.1764,6.2131 4.1294,5.1711 2.8384,5.1711 C1.5474,5.1711 0.5004,6.2131 0.5004,7.5001 C0.5004,8.7861 1.5474,9.8291 2.8384,9.8291 L2.8384,9.8291 Z" id="Stroke-1"></path>
            <path d="M12.1616,5.1572 C13.4526,5.1572 14.4996,4.1152 14.4996,2.8282 C14.4996,1.5422 13.4526,0.4992 12.1616,0.4992 C10.8706,0.4992 9.8236,1.5422 9.8236,2.8282 C9.8236,4.1152 10.8706,5.1572 12.1616,5.1572 L12.1616,5.1572 Z" id="Stroke-3"></path>
            <path d="M4.55,6.5323 L10.1,3.8283" id="Stroke-6"></path>
            <path d="M12.1616,14.499 C13.4526,14.499 14.4996,13.457 14.4996,12.17 C14.4996,10.884 13.4526,9.841 12.1616,9.841 C10.8706,9.841 9.8236,10.884 9.8236,12.17 C9.8236,13.457 10.8706,14.499 12.1616,14.499 L12.1616,14.499 Z" id="Stroke-7"></path>
            <path d="M4.55,8.4677 L10.1,11.1717" id="Stroke-9"></path>
        </g>
    </g>
</svg>