<svg id="Layer_1" data-name="Layer 1" xmlns="http://www.w3.org/2000/svg" xmlns:xlink="http://www.w3.org/1999/xlink" viewBox="0 0 15 15"><defs><clipPath id="clip-path" transform="translate(0 0)"><rect width="15" height="15" fill="none"/></clipPath></defs><title>phone</title><g clip-path="url(#clip-path)"><path d="M4,6.11a11.78,11.78,0,0,0,5.13,5.13l1-1.26a.78.78,0,0,1,.79-.19,8.86,8.86,0,0,0,2.78.44.78.78,0,0,1,.78.78v2.71a.78.78,0,0,1-.78.78A13.22,13.22,0,0,1,.5,1.28.78.78,0,0,1,1.28.5H4a.78.78,0,0,1,.78.78,8.86,8.86,0,0,0,.44,2.78A.78.78,0,0,1,5,4.85Z" transform="translate(0 0)" fill="none" stroke="#848892" stroke-miterlimit="10"/></g></svg>