<svg xmlns="http://www.w3.org/2000/svg" width="163" height="51" viewBox="0 0 163 51">
    <path fill="#323849" fill-rule="evenodd" d="M9.012 38.533C3.76 42.818 1.152 48.691.334 51H0l.007-6.14c0-.847 1.68-2.614 1.68-2.614C17.82 24.052 48.74 21.458 56.383 6.336c-.164-.544-.433-1.123-1.194-1.16-.689.789.095 1.686.473 1.997l-.66.966c-.097-.39-.693-1.307-1.367-1.243-.508.65.04 2.146.528 2.327-.085.123-.622.805-.767.908-.1-1.104-1.117-1.539-1.446-1.674-1.096 1.024-.205 2.584.506 2.64-.22.262-.936.847-1.238 1.126-.256-1.404-.806-1.88-1.586-2.042-.637.845-.775 2.751.403 3.009-.407.3-1.202.88-1.702 1.21.112-.158.084-2.576-1.197-2.863-1.476 1.227-1.146 3.264-.458 3.884.024.018-1.018.556-1.375.788.045-.497.173-2.718-1.072-3.582-1.268.828-1.133 3.864-.72 4.525-.53.301-.948.507-1.27.67.468-.938-.09-3.755-1.385-4.331-1.086 1.302-1.603 4.56-.887 5.368-.502.234-1.036.447-1.528.688.802-3.2-.092-4.888-.932-5.497-2.12 1.792-1.805 5.503-1.353 6.479.022.038-1.304.533-1.328.569.174-.51.988-5.527-1.312-6.63-2.573 2.428-1.569 6.942-1.188 7.668-.608.229-.966.414-1.588.666.654-4.419.262-7.085-1.166-8.01-1.865 1.579-2.673 5.588-.933 8.898.015-.002-2.198.921-2.198.921.731-2.04 1.445-6.695-1.48-9.468-2.631 2.123-2.75 9.914-1.19 10.637-.856.39-1.77.872-2.622 1.272 1.04-1.808 1.177-10.086-1.48-11.184-4.94 3.954-1.853 11.53-1.277 12.539-1.062.548-2.139 1.007-2.907 1.515 1.878-10.584-2.635-12.325-2.635-12.325-5.064 4.169-2.031 14.203-1.172 14.544-.712.443-2.55 1.683-2.576 1.688.668-1.225.213-12.772-3.792-12.701-4.22 5.114-.822 13.886.19 15.33-.257.225-.633.51-.962.76-.556-1.344-1.058-2.222-1.503-3.527-.602-1.829-.899-3.48-.855-3.684-.116-.668-.113-.9-.145-1.197-.278-3.01.108-5.9 1.163-8.665C25.813 6.755 44.3 21.823 58.21.527c.828 2.436 2.093 6.761-1.597 6.305-.107.208-.27.595-.328.645.189-.136 1.976-.326 2.553.236-.695 1.346-2.685.964-2.985.568l-.675 1.045c.005 0 1.652-.682 3.076.385-1.75 1.725-3.596.336-3.596.336-.318.422-.383.395-.62.736 1.173-.072 2.258.168 3.247 1.136-2.068 1.612-4.417.367-4.287.02-.335.38-.682.67-1.083 1.07 1.37-.369 2.694.366 3.593 1.746-2.98 1.666-4.687-.728-4.745-.757-.567.443-.78.634-1.506 1.176.032-.013 3.054-.3 4.238 2.029-3.68 1.02-5.266-.504-5.535-1.136.012-.003-.742.552-1.55 1.074 1.852.065 3.92 1.042 4.48 2.673-2.916.811-5.617-1.134-5.97-1.755-.355.21-.887.499-1.336.775.95.19 3.387.83 4.51 3.536-5.306 1.014-6.608-1.768-6.977-2.202-.54.302-1.094.488-1.838.932 1.445.1 4.206 1.053 5.522 3.902-5.225.783-7.386-2.307-7.612-2.905-.56.295-1.138.62-1.674.862.941.177 3.567.277 5.484 4.956-3.966.22-8.156-3.298-7.873-3.805-.489.234-1.195.574-1.828.874 2.675.25 5.398 2.867 6.1 5.556-3.46.855-8.415-2.798-8.425-4.418-.173.074-.738.37-1.698.827.035.003 3.643.362 6.478 6.4-3.464.624-8.496-3.208-9.27-5.002-.254.126-1.086.618-1.628.91 1.14-.397 7.04 4.577 6.988 7.182-5.451.402-10.55-4.619-10.2-5.455-.665.318-1.302.826-1.941 1.157 1.522.058 7.416 3.772 8.843 8.165-5.363 1.796-12.3-4.687-11.838-6.24-.343.192-2.47 1.79-2.797 2.042 1.707.103 9.098 3.862 11.466 9.604-12.09 1.51-14.262-7.306-14.365-7.179zM70.796 3.35a2.923 2.923 0 0 0-2.98-2.854 2.92 2.92 0 0 0-2.836 3 2.923 2.923 0 0 0 2.98 2.853c1.604-.04 2.871-1.387 2.836-3zM67.804.102c1.82-.05 3.338 1.405 3.383 3.236.044 1.833-1.396 3.357-3.219 3.4-1.82.048-3.337-1.405-3.379-3.234-.045-1.83 1.399-3.362 3.215-3.402zm-.339 2.644h-.657v2.036h-.43V2.746h-.642v-.395h1.729v.395zm2.407 2.036h-.44V3.196l-.51 1.019h-.4l-.513-1.019v1.586h-.433v-2.43h.433l.71 1.381.713-1.381h.44v2.43zm86.62 25.87h1.63c.725 0 1.238-.22 1.63-.693.405-.503.47-1.311.47-3.055 0-1.78-.07-2.46-.47-2.955-.392-.473-.905-.695-1.63-.695h-1.63v7.398zm1.84 2.104h-4.162V21.15h4.161c1.274 0 2.325.385 3.05 1.114 1.186 1.197 1.18 2.662 1.167 4.209v.865c.003 1.599.019 3.107-1.166 4.306-.726.73-1.777 1.112-3.05 1.112zm-47.631 0h-7.61v-7.77c0-.777-.012-2.323.356-2.908.4-.62.905-.928 1.897-.928h5.357v2.104h-4.139c-.29 0-.604.062-.835.297-.233.23-.31.696-.31 1.005v1.294h4.5v2.107h-4.5v2.694h5.284v2.105zM74.46 21.15v2.104h-5.283v2.697h4.5v2.104h-4.5v1.295c0 .309.075.773.306 1.009.231.232.544.292.838.292h4.139v2.105h-5.36c-.991 0-1.497-.309-1.897-.932-.37-.58-.353-2.125-.353-2.904v-7.77h7.61zm51.184 9.502h5.17v2.104h-7.497V22.65l.003-.004c.013-.733-.212-1.067-.75-1.389l-.027-.01c-.01-.012-.013-.029-.013-.044 0-.032.02-.053.048-.053h1.365c.912 0 1.649.283 1.7 2.5v7.002zm-61.163 2.104H62.42l-4.44-6.941v6.94h-2.322V21.15h2.055l4.44 6.927V21.15h2.329v11.606zm84.973-6.408v-3.922c-.04-.604-.188-.924-.666-1.167l-.024-.013c-.012-.007-.016-.028-.016-.042 0-.033.023-.053.048-.053h1.341c1.077-.04 1.625.773 1.644 2.428l.004 9.177h-2.065l-4.435-6.941v6.94h-2.323V21.15h2.06l4.432 6.927v-1.729zM135.35 28.73h2.693l-1.323-3.981-1.37 3.981zm2.635-6.443l3.79 10.47h-2.432l-.674-2.035h-3.978l-.688 2.035h-2.43l4.181-11.606.854.001c.658-.005 1.12.371 1.377 1.135zm-22.291 6.443h2.7l-1.326-3.981-1.374 3.981zm2.639-6.443l3.785 10.47h-2.427l-.675-2.035h-3.977l-.692 2.035h-2.427l4.187-11.606.853.001c.657-.005 1.115.371 1.373 1.135zm-38.15 5.973l2.039-7.112h1.743l2.042 7.112 1.74-7.112h2.426l-3.085 11.608h-1.932L83.093 25.9l-2.062 6.856h-1.934l-2.635-9.953c-.252-.972-.538-1.288-1.185-1.546l-.024-.01a.06.06 0 0 1-.019-.044c0-.033.019-.055.046-.055h1.54c1.104.012 1.76.546 2.006 1.604l1.357 5.508zm20.393-4.065l-4.083 6.458h4.843v2.103H93.74v-1.873l4.826-7.628H93.95V21.15h7.385v.633c-.028.723-.326 1.653-.76 2.411zm2.822 18.467h2.19l-1.076-3.234-1.114 3.234zm2.142-5.241l3.08 8.517h-1.976l-.546-1.655h-3.237l-.56 1.655h-1.975l3.403-9.44.692.001c.538-.003.911.304 1.12.922zm-18.087 8.474c-.982 0-1.821-.345-2.494-1.023-.912-.92-.911-2.038-.911-3.584v-.253c0-1.546 0-2.663.911-3.583.681-.688 1.498-1.024 2.494-1.024 1.216 0 1.957.313 2.828 1.193l.03.028-1.265 1.276-.029-.03c-.523-.527-.89-.777-1.564-.777-.45 0-.847.17-1.112.478-.331.37-.428.752-.428 2.565 0 1.811.103 2.214.427 2.579.259.3.654.465 1.113.465.491 0 .881-.166 1.19-.505.321-.35.388-.863.388-1.23v-.283h-1.618v-1.584h3.484v1.362c0 1.405-.241 2.205-.859 2.854-.68.713-1.55 1.076-2.585 1.076zm-19.055.043h-1.892v-5.322l-1.704 3.417h-1.274l-1.718-3.418v5.323h-1.892v-9.44h1.85l2.398 5.007 2.383-5.007h1.849v9.44zm10.34 0h-1.89v-5.322l-1.705 3.417h-1.275l-1.717-3.418v5.323h-1.893v-9.44h1.851l2.396 5.007 2.383-5.007h1.85v9.44zm44.842-7.929c-.46 0-.876.176-1.142.484-.334.377-.432.764-.432 2.602 0 1.839.098 2.226.432 2.601.266.309.682.487 1.142.487.458 0 .858-.174 1.129-.486.34-.382.446-.79.446-2.602 0-1.811-.106-2.22-.446-2.6-.27-.314-.67-.486-1.129-.486zm0 7.886c-1.02 0-1.85-.34-2.542-1.038-.924-.933-.924-2.066-.924-3.634v-.256c0-1.568 0-2.7.924-3.633.692-.698 1.523-1.037 2.542-1.037 1.01 0 1.837.34 2.53 1.037.935.945.935 2.1.935 3.697v.128c0 1.598 0 2.753-.935 3.698-.693.698-1.52 1.038-2.53 1.038zm-11.256.043h-1.892v-7.73h-2.422v-1.71h6.736v1.71h-2.422v7.73zm23.507 0h-1.678l-3.61-5.644v5.644h-1.89v-9.44h1.676l3.61 5.633v-5.633h1.892v9.44zm-55.345-6.968v-1.254c.01-.596-.17-.869-.611-1.13l-.02-.01c-.009-.008-.012-.021-.012-.035 0-.025.018-.043.04-.043h1.11c.745 0 1.348.252 1.388 2.058l-.003 7.383h-1.89l-.002-6.969zm-24.076 0v-1.254c.01-.596-.17-.869-.611-1.13l-.02-.01c-.008-.008-.011-.021-.011-.035 0-.025.018-.043.04-.043h1.11c.746 0 1.348.252 1.387 2.058l-.002 7.383H56.41v-6.969zm60.04 0v-1.254c.01-.596-.17-.869-.61-1.13l-.02-.01c-.01-.008-.013-.021-.013-.035 0-.025.017-.043.04-.043h1.11c.745 0 1.35.252 1.388 2.058l-.003 7.383h-1.89l-.002-6.969zM94.367 40.6h1.666c.762 0 1.274-.481 1.274-1.195 0-.714-.512-1.195-1.274-1.195h-1.666v2.39zm5.235 5.338h-2.189l-1.81-3.732h-1.235v3.732h-1.893v-9.44h3.674c1.796 0 3.05 1.196 3.05 2.907 0 1.153-.627 2.077-1.677 2.48l2.08 4.053z"/>
</svg>
